<svg width="66" height="66" viewBox="0 0 66 66" fill="none" xmlns="http://www.w3.org/2000/svg">
<path d="M6.6 2.00012C2.937 2.00012 0 4.93712 0 8.60012V41.6001C0 43.3506 0.695355 45.0293 1.93309 46.267C3.17084 47.5048 4.84957 48.2001 6.6 48.2001H33V64.7001L42.9 54.8001L52.8 64.7001V48.2001H59.4C61.1504 48.2001 62.8292 47.5048 64.0669 46.267C65.3046 45.0293 66 43.3506 66 41.6001V8.60012C66 6.84969 65.3046 5.17096 64.0669 3.93322C62.8292 2.69548 61.1504 2.00012 59.4 2.00012H6.6ZM33 8.60012L42.9 15.2001L52.8 8.60012V20.1501L62.7 25.1001L52.8 30.0501V41.6001L42.9 35.0001L33 41.6001V30.0501L23.1 25.1001L33 20.1501V8.60012ZM6.6 8.60012H23.1V15.2001H6.6V8.60012ZM6.6 21.8001H16.5V28.4001H6.6V21.8001ZM6.6 35.0001H23.1V41.6001H6.6V35.0001Z" fill="#3EDA2B"/>
</svg>
