<svg width="66" height="66" viewBox="0 0 66 66" fill="none" xmlns="http://www.w3.org/2000/svg">
<path d="M15.3143 66.0001H31.1543V56.0058H58.3086V46.5773H31.1543V39.0344H40.4886C43.5057 39.0344 46.24 38.7515 48.9743 37.903C51.4257 37.1487 53.6886 35.923 55.6686 34.2258C58.9686 31.3973 61.8914 26.7773 61.8914 19.5173C61.8914 12.2573 58.9686 7.63727 55.6686 4.80869C53.6886 3.11155 51.4257 1.88584 48.9743 1.13155C46.24 0.282981 43.5057 0.00012207 40.4886 0.00012207H15.3143V29.6058H4V39.0344H15.3143V46.5773H4V56.0058H15.3143V66.0001ZM31.1543 12.6344H36.4343C37.2829 12.6344 38.4143 12.7287 39.0743 12.823C40.0171 12.9173 41.0543 13.2944 41.8086 13.6716C43.2229 14.4258 45.4857 16.5001 45.4857 21.1201C45.4857 25.7401 43.2229 27.8144 41.8086 28.5687C40.4886 29.323 38.32 29.6058 36.4343 29.6058H31.1543V12.6344Z" fill="#3EDA2B"/>
</svg>
