<svg width="66" height="66" viewBox="0 0 66 66" fill="none" xmlns="http://www.w3.org/2000/svg">
<g clip-path="url(#clip0_164_1659)">
<path d="M58.5714 0.00012207C62.0286 0.00012207 64.8571 2.82869 64.8571 6.28584V56.5715C64.8571 60.0287 62.0286 62.8573 58.5714 62.8573H55.4286V66.0001H42.8571V62.8573H24V66.0001H11.4286V62.8573H8.28571C4.82857 62.8573 2 60.0287 2 56.5715V6.28584C2 2.82869 4.82857 0.00012207 8.28571 0.00012207H58.5714ZM49.1429 31.4287C49.1429 28.2858 48.2 25.143 46.6286 22.6287L51.3429 17.9144L46.9429 13.5144L42.2286 18.2287C39.7143 16.6573 36.5714 15.7144 33.4286 15.7144C30.2857 15.7144 27.1429 16.6573 24.6286 18.2287L20.2286 13.5144L15.5143 18.2287L20.2286 22.943C18.6571 25.143 17.7143 28.2858 17.7143 31.4287C17.7143 34.5715 18.6571 37.7144 20.2286 40.2287L15.5143 44.943L20.2286 49.343L24.9429 44.6287C27.1429 46.2001 30.2857 47.143 33.4286 47.143C36.5714 47.143 39.7143 46.2001 42.2286 44.6287L46.9429 49.343L51.3429 44.943L46.6286 40.2287C48.2 37.7144 49.1429 34.5715 49.1429 31.4287ZM33.4286 22.0001C38.7714 22.0001 42.8571 26.0858 42.8571 31.4287C42.8571 36.7715 38.7714 40.8573 33.4286 40.8573C28.0857 40.8573 24 36.7715 24 31.4287C24 26.0858 28.0857 22.0001 33.4286 22.0001ZM33.4286 37.7144C36.8857 37.7144 39.7143 34.8858 39.7143 31.4287C39.7143 27.9715 36.8857 25.143 33.4286 25.143C29.9714 25.143 27.1429 27.9715 27.1429 31.4287C27.1429 34.8858 29.9714 37.7144 33.4286 37.7144Z" fill="#3EDA2B"/>
</g>
<defs>
<clipPath id="clip0_164_1659">
<rect width="66" height="66" fill="white"/>
</clipPath>
</defs>
</svg>
