<svg width="10" height="19" viewBox="0 0 10 19" fill="none" xmlns="http://www.w3.org/2000/svg">
<path d="M10 9.83736C9.99698 10.0593 9.91112 10.2721 9.75926 10.434L1.38569 18.8075C1.223 18.9411 1.01646 19.0093 0.806235 18.999C0.596015 18.9887 0.39715 18.9005 0.248323 18.7517C0.0994954 18.6029 0.0113461 18.404 0.00102144 18.1938C-0.00930323 17.9835 0.0589349 17.777 0.192462 17.6143L7.97988 9.83736L0.192462 2.06041C0.0589349 1.89771 -0.00930323 1.69117 0.00102144 1.48095C0.0113461 1.27073 0.0994954 1.07186 0.248323 0.923035C0.39715 0.774208 0.596015 0.686058 0.806235 0.675734C1.01646 0.665409 1.223 0.733648 1.38569 0.867176L9.75926 9.24074C9.91112 9.40262 9.99698 9.61542 10 9.83736Z" fill="#3EDA2B"/>
</svg>
