<svg width="29" height="15" viewBox="0 0 29 15" fill="none" xmlns="http://www.w3.org/2000/svg">
<path d="M14.8721 3.20196e-07C14.533 0.00452333 14.2078 0.133322 13.9605 0.361111L1.16614 12.9215C0.962119 13.1655 0.857856 13.4753 0.873631 13.7906C0.889407 14.106 1.02409 14.4043 1.25149 14.6275C1.47889 14.8508 1.78275 14.983 2.10395 14.9985C2.42516 15.014 2.74075 14.9116 2.98933 14.7113L14.8721 3.03018L26.7548 14.7113C27.0034 14.9116 27.319 15.014 27.6402 14.9985C27.9614 14.983 28.2652 14.8508 28.4926 14.6275C28.72 14.4043 28.8547 14.106 28.8705 13.7906C28.8863 13.4753 28.782 13.1655 28.578 12.9215L15.7837 0.361111C15.5363 0.133322 15.2112 0.00452333 14.8721 3.20196e-07V3.20196e-07Z" fill="#3EDA2B"/>
</svg>
