<svg width="16" height="16" viewBox="0 0 16 16" fill="none" xmlns="http://www.w3.org/2000/svg">
<path d="M8 11C7.85467 10.9979 7.71532 10.9378 7.60932 10.8315L2.12603 4.96999C2.03859 4.8561 1.99391 4.71152 2.00067 4.56436C2.00743 4.41721 2.06515 4.27801 2.16261 4.17383C2.26007 4.06965 2.39029 4.00794 2.52795 4.00072C2.66561 3.99349 2.80086 4.04125 2.9074 4.13472L8 9.58591L13.0926 4.13472C13.1991 4.04125 13.3344 3.99349 13.472 4.00072C13.6097 4.00794 13.7399 4.06965 13.8374 4.17383C13.9348 4.27801 13.9926 4.41721 13.9993 4.56436C14.0061 4.71152 13.9614 4.8561 13.874 4.96999L8.39068 10.8315C8.28468 10.9378 8.14533 10.9979 8 11V11Z" fill="#3EDA2B"/>
</svg>
