<svg width="20" height="20" viewBox="0 0 20 20" fill="none" xmlns="http://www.w3.org/2000/svg">
<path d="M17.1587 8.33333H10.5421C10.1391 7.19211 9.33613 6.23563 8.28195 5.64112C7.22776 5.04661 5.99381 4.85436 4.80873 5.09999C2.90039 5.48333 1.35039 7.01666 0.950393 8.91666C0.788479 9.64764 0.792735 10.4056 0.962847 11.1348C1.13296 11.8639 1.46459 12.5455 1.93327 13.1294C2.40195 13.7132 2.99573 14.1844 3.67081 14.5082C4.34588 14.8319 5.08503 15 5.83373 15C6.86701 15 7.87485 14.6794 8.71818 14.0824C9.56151 13.4853 10.1988 12.6413 10.5421 11.6667H10.8337L11.9087 12.7417C12.2337 13.0667 12.7587 13.0667 13.0837 12.7417L14.1671 11.6667L15.2421 12.7417C15.5671 13.0667 16.1004 13.0667 16.4254 12.7417L18.5837 10.5667C18.6614 10.4887 18.7228 10.3961 18.7645 10.2943C18.8061 10.1924 18.8272 10.0833 18.8264 9.97325C18.8256 9.86321 18.8031 9.75442 18.76 9.65316C18.7169 9.5519 18.6541 9.46019 18.5754 9.38333L17.7504 8.57499C17.5837 8.41666 17.3754 8.33333 17.1587 8.33333ZM5.83373 12.5C4.45873 12.5 3.33373 11.375 3.33373 9.99999C3.33373 8.62499 4.45873 7.49999 5.83373 7.49999C7.20873 7.49999 8.33373 8.62499 8.33373 9.99999C8.33373 11.375 7.20873 12.5 5.83373 12.5Z" fill="#3EDA2B"/>
</svg>
