<svg width="24" height="24" viewBox="0 0 24 24" fill="none" xmlns="http://www.w3.org/2000/svg">
<path d="M20.3333 4H3.66667C3.22926 4.01456 2.81375 4.19483 2.50429 4.50429C2.19483 4.81375 2.01456 5.22926 2 5.66667V17.3333C2.01456 17.7707 2.19483 18.1863 2.50429 18.4957C2.81375 18.8052 3.22926 18.9854 3.66667 19H20.3333C20.7707 18.9854 21.1863 18.8052 21.4957 18.4957C21.8052 18.1863 21.9854 17.7707 22 17.3333V5.66667C21.9854 5.22926 21.8052 4.81375 21.4957 4.50429C21.1863 4.19483 20.7707 4.01456 20.3333 4ZM20.3333 17.3333H3.66667V5.66667H20.3333" fill="#3EDA2B"/>
<path d="M16.1673 15.6666V14.625C16.1673 13.2416 13.384 12.5416 12.0007 12.5416C10.6173 12.5416 7.83398 13.2416 7.83398 14.625V15.6666H16.1673ZM12.0007 7.33331C11.5886 7.33331 11.1858 7.4555 10.8432 7.68442C10.5006 7.91334 10.2336 8.23871 10.0759 8.61939C9.91822 9.00007 9.87696 9.41896 9.95735 9.82308C10.0377 10.2272 10.2362 10.5984 10.5275 10.8898C10.8189 11.1811 11.1901 11.3796 11.5942 11.4599C11.9983 11.5403 12.4172 11.4991 12.7979 11.3414C13.1786 11.1837 13.504 10.9167 13.7329 10.5741C13.9618 10.2315 14.084 9.82869 14.084 9.41665C14.084 9.14306 14.0301 8.87215 13.9254 8.61939C13.8207 8.36663 13.6672 8.13696 13.4738 7.94351C13.2803 7.75005 13.0507 7.59659 12.7979 7.4919C12.5451 7.3872 12.2742 7.33331 12.0007 7.33331Z" fill="#3EDA2B"/>
</svg>
