<svg width="24" height="24" viewBox="0 0 24 24" fill="none" xmlns="http://www.w3.org/2000/svg">
<path fill-rule="evenodd" clip-rule="evenodd" d="M3.66667 4H20.3333C20.7707 4.01456 21.1863 4.19483 21.4957 4.50429C21.8052 4.81375 21.9854 5.22926 22 5.66667V17.3333C21.9854 17.7707 21.8052 18.1863 21.4957 18.4957C21.1863 18.8052 20.7707 18.9854 20.3333 19H3.66667C3.22926 18.9854 2.81375 18.8052 2.50429 18.4957C2.19483 18.1863 2.01456 17.7707 2 17.3333V5.66667C2.01456 5.22926 2.19483 4.81375 2.50429 4.50429C2.81375 4.19483 3.22926 4.01456 3.66667 4ZM16.1673 14.625V15.6666H7.83398V14.625C7.83398 13.2416 10.6173 12.5416 12.0007 12.5416C13.384 12.5416 16.1673 13.2416 16.1673 14.625ZM10.8432 7.68442C11.1858 7.4555 11.5886 7.33331 12.0007 7.33331C12.2742 7.33331 12.5451 7.3872 12.7979 7.4919C13.0507 7.59659 13.2803 7.75005 13.4738 7.94351C13.6672 8.13696 13.8207 8.36663 13.9254 8.61939C14.0301 8.87215 14.084 9.14306 14.084 9.41665C14.084 9.82869 13.9618 10.2315 13.7329 10.5741C13.504 10.9167 13.1786 11.1837 12.7979 11.3414C12.4172 11.4991 11.9983 11.5403 11.5942 11.4599C11.1901 11.3796 10.8189 11.1811 10.5275 10.8898C10.2362 10.5984 10.0377 10.2272 9.95735 9.82308C9.87696 9.41896 9.91822 9.00007 10.0759 8.61939C10.2336 8.23871 10.5006 7.91334 10.8432 7.68442Z" fill="#008D26"/>
</svg>
