<svg width="24" height="24" viewBox="0 0 24 24" fill="none" xmlns="http://www.w3.org/2000/svg">
<path fill-rule="evenodd" clip-rule="evenodd" d="M3.66667 4H20.3333C20.7707 4.01456 21.1863 4.19483 21.4957 4.50429C21.8052 4.81375 21.9854 5.22926 22 5.66667V17.3333C21.9854 17.7707 21.8052 18.1863 21.4957 18.4957C21.1863 18.8052 20.7707 18.9854 20.3333 19H3.66667C3.22926 18.9854 2.81375 18.8052 2.50429 18.4957C2.19483 18.1863 2.01456 17.7707 2 17.3333V5.66667C2.01456 5.22926 2.19483 4.81375 2.50429 4.50429C2.81375 4.19483 3.22926 4.01456 3.66667 4ZM17.4355 8.49182H12V10.3415H17.4355V8.49182ZM12 12.6586H17.4355V14.5082H12V12.6586ZM6.13781 9.76779C6.48041 9.53887 6.8832 9.41669 7.29525 9.41669C7.56884 9.41669 7.83974 9.47057 8.09251 9.57527C8.34527 9.67997 8.57493 9.83343 8.76839 10.0269C8.96184 10.2203 9.1153 10.45 9.22 10.7028C9.3247 10.9555 9.37858 11.2264 9.37858 11.5C9.37858 11.9121 9.2564 12.3149 9.02748 12.6575C8.79856 13.0001 8.47319 13.2671 8.09251 13.4248C7.71183 13.5825 7.29294 13.6237 6.88881 13.5433C6.48468 13.4629 6.11347 13.2645 5.82211 12.9732C5.53075 12.6818 5.33233 12.3106 5.25195 11.9065C5.17156 11.5023 5.21282 11.0834 5.3705 10.7028C5.52818 10.3221 5.79521 9.99671 6.13781 9.76779Z" fill="#3EDA2B"/>
</svg>
