<svg width="24" height="24" viewBox="0 0 24 24" fill="none" xmlns="http://www.w3.org/2000/svg">
<rect x="12" y="8.49182" width="5.43555" height="1.84967" fill="#3EDA2B"/>
<rect x="12" y="12.6586" width="5.43555" height="1.84967" fill="#3EDA2B"/>
<path d="M20.3333 4H3.66667C3.22926 4.01456 2.81375 4.19483 2.50429 4.50429C2.19483 4.81375 2.01456 5.22926 2 5.66667V17.3333C2.01456 17.7707 2.19483 18.1863 2.50429 18.4957C2.81375 18.8052 3.22926 18.9854 3.66667 19H20.3333C20.7707 18.9854 21.1863 18.8052 21.4957 18.4957C21.8052 18.1863 21.9854 17.7707 22 17.3333V5.66667C21.9854 5.22926 21.8052 4.81375 21.4957 4.50429C21.1863 4.19483 20.7707 4.01456 20.3333 4ZM20.3333 17.3333H3.66667V5.66667H20.3333" fill="#3EDA2B"/>
<path d="M7.29525 9.41669C6.8832 9.41669 6.48041 9.53887 6.13781 9.76779C5.79521 9.99671 5.52818 10.3221 5.3705 10.7028C5.21282 11.0834 5.17156 11.5023 5.25195 11.9065C5.33233 12.3106 5.53075 12.6818 5.82211 12.9732C6.11347 13.2645 6.48468 13.4629 6.88881 13.5433C7.29294 13.6237 7.71183 13.5825 8.09251 13.4248C8.47319 13.2671 8.79856 13.0001 9.02748 12.6575C9.2564 12.3149 9.37858 11.9121 9.37858 11.5C9.37858 11.2264 9.3247 10.9555 9.22 10.7028C9.1153 10.45 8.96184 10.2203 8.76839 10.0269C8.57493 9.83343 8.34527 9.67997 8.09251 9.57527C7.83974 9.47057 7.56884 9.41669 7.29525 9.41669Z" fill="#3EDA2B"/>
</svg>
