<svg width="208" height="61" viewBox="0 0 208 61" fill="none" xmlns="http://www.w3.org/2000/svg">
<path d="M206.845 53.3886C206.845 56.5908 204.197 59.1847 200.922 59.1847H7.08706C3.81345 59.1847 1.15625 56.5908 1.15625 53.3886V7.16691C1.15625 3.96621 3.81345 1.36328 7.08706 1.36328H200.921C204.197 1.36328 206.844 3.96621 206.844 7.16691L206.845 53.3886Z" fill="black"/>
<path d="M200.296 1.43312C203.863 1.43312 206.765 4.26294 206.765 7.74058V52.8072C206.765 56.2849 203.863 59.1147 200.296 59.1147H7.7037C4.13689 59.1147 1.23452 56.2849 1.23452 52.8072V7.74058C1.23452 4.26294 4.13689 1.43312 7.7037 1.43312H200.296ZM200.296 0.229473H7.7037C3.46859 0.229473 0 3.61135 0 7.74058V52.8072C0 56.9365 3.46859 60.3184 7.7037 60.3184H200.296C204.531 60.3184 208 56.9365 208 52.8072V7.74058C208 3.61135 204.531 0.229473 200.296 0.229473Z" fill="#3EDA2B"/>
<path d="M46.4214 29.949C46.3767 25.1073 50.4874 22.7519 50.6754 22.6422C48.3473 19.3328 44.7389 18.8806 43.4708 18.8446C40.4402 18.5336 37.5005 20.6127 35.9567 20.6127C34.382 20.6127 32.0047 18.8746 29.4424 18.9257C26.1452 18.9753 23.0607 20.8365 21.3689 23.7268C17.8776 29.62 20.4815 38.2803 23.8264 43.0439C25.4996 45.3768 27.4548 47.9817 30.014 47.89C32.5177 47.7894 33.453 46.3337 36.4743 46.3337C39.468 46.3337 40.3462 47.89 42.9562 47.8315C45.6433 47.7894 47.335 45.488 48.9497 43.134C50.8833 40.4601 51.6599 37.8267 51.6907 37.6915C51.6275 37.6704 46.4722 35.7521 46.4214 29.949Z" fill="white"/>
<path d="M41.491 15.7109C42.8376 14.069 43.759 11.8352 43.5032 9.56836C41.5542 9.65248 39.1167 10.8828 37.7131 12.4887C36.4713 13.9038 35.3619 16.2232 35.6485 18.4044C37.8379 18.5637 40.0858 17.3273 41.491 15.7109Z" fill="white"/>
<path d="M82.652 47.5541H79.153L77.2363 41.6819H70.5742L68.7484 47.5541H65.3418L71.9423 27.5625H76.0191L82.652 47.5541ZM76.6585 39.2182L74.9252 33.998C74.7419 33.4647 74.3983 32.2089 73.8914 30.2319H73.8297C73.6279 31.0822 73.3028 32.3381 72.856 33.998L71.1535 39.2182H76.6585Z" fill="white"/>
<path d="M99.6267 40.1701C99.6267 42.6217 98.9472 44.5596 97.5883 45.9822C96.3711 47.2486 94.8596 47.881 93.0554 47.881C91.1079 47.881 89.7089 47.199 88.8569 45.835H88.7952V53.4287H85.5104V37.8852C85.5104 36.3439 85.4688 34.7621 85.3887 33.1397H88.2776L88.4609 35.4246H88.5225C89.618 33.703 91.2805 32.8438 93.5115 32.8438C95.2556 32.8438 96.7116 33.5152 97.8764 34.8597C99.0443 36.2057 99.6267 37.9753 99.6267 40.1701ZM96.2802 40.2873C96.2802 38.8842 95.9566 37.7275 95.3064 36.8171C94.5961 35.8677 93.6424 35.393 92.4468 35.393C91.6364 35.393 90.8999 35.6574 90.242 36.1787C89.5826 36.7045 89.1512 37.391 88.9493 38.2412C88.8476 38.6378 88.7968 38.9623 88.7968 39.2177V41.6212C88.7968 42.6698 89.1265 43.5546 89.7859 44.2772C90.4454 44.9997 91.302 45.3603 92.3559 45.3603C93.5931 45.3603 94.5561 44.8946 95.2448 43.9662C95.935 43.0363 96.2802 41.8105 96.2802 40.2873Z" fill="white"/>
<path d="M116.631 40.1701C116.631 42.6217 115.952 44.5596 114.591 45.9822C113.375 47.2486 111.864 47.881 110.06 47.881C108.112 47.881 106.713 47.199 105.863 45.835H105.801V53.4287H102.516V37.8852C102.516 36.3439 102.475 34.7621 102.395 33.1397H105.283L105.467 35.4246H105.528C106.622 33.703 108.285 32.8438 110.517 32.8438C112.26 32.8438 113.716 33.5152 114.884 34.8597C116.047 36.2057 116.631 37.9753 116.631 40.1701ZM113.284 40.2873C113.284 38.8842 112.959 37.7275 112.309 36.8171C111.599 35.8677 110.648 35.393 109.451 35.393C108.639 35.393 107.904 35.6574 107.245 36.1787C106.585 36.7045 106.155 37.391 105.954 38.2412C105.853 38.6378 105.801 38.9623 105.801 39.2177V41.6212C105.801 42.6698 106.131 43.5546 106.787 44.2772C107.447 44.9982 108.303 45.3603 109.36 45.3603C110.597 45.3603 111.56 44.8946 112.249 43.9662C112.939 43.0363 113.284 41.8105 113.284 40.2873Z" fill="white"/>
<path d="M135.644 41.9477C135.644 43.6483 135.039 45.0318 133.823 46.0999C132.487 47.2671 130.628 47.85 128.238 47.85C126.032 47.85 124.263 47.4354 122.924 46.6046L123.685 43.9352C125.127 44.7854 126.709 45.2121 128.434 45.2121C129.671 45.2121 130.634 44.9387 131.325 44.3949C132.014 43.8511 132.358 43.121 132.358 42.2106C132.358 41.3994 132.074 40.7159 131.506 40.1616C130.94 39.6073 129.996 39.092 128.677 38.6158C125.087 37.3104 123.294 35.3981 123.294 32.8833C123.294 31.2399 123.922 29.8924 125.181 28.8439C126.435 27.7938 128.108 27.2695 130.201 27.2695C132.067 27.2695 133.617 27.5865 134.854 28.2189L134.033 30.8298C132.877 30.2169 131.57 29.9104 130.108 29.9104C128.953 29.9104 128.05 30.1884 127.403 30.7412C126.856 31.2354 126.582 31.8378 126.582 32.5513C126.582 33.3415 126.894 33.995 127.523 34.5087C128.07 34.9834 129.064 35.4972 130.506 36.0515C132.27 36.744 133.566 37.5537 134.399 38.4821C135.23 39.4075 135.644 40.5657 135.644 41.9477Z" fill="white"/>
<path d="M146.504 35.5422H142.883V42.5411C142.883 44.3212 143.521 45.2105 144.8 45.2105C145.387 45.2105 145.874 45.161 146.259 45.0618L146.35 47.4939C145.703 47.7298 144.851 47.8485 143.795 47.8485C142.498 47.8485 141.484 47.4624 140.753 46.6917C140.024 45.9196 139.657 44.6247 139.657 42.8055V35.5392H137.5V33.1357H139.657V30.4963L142.883 29.5469V33.1357H146.504V35.5422Z" fill="white"/>
<path d="M162.841 40.2272C162.841 42.443 162.191 44.2621 160.893 45.6847C159.533 47.1494 157.727 47.8795 155.476 47.8795C153.307 47.8795 151.58 47.178 150.291 45.7749C149.003 44.3718 148.359 42.6007 148.359 40.466C148.359 38.2322 149.022 36.4025 150.352 34.9799C151.678 33.5558 153.468 32.8438 155.719 32.8438C157.889 32.8438 159.635 33.5453 160.952 34.9499C162.212 36.3124 162.841 38.0715 162.841 40.2272ZM159.433 40.3308C159.433 39.0014 159.141 37.8612 158.551 36.9103C157.863 35.7596 156.878 35.1857 155.602 35.1857C154.282 35.1857 153.279 35.7611 152.59 36.9103C152 37.8627 151.709 39.0209 151.709 40.3909C151.709 41.7204 152 42.8606 152.59 43.81C153.301 44.9607 154.293 45.5345 155.573 45.5345C156.827 45.5345 157.812 44.9487 158.522 43.7799C159.128 42.811 159.433 41.6588 159.433 40.3308Z" fill="white"/>
<path d="M173.52 35.9564C173.194 35.8978 172.848 35.8677 172.484 35.8677C171.329 35.8677 170.435 36.2929 169.806 37.1446C169.259 37.8957 168.985 38.8451 168.985 39.9913V47.555H165.702L165.733 37.6794C165.733 36.0179 165.691 34.5052 165.609 33.1412H168.471L168.591 35.8993H168.682C169.028 34.9514 169.575 34.1882 170.324 33.6159C171.056 33.1006 171.846 32.8438 172.698 32.8438C173.002 32.8438 173.276 32.8648 173.52 32.9023V35.9564Z" fill="white"/>
<path d="M188.21 39.665C188.21 40.2389 188.171 40.7226 188.09 41.1177H178.235C178.274 42.5418 178.75 43.6309 179.665 44.382C180.495 45.0535 181.569 45.39 182.888 45.39C184.347 45.39 185.678 45.1632 186.875 44.708L187.39 46.9313C185.991 47.5262 184.339 47.8221 182.434 47.8221C180.141 47.8221 178.341 47.1641 177.032 45.8497C175.725 44.5352 175.07 42.7701 175.07 40.5559C175.07 38.3821 175.679 36.572 176.898 35.1283C178.173 33.587 179.897 32.8164 182.067 32.8164C184.198 32.8164 185.811 33.587 186.906 35.1283C187.774 36.3526 188.21 37.8669 188.21 39.665ZM185.077 38.8343C185.099 37.8849 184.885 37.0647 184.44 36.3722C183.871 35.4813 182.997 35.0367 181.822 35.0367C180.748 35.0367 179.874 35.4708 179.207 36.3421C178.66 37.0346 178.335 37.8654 178.235 38.8328H185.077V38.8343Z" fill="white"/>
<path d="M75.5731 15.2632C75.5731 17.0314 75.0292 18.3623 73.943 19.2562C72.9369 20.0809 71.5071 20.494 69.6551 20.494C68.7368 20.494 67.951 20.4549 67.2931 20.3768V10.716C68.1513 10.5808 69.0758 10.5117 70.0742 10.5117C71.8383 10.5117 73.168 10.8858 74.0647 11.6339C75.0693 12.4796 75.5731 13.6889 75.5731 15.2632ZM73.8706 15.3068C73.8706 14.1606 73.5593 13.2818 72.9369 12.6689C72.3144 12.0575 71.4054 11.7511 70.2082 11.7511C69.6998 11.7511 69.2668 11.7841 68.9078 11.8532V19.1976C69.1066 19.2276 69.4702 19.2411 69.9987 19.2411C71.2344 19.2411 72.1881 18.9061 72.8598 18.2361C73.5316 17.5662 73.8706 16.5897 73.8706 15.3068Z" fill="white"/>
<path d="M84.602 16.808C84.602 17.8971 84.283 18.7894 83.6452 19.4895C82.9765 20.209 82.0906 20.5681 80.9843 20.5681C79.9181 20.5681 79.0692 20.2241 78.4359 19.533C77.8042 18.8435 77.4884 17.9737 77.4884 16.9252C77.4884 15.8286 77.8135 14.9287 78.4667 14.2302C79.12 13.5317 79.9982 13.1816 81.1045 13.1816C82.1707 13.1816 83.0273 13.5256 83.676 14.2152C84.2923 14.8852 84.602 15.7504 84.602 16.808ZM82.9272 16.8591C82.9272 16.2056 82.7824 15.6453 82.4942 15.1781C82.1553 14.6133 81.673 14.3308 81.0459 14.3308C80.3973 14.3308 79.9042 14.6133 79.5653 15.1781C79.2756 15.6453 79.1323 16.2146 79.1323 16.8876C79.1323 17.5411 79.2772 18.1014 79.5653 18.5686C79.915 19.1334 80.4019 19.4159 81.0305 19.4159C81.6468 19.4159 82.1306 19.1289 82.4788 18.5536C82.7777 18.0774 82.9272 17.5125 82.9272 16.8591Z" fill="white"/>
<path d="M96.7048 13.3262L94.4322 20.4076H92.9531L92.0117 17.3326C91.7729 16.565 91.5787 15.8018 91.4277 15.0447H91.3984C91.2582 15.8229 91.0641 16.5845 90.8145 17.3326L89.8146 20.4076H88.3185L86.1815 13.3262H87.8409L88.6621 16.6927C88.8608 17.4888 89.0242 18.2475 89.1551 18.9655H89.1844C89.3046 18.3736 89.5033 17.6195 89.7838 16.7077L90.8145 13.3277H92.1303L93.1179 16.6356C93.3567 17.4423 93.5509 18.2189 93.7003 18.967H93.745C93.8544 18.2384 94.0193 17.4618 94.238 16.6356L95.1193 13.3277H96.7048V13.3262Z" fill="white"/>
<path d="M105.075 20.4079H103.461V16.3519C103.461 15.1021 102.974 14.4772 101.997 14.4772C101.518 14.4772 101.131 14.6484 100.831 14.9924C100.533 15.3364 100.382 15.742 100.382 16.2062V20.4064H98.7676V15.3499C98.7676 14.728 98.7476 14.0535 98.7091 13.3235H100.128L100.204 14.4306H100.248C100.436 14.0866 100.717 13.8027 101.085 13.5758C101.522 13.3114 102.012 13.1777 102.549 13.1777C103.227 13.1777 103.79 13.3911 104.239 13.8192C104.797 14.3435 105.075 15.1261 105.075 16.1657V20.4079Z" fill="white"/>
<path d="M109.529 20.407H107.916V10.0762H109.529V20.407Z" fill="white"/>
<path d="M119.034 16.808C119.034 17.8971 118.715 18.7894 118.077 19.4895C117.408 20.209 116.521 20.5681 115.416 20.5681C114.348 20.5681 113.499 20.2241 112.868 19.533C112.236 18.8435 111.92 17.9737 111.92 16.9252C111.92 15.8286 112.245 14.9287 112.898 14.2302C113.552 13.5317 114.43 13.1816 115.535 13.1816C116.602 13.1816 117.457 13.5256 118.108 14.2152C118.724 14.8852 119.034 15.7504 119.034 16.808ZM117.357 16.8591C117.357 16.2056 117.212 15.6453 116.924 15.1781C116.587 14.6133 116.103 14.3308 115.478 14.3308C114.827 14.3308 114.334 14.6133 113.997 15.1781C113.707 15.6453 113.564 16.2146 113.564 16.8876C113.564 17.5411 113.709 18.1014 113.997 18.5686C114.347 19.1334 114.834 19.4159 115.462 19.4159C116.078 19.4159 116.561 19.1289 116.909 18.5536C117.209 18.0774 117.357 17.5125 117.357 16.8591Z" fill="white"/>
<path d="M126.849 20.4073H125.4L125.279 19.5916H125.235C124.739 20.2421 124.031 20.5681 123.113 20.5681C122.428 20.5681 121.873 20.3532 121.455 19.9266C121.076 19.539 120.887 19.0568 120.887 18.4845C120.887 17.6192 121.257 16.9597 122.001 16.5031C122.743 16.0464 123.788 15.8225 125.133 15.8331V15.7009C125.133 14.768 124.631 14.3023 123.625 14.3023C122.908 14.3023 122.277 14.4781 121.731 14.8266L121.403 13.793C122.078 13.3859 122.911 13.1816 123.894 13.1816C125.793 13.1816 126.745 14.1581 126.745 16.111V18.7188C126.745 19.4264 126.78 19.9897 126.849 20.4073ZM125.173 17.9737V16.8816C123.392 16.8516 122.502 17.3278 122.502 18.3087C122.502 18.6783 122.603 18.9547 122.811 19.1395C123.019 19.3242 123.284 19.4159 123.6 19.4159C123.954 19.4159 124.286 19.3062 124.588 19.0884C124.891 18.8691 125.078 18.5911 125.147 18.2501C125.164 18.1735 125.173 18.0804 125.173 17.9737Z" fill="white"/>
<path d="M136.023 20.407H134.59L134.515 19.2698H134.47C134.013 20.1351 133.233 20.5677 132.138 20.5677C131.262 20.5677 130.534 20.2327 129.956 19.5627C129.378 18.8927 129.09 18.0229 129.09 16.9548C129.09 15.8087 129.403 14.8803 130.031 14.1712C130.64 13.5103 131.386 13.1798 132.273 13.1798C133.248 13.1798 133.931 13.4997 134.319 14.1412H134.35V10.0762H135.966V18.4991C135.966 19.1887 135.985 19.8241 136.023 20.407ZM134.35 17.4205V16.2398C134.35 16.0355 134.335 15.8702 134.305 15.7441C134.214 15.3655 134.019 15.047 133.721 14.7901C133.421 14.5333 133.059 14.4041 132.641 14.4041C132.039 14.4041 131.567 14.6369 131.221 15.1041C130.877 15.5713 130.703 16.1677 130.703 16.8963C130.703 17.5963 130.868 18.1641 131.199 18.6013C131.549 19.067 132.02 19.2998 132.611 19.2998C133.141 19.2998 133.564 19.106 133.886 18.717C134.197 18.3579 134.35 17.9253 134.35 17.4205Z" fill="white"/>
<path d="M149.834 16.808C149.834 17.8971 149.515 18.7894 148.878 19.4895C148.209 20.209 147.325 20.5681 146.217 20.5681C145.152 20.5681 144.303 20.2241 143.668 19.533C143.037 18.8435 142.721 17.9737 142.721 16.9252C142.721 15.8286 143.046 14.9287 143.699 14.2302C144.352 13.5317 145.231 13.1816 146.338 13.1816C147.403 13.1816 148.261 13.5256 148.908 14.2152C149.525 14.8852 149.834 15.7504 149.834 16.808ZM148.161 16.8591C148.161 16.2056 148.016 15.6453 147.728 15.1781C147.388 14.6133 146.907 14.3308 146.278 14.3308C145.631 14.3308 145.138 14.6133 144.798 15.1781C144.508 15.6453 144.365 16.2146 144.365 16.8876C144.365 17.5411 144.51 18.1014 144.798 18.5686C145.147 19.1334 145.634 19.4159 146.263 19.4159C146.879 19.4159 147.365 19.1289 147.713 18.5536C148.01 18.0774 148.161 17.5125 148.161 16.8591Z" fill="white"/>
<path d="M158.517 20.4079H156.904V16.3519C156.904 15.1021 156.417 14.4772 155.439 14.4772C154.96 14.4772 154.573 14.6484 154.274 14.9924C153.975 15.3364 153.826 15.742 153.826 16.2062V20.4064H152.209V15.3499C152.209 14.728 152.191 14.0535 152.152 13.3235H153.57L153.645 14.4306H153.69C153.88 14.0866 154.16 13.8027 154.527 13.5758C154.966 13.3114 155.454 13.1777 155.992 13.1777C156.668 13.1777 157.232 13.3911 157.681 13.8192C158.24 14.3435 158.517 15.1261 158.517 16.1657V20.4079Z" fill="white"/>
<path d="M169.384 14.5054H167.606V17.9454C167.606 18.8197 167.922 19.2569 168.548 19.2569C168.838 19.2569 169.078 19.2328 169.267 19.1833L169.309 20.3775C168.99 20.4947 168.571 20.5533 168.055 20.5533C167.417 20.5533 166.921 20.364 166.562 19.9855C166.201 19.6069 166.023 18.97 166.023 18.0761V14.5054H164.961V13.3261H166.023V12.0282L167.605 11.5625V13.3246H169.383V14.5054H169.384Z" fill="white"/>
<path d="M177.931 20.407H176.315V16.381C176.315 15.1116 175.828 14.4762 174.853 14.4762C174.104 14.4762 173.592 14.8442 173.312 15.5803C173.264 15.735 173.236 15.9243 173.236 16.1467V20.4055H171.623V10.0762H173.236V14.344H173.267C173.776 13.5673 174.504 13.1798 175.449 13.1798C176.117 13.1798 176.671 13.3931 177.11 13.8212C177.657 14.3545 177.931 15.1477 177.931 16.1962V20.407Z" fill="white"/>
<path d="M186.748 16.5314C186.748 16.8139 186.727 17.0512 186.688 17.245H181.846C181.867 17.945 182.098 18.4783 182.547 18.8479C182.957 19.1784 183.485 19.3436 184.132 19.3436C184.849 19.3436 185.502 19.2324 186.09 19.0086L186.343 20.1022C185.654 20.3937 184.844 20.5394 183.906 20.5394C182.781 20.5394 181.895 20.2164 181.254 19.5704C180.61 18.9245 180.291 18.0577 180.291 16.9701C180.291 15.902 180.588 15.0127 181.188 14.3036C181.813 13.5465 182.659 13.168 183.727 13.168C184.772 13.168 185.565 13.5465 186.101 14.3036C186.534 14.9045 186.748 15.6481 186.748 16.5314ZM185.208 16.1243C185.22 15.6571 185.114 15.2546 184.895 14.9151C184.614 14.4779 184.188 14.2586 183.61 14.2586C183.083 14.2586 182.653 14.4719 182.325 14.9C182.057 15.241 181.898 15.6481 181.846 16.1243H185.208Z" fill="white"/>
</svg>
