<svg width="209" height="61" viewBox="0 0 209 61" fill="none" xmlns="http://www.w3.org/2000/svg">
<path d="M200.999 60.3145H8.40683C4.17172 60.3145 0.703125 56.9279 0.703125 52.793V7.66416C0.703125 3.52924 4.17172 0.142695 8.40683 0.142695H200.999C205.235 0.142695 208.703 3.52924 208.703 7.66416V52.793C208.703 56.9279 205.235 60.3145 200.999 60.3145Z" fill="black"/>
<path d="M200.999 1.34801C204.566 1.34801 207.469 4.18173 207.469 7.66416V52.793C207.469 56.2754 204.566 59.1091 200.999 59.1091H8.40683C4.84001 59.1091 1.93764 56.2754 1.93764 52.793V7.66416C1.93764 4.18173 4.84001 1.34801 8.40683 1.34801H200.999ZM200.999 0.142695H8.40683C4.17172 0.142695 0.703125 3.52924 0.703125 7.66416V52.793C0.703125 56.9279 4.17172 60.3145 8.40683 60.3145H200.999C205.235 60.3145 208.703 56.9279 208.703 52.793V7.66416C208.703 3.52924 205.235 0.142695 200.999 0.142695Z" fill="#3EDA2B"/>
<path d="M73.7626 15.5514C73.7626 16.8075 73.3774 17.8135 72.6186 18.5637C71.7461 19.4531 70.6098 19.9007 69.2174 19.9007C67.8866 19.9007 66.7503 19.4456 65.8181 18.5487C64.884 17.6386 64.418 16.5217 64.418 15.1847C64.418 13.8478 64.884 12.7308 65.8181 11.8283C66.7503 10.9238 67.8866 10.4688 69.2174 10.4688C69.8799 10.4688 70.5116 10.6023 71.1144 10.8505C71.7153 11.1006 72.2045 11.439 72.5589 11.8565L71.7538 12.65C71.1356 11.9373 70.294 11.5857 69.2174 11.5857C68.2467 11.5857 67.4051 11.9166 66.6906 12.5842C65.9837 13.2536 65.6294 14.1204 65.6294 15.1847C65.6294 16.249 65.9837 17.1234 66.6906 17.7928C67.4051 18.4528 68.2467 18.7913 69.2174 18.7913C70.2477 18.7913 71.1144 18.4528 71.7981 17.7853C72.2488 17.3434 72.5049 16.7341 72.5723 15.9557H69.2174V14.8688H73.6932C73.7472 15.1039 73.7626 15.3314 73.7626 15.5514Z" fill="white" stroke="white" stroke-width="0.185144" stroke-miterlimit="10"/>
<path d="M80.8652 11.7833H76.6609V14.6415H80.4511V15.7283H76.6609V18.5865H80.8652V19.694H75.4707V10.6758H80.8652V11.7833Z" fill="white" stroke="white" stroke-width="0.185144" stroke-miterlimit="10"/>
<path d="M85.8727 19.694H84.6825V11.7833H82.1037V10.6758H88.4534V11.7833H85.8727V19.694Z" fill="white" stroke="white" stroke-width="0.185144" stroke-miterlimit="10"/>
<path d="M93.0491 19.694V10.6758H94.2374V19.694H93.0491Z" fill="white" stroke="white" stroke-width="0.185144" stroke-miterlimit="10"/>
<path d="M99.5053 19.694H98.3247V11.7833H95.7363V10.6758H102.094V11.7833H99.5053V19.694Z" fill="white" stroke="white" stroke-width="0.185144" stroke-miterlimit="10"/>
<path d="M114.115 18.5336C113.204 19.4456 112.076 19.9007 110.729 19.9007C109.376 19.9007 108.247 19.4456 107.336 18.5336C106.427 17.6235 105.974 16.5066 105.974 15.1847C105.974 13.8628 106.427 12.7459 107.336 11.8358C108.247 10.9238 109.376 10.4688 110.729 10.4688C112.068 10.4688 113.197 10.9238 114.108 11.8433C115.024 12.7609 115.477 13.8703 115.477 15.1847C115.477 16.5066 115.024 17.6235 114.115 18.5336ZM108.216 17.7777C108.902 18.4528 109.736 18.7913 110.729 18.7913C111.716 18.7913 112.557 18.4528 113.235 17.7777C113.919 17.1027 114.265 16.2358 114.265 15.1847C114.265 14.1336 113.919 13.2667 113.235 12.5917C112.557 11.9166 111.716 11.5782 110.729 11.5782C109.736 11.5782 108.902 11.9166 108.216 12.5917C107.532 13.2667 107.186 14.1336 107.186 15.1847C107.186 16.2358 107.532 17.1027 108.216 17.7777Z" fill="white" stroke="white" stroke-width="0.185144" stroke-miterlimit="10"/>
<path d="M117.147 19.694V10.6758H118.591L123.082 17.6896H123.134L123.082 15.9559V10.6758H124.271V19.694H123.03L118.327 12.3343H118.275L118.327 14.0755V19.694H117.147Z" fill="white" stroke="white" stroke-width="0.185144" stroke-miterlimit="10"/>
<path d="M105.68 32.8658C102.061 32.8658 99.1048 35.5548 99.1048 39.2647C99.1048 42.9446 102.061 45.6617 105.68 45.6617C109.306 45.6617 112.263 42.9446 112.263 39.2647C112.263 35.5548 109.306 32.8658 105.68 32.8658ZM105.68 43.142C103.694 43.142 101.986 41.5418 101.986 39.2647C101.986 36.9575 103.694 35.3855 105.68 35.3855C107.666 35.3855 109.382 36.9575 109.382 39.2647C109.382 41.5418 107.666 43.142 105.68 43.142ZM91.3337 32.8658C87.7072 32.8658 84.7586 35.5548 84.7586 39.2647C84.7586 42.9446 87.7072 45.6617 91.3337 45.6617C94.9583 45.6617 97.9088 42.9446 97.9088 39.2647C97.9088 35.5548 94.9583 32.8658 91.3337 32.8658ZM91.3337 43.142C89.3462 43.142 87.6321 41.5418 87.6321 39.2647C87.6321 36.9575 89.3462 35.3855 91.3337 35.3855C93.3194 35.3855 95.0277 36.9575 95.0277 39.2647C95.0277 41.5418 93.3194 43.142 91.3337 43.142ZM74.2623 34.8271V37.5461H80.9125C80.718 39.0654 80.198 40.1823 79.4007 40.9608C78.43 41.901 76.9182 42.9446 74.2623 42.9446C70.1697 42.9446 66.965 39.7198 66.965 35.724C66.965 31.7282 70.1697 28.5034 74.2623 28.5034C76.4752 28.5034 78.0853 29.3477 79.2736 30.442L81.2361 28.5259C79.574 26.9765 77.3631 25.7862 74.2623 25.7862C68.6502 25.7862 63.9336 30.2446 63.9336 35.724C63.9336 41.2034 68.6502 45.6617 74.2623 45.6617C77.2957 45.6617 79.574 44.6915 81.3651 42.8713C83.2005 41.0793 83.7725 38.5596 83.7725 36.525C83.7725 35.8932 83.7186 35.3122 83.6223 34.8271H74.2623ZM144.069 36.9349C143.528 35.504 141.858 32.8658 138.457 32.8658C135.087 32.8658 132.281 35.4589 132.281 39.2647C132.281 42.8487 135.058 45.6617 138.781 45.6617C141.791 45.6617 143.528 43.8697 144.243 42.8261L142.009 41.3726C141.263 42.4369 140.248 43.142 138.781 43.142C137.323 43.142 136.277 42.4896 135.607 41.2034L144.372 37.6626L144.069 36.9349ZM135.133 39.0654C135.058 36.5984 137.096 35.3348 138.555 35.3348C139.699 35.3348 140.67 35.8932 140.994 36.6924L135.133 39.0654ZM128.009 45.2725H130.89V26.4688H128.009V45.2725ZM123.291 34.2912H123.194C122.547 33.5428 121.313 32.8658 119.749 32.8658C116.467 32.8658 113.466 35.6789 113.466 39.2854C113.466 42.8713 116.467 45.6617 119.749 45.6617C121.313 45.6617 122.547 44.9792 123.194 44.2082H123.291V45.1258C123.291 47.5722 121.952 48.8866 119.793 48.8866C118.033 48.8866 116.941 47.6455 116.49 46.6019L113.985 47.623C114.707 49.319 116.619 51.4062 119.793 51.4062C123.171 51.4062 126.022 49.4657 126.022 44.7441V33.2551H123.291V34.2912ZM119.995 43.142C118.01 43.142 116.348 41.5193 116.348 39.2854C116.348 37.0308 118.01 35.3855 119.995 35.3855C121.952 35.3855 123.495 37.0308 123.495 39.2854C123.495 41.5193 121.952 43.142 119.995 43.142ZM157.559 26.4688H150.668V45.2725H153.541V38.1478H157.559C160.75 38.1478 163.879 35.8932 163.879 32.3074C163.879 28.7234 160.742 26.4688 157.559 26.4688ZM157.634 35.5322H153.541V29.0844H157.634C159.779 29.0844 161.004 30.8238 161.004 32.3074C161.004 33.7628 159.779 35.5322 157.634 35.5322ZM175.397 32.8301C173.32 32.8301 171.161 33.7252 170.274 35.7089L172.823 36.7526C173.372 35.7089 174.382 35.3705 175.449 35.3705C176.939 35.3705 178.451 36.2449 178.474 37.7886V37.9861C177.954 37.6927 176.841 37.2584 175.472 37.2584C172.725 37.2584 169.927 38.7345 169.927 41.4892C169.927 44.0089 172.176 45.6316 174.705 45.6316C176.639 45.6316 177.706 44.7798 178.376 43.7889H178.474V45.2424H181.249V38.0293C181.249 34.6954 178.699 32.8301 175.397 32.8301ZM175.05 43.1345C174.11 43.1345 172.8 42.6795 172.8 41.5418C172.8 40.0864 174.434 39.528 175.847 39.528C177.113 39.528 177.706 39.8006 178.474 40.1598C178.249 41.901 176.714 43.1345 175.05 43.1345ZM191.361 33.2419L188.058 41.3933H187.959L184.545 33.2419H181.446L186.577 44.6332L183.649 50.9719H186.652L194.558 33.2419H191.361ZM165.459 45.2725H168.34V26.4688H165.459V45.2725Z" fill="white"/>
<path d="M16.7826 11.4822C16.33 11.9448 16.0681 12.6649 16.0681 13.5976V46.8651C16.0681 47.7977 16.33 48.5179 16.7826 48.9805L16.8943 49.082L35.9879 30.4476V30.0076L16.8943 11.3731L16.7826 11.4822Z" fill="url(#paint0_linear_889_4810)"/>
<path d="M42.3439 36.6641L35.9864 30.4494V30.0094L42.3516 23.7948L42.4941 23.8757L50.0322 28.0633C52.1834 29.2517 52.1834 31.2072 50.0322 32.4031L42.4941 36.5832L42.3439 36.6641Z" fill="url(#paint1_linear_889_4810)"/>
<path d="M42.4945 36.5828L35.9868 30.229L16.7814 48.9819C17.496 49.7153 18.6611 49.8037 19.9862 49.0703L42.4945 36.5828Z" fill="url(#paint2_linear_889_4810)"/>
<path d="M42.4945 23.8748L19.9862 11.3872C18.6611 10.6614 17.496 10.7498 16.7814 11.4831L35.9868 30.2285L42.4945 23.8748Z" fill="url(#paint3_linear_889_4810)"/>
<defs>
<linearGradient id="paint0_linear_889_4810" x1="34.2926" y1="47.2115" x2="9.05421" y2="21.3616" gradientUnits="userSpaceOnUse">
<stop stop-color="#00A0FF"/>
<stop offset="0.0066" stop-color="#00A1FF"/>
<stop offset="0.2601" stop-color="#00BEFF"/>
<stop offset="0.5122" stop-color="#00D2FF"/>
<stop offset="0.7604" stop-color="#00DFFF"/>
<stop offset="1" stop-color="#00E3FF"/>
</linearGradient>
<linearGradient id="paint1_linear_889_4810" x1="52.8335" y1="30.2273" x2="15.5523" y2="30.2273" gradientUnits="userSpaceOnUse">
<stop stop-color="#FFE000"/>
<stop offset="0.4087" stop-color="#FFBD00"/>
<stop offset="0.7754" stop-color="#FFA500"/>
<stop offset="1" stop-color="#FF9C00"/>
</linearGradient>
<linearGradient id="paint2_linear_889_4810" x1="38.9558" y1="26.775" x2="4.7304" y2="-8.27957" gradientUnits="userSpaceOnUse">
<stop stop-color="#FF3A44"/>
<stop offset="1" stop-color="#C31162"/>
</linearGradient>
<linearGradient id="paint3_linear_889_4810" x1="11.9471" y1="60.0494" x2="27.2302" y2="44.396" gradientUnits="userSpaceOnUse">
<stop stop-color="#32A071"/>
<stop offset="0.0685" stop-color="#2DA771"/>
<stop offset="0.4762" stop-color="#15CF74"/>
<stop offset="0.8009" stop-color="#06E775"/>
<stop offset="1" stop-color="#00F076"/>
</linearGradient>
</defs>
</svg>
