<svg width="24" height="24" viewBox="0 0 24 24" fill="none" xmlns="http://www.w3.org/2000/svg">
<path d="M11.38 2C10.6431 2.68662 10.0521 3.51462 9.64219 4.43462C9.23227 5.35461 9.01185 6.34775 8.99408 7.35477C8.97632 8.3618 9.16156 9.36209 9.53877 10.296C9.91598 11.2299 10.4774 12.0782 11.1896 12.7904C11.9018 13.5026 12.7501 14.064 13.684 14.4412C14.6179 14.8184 15.6182 15.0037 16.6252 14.9859C17.6323 14.9681 18.6254 14.7477 19.5454 14.3378C20.4654 13.9279 21.2934 13.3369 21.98 12.6C21.662 17.835 17.316 21.981 12.001 21.981C6.477 21.981 2 17.504 2 11.981C2 6.666 6.146 2.32 11.38 2Z" fill="#008D26"/>
</svg>
