<svg width="30" height="55" viewBox="0 0 30 55" fill="none" xmlns="http://www.w3.org/2000/svg">
<path d="M30 27.4886C29.991 28.1544 29.7334 28.7928 29.2778 29.2785L4.15708 54.3992C3.669 54.7998 3.04937 55.0045 2.4187 54.9735C1.78804 54.9425 1.19145 54.6781 0.744968 54.2316C0.298486 53.7851 0.0340383 53.1885 0.00306433 52.5579C-0.0279097 51.9272 0.176805 51.3076 0.577387 50.8195L23.9396 27.4886L0.577387 4.15778C0.176805 3.6697 -0.0279097 3.05006 0.00306433 2.4194C0.0340383 1.78874 0.298486 1.19214 0.744968 0.745663C1.19145 0.299181 1.78804 0.0347315 2.4187 0.00375748C3.04937 -0.0272165 3.669 0.177501 4.15708 0.578083L29.2778 25.6988C29.7334 26.1844 29.991 26.8228 30 27.4886V27.4886Z" fill="#3EDA2B"/>
</svg>
