<svg width="26" height="30" viewBox="0 0 26 30" fill="none" xmlns="http://www.w3.org/2000/svg">
<path d="M3.00196 30C2.17696 30 1.47046 29.706 0.882455 29.118C0.294455 28.53 0.000955672 27.824 0.00195567 27V6H3.00196V27H19.502V30H3.00196ZM9.00196 24C8.17696 24 7.47046 23.706 6.88246 23.118C6.29446 22.53 6.00096 21.824 6.00196 21V3C6.00196 2.175 6.29596 1.4685 6.88396 0.880502C7.47196 0.292502 8.17796 -0.000997453 9.00196 2.54669e-06H22.502C23.327 2.54669e-06 24.0335 0.294003 24.6215 0.882003C25.2095 1.47 25.503 2.176 25.502 3V21C25.502 21.825 25.208 22.5315 24.62 23.1195C24.032 23.7075 23.326 24.001 22.502 24H9.00196ZM9.00196 21H22.502V3H9.00196V21Z" fill="white"/>
</svg>
