<svg width="226" height="226" viewBox="0 0 226 226" fill="none" xmlns="http://www.w3.org/2000/svg">
<path d="M0 0H226V226H0V0Z" fill="#CEE7D2"/>
<path fill-rule="evenodd" clip-rule="evenodd" d="M76.3198 103.384L57.8504 92.1979V32.9024H69.233C97.8638 50.2207 124.554 66.3742 153.185 83.6926C163.891 90.1759 166.508 102.505 166.508 107.384V122.923C162.801 115.186 155.714 108.285 147.559 103.362L76.3198 60.2645V79.5388L115.701 103.362H76.3198V103.384ZM148.017 122.944L166.486 134.131V193.427H155.104C126.473 176.108 99.7827 159.955 71.1519 142.636C60.4453 136.153 57.8286 123.824 57.8286 118.945V103.406C61.5356 111.143 68.6224 118.043 76.7777 122.966L148.017 166.064V146.79L108.636 122.966H148.017V122.944Z" fill="#F7EEC3"/>
</svg>
