<svg width="226" height="227" viewBox="0 0 226 227" fill="none" xmlns="http://www.w3.org/2000/svg">
<path d="M0 0H226V226.003H0V0Z" fill="#2E2E2E"/>
<path fill-rule="evenodd" clip-rule="evenodd" d="M77.4912 103.483L59.0218 92.2963V33H70.4044C99.0352 50.3186 125.725 66.4723 154.356 83.7909C165.063 90.2744 167.679 102.604 167.679 107.483V123.021C163.972 115.285 156.886 108.384 148.73 103.461L77.4912 60.3625V79.6371L116.872 103.461H77.4912V103.483ZM149.188 123.043L167.658 134.23V193.526H156.275C127.644 176.208 100.954 160.054 72.3233 142.736C61.6167 136.252 59 123.923 59 119.043V103.505C62.707 111.241 69.7938 118.142 77.9491 123.065L149.188 166.164V146.889L109.807 123.065H149.188V123.043Z" fill="#191C1A"/>
</svg>
