<svg width="615" height="356" viewBox="0 0 615 356" fill="none" xmlns="http://www.w3.org/2000/svg">
<path d="M123.352 64.3328H125.301V57.7559H123.352V64.3328Z" fill="#39A1FF"/>
<path d="M127.775 60.4356H129.725V53.8604H127.775V60.4356Z" fill="#39A1FF"/>
<path d="M150.224 304.643C150.271 304.839 150.384 304.998 150.556 305.107C152.897 306.592 169.45 317.929 157.244 334.37C149.077 345.371 150.598 350.764 152.906 353.266C153.449 353.855 152.904 354.786 152.131 354.578C146.474 353.054 137.128 348.048 142.297 331.695C148.912 310.768 133.059 318.389 133.65 327.66C133.697 328.416 132.796 328.827 132.285 328.273C128.807 324.514 122.765 315.35 133.633 304.942C146.603 292.52 149.762 302.716 150.224 304.643H150.224Z" fill="white"/>
<path d="M134.374 305.714C124.897 314.793 128.904 322.737 132.568 326.983C132.641 322.88 135.444 319.293 138.218 317.904C140.118 316.956 141.937 317.033 143.217 318.125C144.831 319.501 146.16 323.03 143.318 332.015C141.338 338.279 141.379 343.356 143.433 347.11C145.36 350.633 148.756 352.407 151.545 353.293C149.236 350.14 148.549 344.291 156.386 333.731C159.871 329.038 161.214 324.368 160.375 319.848C158.924 312.034 151.466 306.951 149.985 306.011C149.58 305.759 149.296 305.358 149.184 304.894H149.182C148.96 303.959 148.035 300.862 145.501 300.115C145.12 300.005 144.714 299.948 144.283 299.948C141.734 299.948 138.344 301.915 134.374 305.714L134.374 305.714ZM151.855 355.615C148.534 354.718 144.052 352.698 141.556 348.139C139.208 343.854 139.117 338.211 141.278 331.373C144.071 322.54 142.404 320.244 141.828 319.751C141.013 319.062 139.814 319.501 139.174 319.815C136.816 320.997 134.504 324.229 134.718 327.596C134.772 328.402 134.327 329.132 133.586 329.446C132.857 329.757 132.041 329.586 131.499 328.999C128.035 325.252 121.239 315.334 132.895 304.171C138.192 299.098 142.639 297.04 146.102 298.063C149.628 299.101 150.894 302.932 151.235 304.271C153.064 305.448 160.899 310.942 162.479 319.457C163.429 324.584 161.959 329.817 158.105 335.007C152.187 342.979 150.62 349.207 153.696 352.542C154.267 353.163 154.36 354.064 153.923 354.787C153.58 355.352 152.983 355.679 152.345 355.679L151.855 355.615L151.855 355.615Z" fill="#353535"/>
<path d="M133.424 314.976C135.2 311.143 134.736 309.028 133.895 307.879C133.21 306.948 133.394 305.658 134.342 304.994C137.837 302.561 143.222 298.867 144.515 298.88C142.126 309.846 150.124 310.89 151.436 317.784C152.842 325.164 142.237 333.513 141.936 333.669C142.103 333.018 142.258 332.378 142.477 331.689C147.811 314.815 138.541 316.506 135.059 322.653C134.134 320.62 131.682 318.739 133.424 314.976Z" fill="#353535"/>
<path d="M134.951 305.874C134.686 306.06 134.594 306.307 134.566 306.482C134.521 306.748 134.589 307.019 134.757 307.246C136.15 309.146 136.03 311.901 134.397 315.424C133.306 317.774 134.146 319.107 135.129 320.642C137.255 317.964 140.313 316.596 142.491 317.556C144.236 318.313 146.643 321.016 143.94 330.532C146.949 327.606 151.232 322.433 150.384 317.983C149.935 315.618 148.572 313.979 147.127 312.241C144.893 309.551 142.386 306.538 143.14 300.541C141.787 301.275 139.335 302.82 134.952 305.874H134.951ZM140.999 333.003C141.136 332.473 141.275 331.934 141.456 331.371C143.902 323.627 143.084 320.145 141.637 319.518C140.287 318.923 137.584 320.368 135.987 323.18L134.953 325.01L134.085 323.094C133.89 322.669 133.618 322.251 133.339 321.819C132.297 320.186 130.868 317.949 132.454 314.525C133.719 311.798 133.915 309.718 133.029 308.513C132.518 307.818 132.314 306.97 132.454 306.131C132.59 305.311 133.042 304.595 133.729 304.117C141.282 298.854 143.413 297.808 144.507 297.808H144.522L145.838 297.82L145.558 299.105C144.195 305.367 146.418 308.04 148.773 310.874C150.326 312.742 151.934 314.675 152.488 317.581C154.072 325.911 142.543 334.558 142.421 334.621L140.295 335.704L140.999 333.003H140.999Z" fill="#353535"/>
<path d="M198.604 81.6606L198.597 81.6478C198.597 81.6478 222.758 72.2759 232.261 89.7785C241.761 107.281 220.703 122.423 220.703 122.423L220.697 122.41C217.602 125.03 212.911 125.064 207.717 121.878C198.736 116.367 191.686 103.36 191.967 92.8282C192.131 86.7371 194.719 82.8271 198.604 81.6605V81.6606Z" fill="#3EDA2B"/>
<path d="M221.012 120.826C224.884 117.667 239.133 104.682 231.319 90.2873C223.559 75.9885 205.065 80.6945 200.179 82.2379L200.213 82.2932L198.912 82.6851C195.323 83.7619 193.182 87.4688 193.037 92.8554C192.765 103.032 199.601 115.642 208.278 120.965C212.868 123.781 217.144 124.012 220.006 121.592L220.986 120.783L221.012 120.826L221.012 120.826ZM207.158 122.789C197.902 117.106 190.608 103.655 190.897 92.7977C191.053 87.0385 193.273 82.8604 197.046 81.1101L197.041 81.1035L197.166 81.0519C197.448 80.9281 197.737 80.8146 198.032 80.7158L198.21 80.6497C198.46 80.5532 223.362 71.1473 233.2 89.2663C243.039 107.385 221.547 123.135 221.328 123.292L221.202 123.379C219.52 124.734 217.506 125.408 215.295 125.408C212.779 125.408 210.001 124.533 207.158 122.789V122.789Z" fill="#353535"/>
<path d="M121.575 293.099H121.562C121.562 293.099 124.672 268.703 143.57 268.694C162.47 268.683 165.58 293.099 165.58 293.099H165.567C166.351 296.868 164.257 300.797 159.249 303.687C150.59 308.686 136.55 308.686 127.89 303.687C122.885 300.797 120.792 296.868 121.575 293.099H121.575Z" fill="#3EDA2B"/>
<g filter="url(#filter0_d_702_2595)">
<path d="M259.826 120.192C213.44 126.188 9.90492 133.041 30.3391 208.751" stroke="#3EDA2B" stroke-width="3" stroke-miterlimit="22.9256"/>
</g>
<path d="M143.583 269.762H143.57C128.203 269.769 123.76 287.231 122.831 292.029H122.893L122.624 293.318C121.904 296.774 124.019 300.213 128.428 302.76C136.781 307.578 150.367 307.576 158.714 302.76C163.123 300.213 165.237 296.774 164.518 293.318L164.264 292.029H164.313C163.388 287.231 158.967 269.762 143.583 269.762H143.583ZM127.358 304.612C122.611 301.872 120.122 298.123 120.355 294.17H120.349L120.368 294.005C120.389 293.722 120.426 293.442 120.475 293.16L120.501 292.962C120.535 292.712 123.957 267.633 143.57 267.622H143.583C163.185 267.622 166.61 292.712 166.641 292.962L166.659 293.108C167.448 297.446 164.955 301.628 159.784 304.612C155.313 307.195 149.443 308.485 143.57 308.485C137.699 308.485 131.829 307.195 127.358 304.612H127.358Z" fill="#353535"/>
<path d="M153.717 232.28V269.76C153.753 271.285 152.767 272.82 150.749 273.986C146.785 276.272 140.36 276.272 136.397 273.986C134.415 272.841 133.424 271.343 133.424 269.843V232.175L153.717 232.28V232.28Z" fill="#353535"/>
<path d="M134.496 233.249V269.845C134.496 271.01 135.36 272.154 136.934 273.059C140.595 275.174 146.55 275.17 150.214 273.059C151.812 272.137 152.677 270.973 152.647 269.76V233.342L134.496 233.249ZM135.863 274.911C133.602 273.608 132.355 271.81 132.355 269.845V231.099L154.787 231.216V269.732C154.836 271.737 153.591 273.577 151.284 274.911C149.12 276.161 146.349 276.784 143.573 276.784C140.799 276.784 138.023 276.161 135.863 274.911V274.911Z" fill="#353535"/>
<path d="M195.784 208.028H195.816C195.816 208.028 188.333 265.927 143.473 265.869C98.6114 265.816 91.3324 207.841 91.3324 207.841H91.3664C89.5197 198.895 94.5041 189.581 106.402 182.737C126.978 170.908 160.303 170.966 180.837 182.869C192.71 189.754 197.663 199.088 195.784 208.027V208.028Z" fill="white"/>
<path d="M194.483 209.015L194.736 207.808C196.598 198.945 191.335 190.196 180.298 183.797C160.09 172.079 127.178 172.025 106.933 183.668C95.8746 190.026 90.582 198.759 92.4123 207.628L92.6453 208.914H92.5792C93.9509 217.152 103.614 264.75 143.473 264.799H143.536C183.436 264.799 193.221 217.032 194.578 209.021L194.483 209.015V209.015ZM143.469 266.94C98.1909 266.886 90.3448 208.565 90.272 207.977L90.2416 207.677C88.4355 197.98 94.1116 188.571 105.868 181.813C126.703 169.83 160.572 169.889 181.372 181.945C193.041 188.708 198.684 198.07 196.938 207.703L196.878 208.165C196.801 208.754 188.76 266.944 143.536 266.94H143.469V266.94Z" fill="#353535"/>
<path d="M106.363 182.804C85.8086 194.672 85.8086 213.91 106.363 225.778C126.917 237.645 160.245 237.645 180.798 225.778C201.352 213.91 201.352 194.672 180.798 182.804C160.243 170.937 126.918 170.937 106.363 182.804V182.804Z" fill="#353535"/>
<path d="M106.898 183.729C97.3033 189.268 92.0173 196.57 92.0173 204.292C92.0173 212.008 97.3033 219.31 106.898 224.851C127.13 236.53 160.04 236.53 180.265 224.851C189.86 219.31 195.144 212.008 195.144 204.292C195.144 196.57 189.86 189.268 180.263 183.729C170.15 177.891 156.866 174.971 143.582 174.971C130.297 174.971 117.013 177.891 106.898 183.729V183.729ZM105.828 226.703C95.5445 220.766 89.877 212.804 89.877 204.292C89.877 195.776 95.5445 187.812 105.828 181.876C126.646 169.854 160.517 169.856 181.333 181.876C191.619 187.813 197.284 195.776 197.284 204.292C197.284 212.804 191.621 220.766 181.335 226.703C170.925 232.714 157.256 235.717 143.582 235.717C129.91 235.717 116.238 232.713 105.828 226.703H105.828Z" fill="#353535"/>
<path d="M57.6876 174.351C57.6858 172.206 57.9467 170.064 58.4241 167.936C60.5238 152.505 68.0381 111.541 91.9848 71.4639L143.581 75.8083L195.177 71.4639C219.125 111.541 226.636 152.506 228.738 167.936C232.049 182.672 223.923 198.098 204.316 209.418C170.775 228.783 116.388 228.783 82.8457 209.416C66.073 199.733 57.6875 187.042 57.6875 174.351H57.6876Z" fill="white"/>
<path d="M143.491 76.873L92.562 72.5838C69.0496 112.202 61.5996 152.53 59.4702 168.171C58.997 170.281 58.7555 172.361 58.7555 174.349C58.7555 187.197 67.5001 199.321 83.3787 208.494C116.575 227.653 170.588 227.653 203.783 208.494C222.33 197.784 231.045 183.086 227.677 168.08C225.56 152.527 218.107 112.193 194.599 72.584L143.491 76.8732V76.873ZM82.3085 210.343C65.7408 200.779 56.6152 187.993 56.6152 174.349C56.6152 172.2 56.8719 169.964 57.3663 167.794C59.5085 152.037 67.081 111.052 91.0666 70.9143L91.4088 70.3428L143.491 74.7412L195.753 70.3428L196.096 70.9143C220.076 111.046 227.653 152.035 229.78 167.703C233.352 183.597 224.265 199.137 204.853 210.343C187.961 220.096 165.771 224.974 143.581 224.974C121.391 224.974 99.2033 220.096 82.3085 210.343Z" fill="#353535"/>
<path d="M106.363 55.9756C85.8086 67.8434 85.8086 87.0817 106.363 98.9495C126.917 110.817 160.245 110.817 180.798 98.9495C201.352 87.0842 201.352 67.8434 180.798 55.9756C160.243 44.1084 126.918 44.1084 106.363 55.9756V55.9756Z" fill="#3EDA2B"/>
<path d="M106.898 56.9027C97.3033 62.4417 92.0173 69.7443 92.0173 77.4618C92.0173 85.1811 97.3033 92.4836 106.898 98.0226C127.13 109.7 160.04 109.7 180.265 98.0226C189.86 92.4836 195.144 85.1811 195.144 77.4636C195.144 69.7443 189.86 62.4417 180.263 56.9027C170.15 51.0622 156.866 48.1447 143.582 48.1447C130.297 48.1447 117.013 51.0622 106.898 56.9027V56.9027ZM105.828 99.8784C95.5445 93.939 89.877 85.9776 89.877 77.4618C89.877 68.9458 95.5445 60.9881 105.828 55.0494C126.646 43.0317 160.517 43.0317 181.333 55.0494C191.619 60.9881 197.284 68.9459 197.284 77.4636C197.284 85.9777 191.621 93.939 181.335 99.8785C170.925 105.888 157.256 108.891 143.582 108.891C129.91 108.891 116.238 105.886 105.828 99.8785L105.828 99.8784Z" fill="#353535"/>
<path d="M91.3726 65.6138H91.3386C91.3386 65.6138 98.72 7.70178 143.581 7.67872C188.442 7.65509 195.822 65.6138 195.822 65.6138H195.792C197.651 74.558 192.684 83.8833 180.797 90.7447C160.245 102.612 126.917 102.612 106.363 90.7447C94.4783 83.8833 89.5108 74.558 91.3726 65.6138V65.6138Z" fill="white"/>
<path d="M143.611 8.74906H143.581C103.749 8.77087 93.9791 56.3052 92.5898 64.5469H92.6863L92.4188 65.8331C90.5739 74.6978 95.852 83.4406 106.898 89.8168C127.129 101.496 160.039 101.496 180.264 89.8168C191.31 83.4407 196.588 74.6979 194.743 65.8331L194.507 64.5469H194.573C193.185 56.3052 183.423 8.74906 143.611 8.74906H143.611ZM105.827 91.6744C94.1373 84.9221 88.4808 75.5605 90.2231 65.9144L90.2783 65.48C90.3535 64.8914 98.3022 6.63483 143.581 6.60938H143.61C188.861 6.60938 196.81 64.8915 196.885 65.48L196.915 65.7864C198.732 75.4769 193.075 84.8943 181.334 91.6744C170.924 97.6817 157.252 100.685 143.581 100.685C129.909 100.685 116.237 97.6818 105.827 91.6744H105.827Z" fill="#353535"/>
<path d="M73.5901 144.235L73.5877 144.25C73.5877 144.25 45.7843 138.193 47.6893 116.41C49.5919 94.6244 78.0504 93.5161 78.0504 93.5161L78.048 93.5331C82.4694 93.0108 86.7865 95.8209 89.6118 101.884C94.4956 112.373 93.0723 128.553 86.4334 138.028C82.592 143.505 77.8532 145.521 73.5901 144.235Z" fill="#3EDA2B"/>
<path d="M78.1761 94.5941L76.9797 94.7179V94.6712C71.809 95.1656 50.3424 98.3179 48.7523 116.501C47.1877 134.432 67.1667 141.343 72.5194 142.864V142.791L73.8977 143.209C77.889 144.405 82.1334 142.299 85.5574 137.413C91.9912 128.234 93.3732 112.497 88.6417 102.337C86.3084 97.329 82.8673 94.5382 79.0896 94.5382C78.7881 94.5382 78.4817 94.5576 78.1759 94.594L78.1761 94.5941ZM74.6598 145.572V145.578L74.5633 145.555C74.2272 145.501 73.8935 145.428 73.5574 145.338L73.3602 145.293C73.0757 145.232 44.6602 138.777 46.6204 116.315C48.583 93.8509 77.7137 92.458 78.0068 92.447L78.1735 92.4428C83.1756 91.9568 87.6953 95.236 90.5807 101.432C95.6016 112.21 94.1353 128.903 87.3083 138.642C84.0917 143.228 80.1428 145.687 76.1509 145.687C75.6546 145.687 75.1559 145.647 74.6596 145.572H74.6598Z" fill="#353535"/>
<path d="M169.981 47.2769C179.006 42.0679 182.503 34.6774 180.406 27.8056C180.301 27.4585 180.746 27.2232 180.958 27.5169C186.901 35.7198 190.602 44.9977 192.813 52.3475C194.743 60.81 189.883 69.8435 178.623 76.3458C169.225 81.7731 156.984 84.5231 144.673 84.6366C139.844 84.6839 135.382 82.071 133.039 77.8546L132.925 77.6472C129.633 71.7272 129.875 64.5145 133.533 58.8602C135.639 55.609 139.232 53.5457 143.108 53.5761C152.819 53.6507 162.569 51.5576 169.981 47.277L169.981 47.2769Z" fill="#3EDA2B"/>
<path d="M170.518 48.2071C163.307 52.3676 153.777 54.6487 143.626 54.6487C143.427 54.6487 143.247 54.6487 143.027 54.6469C139.637 54.6469 136.349 56.4785 134.434 59.445C130.979 64.7765 130.761 71.55 133.858 77.1272L133.976 77.3354C136.135 81.2218 140.122 83.5993 144.662 83.5671C157.321 83.4518 169.191 80.5562 178.088 75.4194C188.541 69.3884 193.656 60.8489 191.785 52.6539C190.047 46.8669 187 38.6955 182.06 31.0253C182.396 37.4863 178.28 43.723 170.518 48.2069L170.518 48.2071ZM132.105 78.3753L131.988 78.1653C128.505 71.8972 128.752 64.2797 132.636 58.2809C134.979 54.6597 138.855 52.5065 143.022 52.5065C143.226 52.5023 143.425 52.5084 143.626 52.5084C153.407 52.5084 162.56 50.3297 169.447 46.353C177.698 41.5869 181.413 34.7703 179.382 28.1163C179.183 27.4593 179.483 26.764 180.098 26.4601C180.703 26.158 181.429 26.3424 181.824 26.8878C188.117 35.5729 191.83 45.3604 193.855 52.1085C195.96 61.3392 190.467 70.7456 179.158 77.2729C169.948 82.5893 157.704 85.588 144.683 85.7076H144.548C139.382 85.7076 134.624 82.9083 132.105 78.3753V78.3753Z" fill="#353535"/>
<path d="M143.998 79.6843C156.308 79.569 163.704 78.5244 173.806 73.1352C185.278 67.0163 191.125 59.7525 187.996 49.137C186.464 44.0408 184.193 38.0226 180.976 32.0754C181.017 30.6455 180.835 29.2137 180.405 27.8056C180.3 27.4585 180.745 27.2232 180.957 27.5169C186.9 35.7198 190.601 44.9977 192.812 52.3475C194.742 60.81 189.882 69.8435 178.622 76.3458C169.224 81.7731 156.983 84.6366 144.672 84.6366C139.814 84.6366 136.186 81.1439 133.705 78.5541C133.538 78.3769 133.723 78.1179 133.951 78.1949C138.009 79.6031 142.433 79.6995 143.998 79.6843H143.998Z" fill="#353535"/>
<path d="M182.054 31.8146C184.816 36.9726 187.224 42.8501 189.022 48.8337C192.049 59.0895 187.372 67.1134 174.31 74.0799C163.941 79.6122 156.276 80.6393 144.009 80.7552C142.736 80.7704 139.893 80.7061 136.818 80.0745C139.093 82.0626 141.64 83.5672 144.673 83.5672C157.12 83.5672 168.988 80.674 178.088 75.4195C188.538 69.3843 193.654 60.8491 191.785 52.654C190.045 46.8566 186.989 38.6701 182.037 30.9909C182.049 31.2651 182.055 31.5412 182.054 31.8147V31.8146ZM132.931 79.2955C132.518 78.8611 132.454 78.2101 132.773 77.7096C133.1 77.2023 133.725 76.9839 134.303 77.1855C138.153 78.5207 142.354 78.6451 143.988 78.6148C155.902 78.5038 163.327 77.5149 173.302 72.192C185.48 65.6969 189.694 58.6789 186.969 49.444C185.187 43.5071 182.788 37.677 180.035 32.5851L179.9 32.3303L179.907 32.044C179.945 30.7038 179.77 29.3837 179.382 28.1163C179.183 27.4593 179.483 26.764 180.097 26.4601C180.703 26.158 181.428 26.3424 181.824 26.8878C188.115 35.5729 191.828 45.3581 193.854 52.1085C195.96 61.3367 190.467 70.7432 179.158 77.2729C169.737 82.7136 157.49 85.7076 144.672 85.7076C139.756 85.7076 136.124 82.6257 132.931 79.2956L132.931 79.2955Z" fill="#353535"/>
<path d="M177.358 53.5762C177.654 57.3 179.346 60.2042 181.14 60.0628C182.935 59.922 184.151 56.7885 183.856 53.0624C183.561 49.3361 181.867 46.432 180.074 46.5733C178.278 46.7165 177.065 49.8518 177.358 53.5762V53.5762Z" fill="white"/>
<path d="M180.157 47.6399C179.291 47.7102 178.154 50.0776 178.426 53.4913C178.554 55.1136 178.987 56.6563 179.612 57.7333C180.087 58.5444 180.663 59.0169 181.056 58.9982C181.925 58.9297 183.06 56.5582 182.788 53.1486C182.523 49.7864 181.072 47.64 180.198 47.64H180.157L180.157 47.6399ZM177.763 58.8094C176.969 57.4461 176.446 55.6208 176.292 53.66C175.939 49.2088 177.529 45.7029 179.99 45.5056C182.432 45.3218 184.571 48.5238 184.921 52.9774C185.275 57.431 183.684 60.9345 181.226 61.1318L181.007 61.1402C179.79 61.1402 178.642 60.3206 177.763 58.8094V58.8094Z" fill="#353535"/>
<path d="M144.264 66.46C144.294 70.7256 147.746 74.1581 151.975 74.1284C156.204 74.1005 159.607 70.6181 159.579 66.3575C159.549 62.0919 156.097 58.6587 151.868 58.6867C147.639 58.7164 144.236 62.1969 144.264 66.46V66.46Z" fill="white"/>
<path d="M151.876 59.7576C148.245 59.783 145.31 62.7879 145.334 66.4541L144.264 66.4625L145.334 66.4541C145.347 68.2304 146.044 69.9 147.298 71.1479C148.551 72.3934 150.115 73.0801 151.969 73.0589C155.598 73.0352 158.533 70.0303 158.509 66.3624C158.496 64.5836 157.799 62.9182 156.544 61.671C155.303 60.4358 153.664 59.7576 151.924 59.7576H151.876H151.876ZM145.79 72.6652C144.133 71.0151 143.211 68.8171 143.194 66.4692C143.161 61.6237 147.048 57.6518 151.862 57.6172C154.254 57.6214 156.392 58.5012 158.053 60.1537C159.71 61.8015 160.632 64.0019 160.649 66.3497C160.682 71.1947 156.795 75.1672 151.981 75.1992H151.921C149.61 75.1992 147.435 74.3002 145.789 72.6651L145.79 72.6652Z" fill="#353535"/>
<path d="M131.129 159.928L136.369 143.759C137.002 141.801 138.854 140.533 140.91 140.564C168.299 140.994 187.719 130.918 195.124 126.324C197.082 125.109 199.629 125.481 201.136 127.228L207.529 134.64C211.634 139.395 214.669 145.007 216.255 151.085C225.167 185.252 217.294 199.606 217.166 199.837C213.665 203.167 209.431 206.313 204.447 209.192C184.697 220.595 157.722 225.276 132.029 223.251C125.845 206.076 126.858 185.277 128.084 174.007C128.606 169.221 129.646 164.509 131.129 159.928Z" fill="#3EDA2B" stroke="#353535" stroke-width="0.287981" stroke-miterlimit="10"/>
<path d="M215.217 151.356C213.711 145.574 210.77 140.033 206.719 135.337L200.324 127.925C199.162 126.579 197.212 126.286 195.686 127.232C188.477 131.707 168.807 142.038 140.89 141.634L140.83 141.632C139.242 141.632 137.861 142.612 137.386 144.089L132.147 160.258C130.659 164.853 129.649 169.519 129.146 174.125C127.976 184.871 126.919 205.292 132.804 222.235C159.236 224.195 185.111 219.114 203.911 208.265C208.647 205.532 212.814 202.476 216.298 199.185C217.044 197.669 223.505 183.126 215.217 151.357L215.217 151.356ZM131.946 224.315L131.255 224.261L131.022 223.61C124.729 206.14 125.812 184.96 127.019 173.893C127.537 169.142 128.577 164.335 130.112 159.599L135.349 143.429C136.126 141.034 138.41 139.485 140.924 139.493C168.276 139.904 187.51 129.787 194.558 125.415C196.983 123.908 200.089 124.377 201.944 126.528L208.339 133.942C212.605 138.883 215.699 144.717 217.289 150.815C226.235 185.112 218.439 199.749 218.103 200.354L217.904 200.612C214.272 204.068 209.925 207.263 204.981 210.116C188.512 219.625 166.753 224.787 143.921 224.787C139.955 224.787 135.955 224.635 131.946 224.315V224.315Z" fill="#353535"/>
<path d="M209.008 193.493C209.008 195.381 210.076 196.909 211.392 196.909C212.708 196.909 213.776 195.381 213.776 193.493C213.776 191.607 212.708 190.077 211.392 190.077C210.076 190.077 209.008 191.607 209.008 193.493Z" fill="white"/>
<path d="M210.078 193.495C210.078 194.839 210.771 195.839 211.392 195.839C212.013 195.839 212.708 194.839 212.708 193.495C212.708 192.149 212.013 191.147 211.392 191.147C210.771 191.147 210.078 192.149 210.078 193.495ZM207.938 193.495C207.938 190.978 209.455 189.007 211.392 189.007C213.328 189.007 214.848 190.978 214.848 193.495C214.848 196.01 213.328 197.978 211.392 197.978C209.455 197.978 207.938 196.01 207.938 193.495Z" fill="#353535"/>
<path d="M196.111 137.355C196.995 139.022 198.639 139.88 199.783 139.275C200.926 138.667 201.138 136.822 200.252 135.155C199.366 133.489 197.723 132.629 196.58 133.237C195.435 133.845 195.225 135.687 196.111 137.355V137.355Z" fill="white"/>
<path d="M197.082 134.184C196.549 134.466 196.425 135.667 197.054 136.853C197.378 137.46 197.848 137.959 198.345 138.218C198.518 138.313 198.959 138.501 199.28 138.328C199.605 138.154 199.693 137.688 199.715 137.493C199.779 136.935 199.631 136.267 199.306 135.657C198.985 135.049 198.514 134.552 198.018 134.293C197.896 134.227 197.638 134.114 197.384 134.114L197.082 134.184V134.184ZM197.354 140.115C196.47 139.654 195.693 138.852 195.164 137.859C193.985 135.637 194.386 133.193 196.076 132.292C196.939 131.836 198.007 131.875 199.008 132.395C199.892 132.857 200.67 133.66 201.195 134.657C201.726 135.648 201.953 136.744 201.842 137.732C201.714 138.857 201.146 139.762 200.284 140.22C199.886 140.431 199.441 140.538 198.979 140.538C198.445 140.538 197.892 140.397 197.354 140.115L197.354 140.115Z" fill="#353535"/>
<path d="M137.158 213.71C137.158 215.597 138.688 217.127 140.576 217.127C142.462 217.127 143.992 215.597 143.992 213.71C143.992 211.822 142.462 210.292 140.576 210.292C138.688 210.292 137.158 211.822 137.158 213.71Z" fill="white" stroke="#353535" stroke-width="0.287981" stroke-miterlimit="10"/>
<path d="M138.228 213.71C138.228 215.005 139.281 216.055 140.576 216.055C141.868 216.055 142.921 215.005 142.921 213.71C142.921 212.417 141.868 211.364 140.576 211.364C139.281 211.364 138.228 212.417 138.228 213.71ZM136.088 213.71C136.088 211.235 138.102 209.224 140.576 209.224C143.05 209.224 145.062 211.235 145.062 213.71C145.062 216.182 143.05 218.196 140.576 218.196C138.102 218.196 136.088 216.182 136.088 213.71Z" fill="#353535"/>
<path d="M141.376 151.831C141.376 153.719 142.906 155.248 144.792 155.248C146.68 155.248 148.21 153.719 148.21 151.831C148.21 149.944 146.68 148.414 144.792 148.414C142.906 148.414 141.376 149.944 141.376 151.831Z" fill="white"/>
<path d="M142.447 151.83C142.447 153.121 143.5 154.176 144.792 154.176C146.088 154.176 147.14 153.121 147.14 151.83C147.14 150.536 146.088 149.483 144.792 149.483C143.5 149.483 142.447 150.536 142.447 151.83ZM140.307 151.83C140.307 149.356 142.318 147.343 144.792 147.343C147.269 147.343 149.281 149.356 149.281 151.83C149.281 154.303 147.269 156.317 144.792 156.317C142.318 156.317 140.307 154.303 140.307 151.83Z" fill="#353535"/>
<path d="M71.4491 144.485C85.6302 137.483 85.5962 117.098 85.5871 116.235L83.4475 116.255C83.4493 116.456 83.4705 136.165 70.501 142.567L71.4492 144.485L71.4491 144.485Z" fill="#353535"/>
<path d="M83.4487 111.689L85.5849 111.531C85.5636 111.223 84.9837 104 81.2744 99.0068L79.5557 100.284C82.89 104.773 83.4445 111.621 83.4487 111.689V111.689Z" fill="#353535"/>
<path d="M230.509 101.924C230.588 101.485 232.326 91.1455 221.088 83.7471L219.91 85.5319C229.98 92.1623 228.422 101.449 228.405 101.541L230.509 101.924H230.509Z" fill="#353535"/>
<path d="M143.033 29.356C156.368 29.356 159.583 20.6902 159.722 20.2923L157.704 19.5752C157.573 19.9392 154.363 28.406 140.083 27.0743L139.887 29.2061C140.993 29.3086 142.042 29.356 143.033 29.356H143.033Z" fill="#353535"/>
<path d="M122.375 216.112L122.638 213.989C122.424 213.962 101.133 211.22 84.4737 201.118L83.3652 202.948C100.425 213.292 122.157 216.084 122.375 216.112V216.112Z" fill="#353535"/>
<path d="M66.7561 186.439L68.0423 184.729C68.0101 184.701 64.5727 182.015 63.0876 175.748L61.0049 176.238C62.6787 183.312 66.5869 186.315 66.7562 186.439L66.7561 186.439Z" fill="#353535"/>
<path d="M145.947 261.248C166.849 260.751 174.451 247.525 174.763 246.964L172.895 245.92C172.824 246.046 165.518 258.639 145.896 259.108L145.947 261.248V261.248Z" fill="#353535"/>
<path d="M144.77 303.582C156 303.582 161.884 296.389 162.149 296.057L160.48 294.72C160.216 295.042 153.96 302.636 141.935 301.282L141.695 303.407C142.761 303.529 143.786 303.582 144.771 303.582H144.77Z" fill="#353535"/>
<path d="M136.74 13.5926C132.969 15.7712 132.969 19.3001 136.74 21.4793C140.513 23.6554 146.628 23.6554 150.399 21.4793C154.173 19.3001 154.173 15.7712 150.399 13.5926C146.628 11.4158 140.513 11.4158 136.74 13.5926V13.5926Z" fill="#3EDA2B"/>
<path d="M137.277 14.5195C135.797 15.3737 134.981 16.4438 134.981 17.5353C134.981 18.6291 135.796 19.6993 137.277 20.5511C140.687 22.5197 146.453 22.5221 149.867 20.5511C151.345 19.6993 152.159 18.6291 152.159 17.5353C152.159 16.4438 151.345 15.3737 149.867 14.5195C148.159 13.5355 145.864 13.041 143.57 13.041C141.278 13.041 138.983 13.5355 137.277 14.5195V14.5195ZM136.207 22.4044C134.037 21.1541 132.841 19.4226 132.841 17.5353C132.841 15.6497 134.037 13.9183 136.207 12.6661C140.336 10.2819 146.806 10.2819 150.937 12.6661C153.104 13.9183 154.299 15.6497 154.299 17.5353C154.299 19.4226 153.104 21.1541 150.937 22.4044C148.871 23.5984 146.222 24.1935 143.572 24.1935C140.922 24.1935 138.273 23.5965 136.207 22.4044Z" fill="#353535"/>
<path d="M504.79 127.654L480.691 150.516L480.661 150.497L492.428 108.627L492.43 108.619L501.303 97.3355L501.32 97.3292L609.365 115.873L609.367 115.908L543.178 138.798L543.167 138.799L504.809 127.65L504.79 127.654Z" fill="#39A1FF"/>
<path d="M493.581 109.206L483.107 146.479L504.382 126.216L505.166 126.436L543.148 137.475L604.365 116.298L501.834 98.7022L493.581 109.206L493.581 109.206ZM479.214 151.132L479.432 150.194L491.213 107.991L491.514 107.737L500.79 95.9409L501.57 96.0896L610.507 114.783L610.759 116.709L609.832 117.085L543.209 140.128L542.809 140.013L505.142 129.068L480.869 152.092L479.214 151.132Z" fill="#353535"/>
<path d="M609.287 115.875L492.438 108.624L492.424 108.614L468.971 71.8965L468.992 71.8678L609.292 115.842L609.287 115.875Z" fill="white"/>
<path d="M471.884 74.1042L493.151 107.404L599.107 113.975L471.884 74.1042V74.1042ZM491.685 109.847L491.331 109.256L467.424 71.8255L468.529 70.3808L469.407 70.6739L610.713 114.959L610.386 117.151L609.21 117.139L491.685 109.848L491.685 109.847Z" fill="#353535"/>
<path d="M489.056 134.093L491.009 127.371L493.442 128.079L491.491 134.8L489.056 134.093Z" fill="#353535"/>
<path d="M491.986 124.011L496.465 108.595L498.896 109.301L494.419 124.719L491.986 124.011Z" fill="#353535"/>
<path d="M501.683 121.82L505.223 109.152L507.661 109.833L504.121 122.504L501.683 121.82Z" fill="#353535"/>
<path d="M559.615 163.245L558.079 161.233L565.308 155.712L566.845 157.725L559.615 163.245Z" fill="#39A1FF"/>
<path d="M569.666 155.571L568.129 153.559L581.222 143.56L582.76 145.574L569.666 155.571Z" fill="#39A1FF"/>
<path d="M518.981 121.957L519.067 120.013L524.818 120.264L524.735 122.21L518.981 121.957Z" fill="#39A1FF"/>
<path d="M480.69 150.558L539.715 149.334L539.724 149.301L504.808 127.656L504.786 127.657L480.678 150.527L480.69 150.558Z" fill="#353535"/>
<path d="M504.96 129.24L483.89 149.228L535.474 148.157L504.96 129.24ZM479.824 151.822L479.18 150.213L479.81 149.605L504.682 126.014L505.555 126.631L541.177 148.713L540.738 150.528L539.795 150.598L479.824 151.822L479.824 151.822Z" fill="#353535"/>
<path d="M609.381 115.925L533.119 173.262L533.093 173.258L504.813 127.672L504.824 127.646L609.37 115.892L609.381 115.925Z" fill="white"/>
<path d="M506.928 128.682L533.451 171.43L604.963 117.662L506.928 128.682L506.928 128.682ZM532.382 174.443L532.052 173.977L503.378 127.761L503.938 126.518L504.614 126.396L610.151 114.531L610.932 116.263L610.169 116.916L610.142 116.937L533.465 174.584L532.382 174.443L532.382 174.443Z" fill="#353535"/>
<path d="M584.225 134.758L578.817 125.474L581.008 124.2L586.411 133.483L584.225 134.758Z" fill="#353535"/>
<path d="M579.744 138.071L577.138 133.895L579.286 132.554L581.89 136.728L579.744 138.071Z" fill="#353535"/>
<path d="M505.157 148.264L511.448 142.309L513.181 144.158L506.889 150.113L505.157 148.264Z" fill="#39A1FF"/>
<path d="M504.422 141.823L508.021 138.439L509.756 140.285L506.156 143.671L504.422 141.823Z" fill="#39A1FF"/>
<path d="M497.494 148.343L502.738 143.408L504.473 145.254L499.231 150.188L497.494 148.343Z" fill="#39A1FF"/>
<g filter="url(#filter1_d_702_2595)">
<path d="M116.877 266.553L117.97 264.717C117.829 264.63 103.605 256.028 97.4026 241.812L95.4424 242.668C101.925 257.53 116.267 266.194 116.877 266.553Z" fill="#3EDA2B"/>
</g>
<g filter="url(#filter2_d_702_2595)">
<path d="M128.38 270.795L128.937 268.73C128.898 268.715 124.924 267.638 120.553 265.581L119.642 267.518C124.192 269.66 128.213 270.747 128.38 270.795Z" fill="#3EDA2B"/>
</g>
<g filter="url(#filter3_d_702_2595)">
<path d="M234.879 172.234L236.996 171.904C236.959 171.673 233.362 148.702 228.925 135.548L226.898 136.231C231.275 149.211 234.845 172.004 234.879 172.234H234.879Z" fill="#3EDA2B"/>
</g>
<path d="M178.902 17.1756L180.422 15.6691C179.908 15.1511 167.615 2.96904 147.315 0.813477L147.09 2.94346C166.636 5.01956 178.783 17.0535 178.902 17.1754V17.1756Z" fill="#3EDA2B"/>
<path d="M27.2274 224.968L27.2252 224.97L27.195 224.939L27.2274 224.968ZM27.2274 224.968L28.897 223.072C28.7855 222.974 28.6749 222.875 28.5653 222.775M27.2274 224.968C18.5555 217.335 15.2087 205.286 18.6994 194.275L20.8696 187.434L23.2774 188.199L21.1078 195.037L21.1106 195.038L21.1078 195.037C17.9815 204.901 20.8602 215.672 28.4413 222.662M28.5653 222.775L28.8836 223.056C28.7805 222.965 28.6783 222.873 28.5769 222.781L28.4413 222.662M28.5653 222.775C28.5238 222.738 28.4825 222.7 28.4413 222.662M28.5653 222.775L23.0947 217.956L28.4413 222.662" fill="#3EDA2B" stroke="#3EDA2B" stroke-width="0.00711239"/>
<path d="M30.3398 208.753C43.7037 258.266 347.156 224.805 462.332 158.911" stroke="#3EDA2B" stroke-width="3" stroke-miterlimit="22.9256"/>
<path d="M321.53 218.344C347.966 212.652 380.559 204.792 423.979 188.521" stroke="#3EDA2B" stroke-width="3" stroke-miterlimit="22.9256"/>
<path d="M438.385 182.754C448.632 178.796 465.653 171.482 479.275 163.689" stroke="#3EDA2B" stroke-width="3" stroke-miterlimit="22.9256"/>
<path d="M34.2109 227.731C36.0837 228.854 37.9566 229.977 40.4712 230.718C42.9859 231.458 46.1431 231.817 49.2995 232.175" stroke="#3EDA2B" stroke-width="3" stroke-miterlimit="22.9256"/>
<defs>
<filter id="filter0_d_702_2595" x="0.402405" y="91.7047" width="286.616" height="144.437" filterUnits="userSpaceOnUse" color-interpolation-filters="sRGB">
<feFlood flood-opacity="0" result="BackgroundImageFix"/>
<feColorMatrix in="SourceAlpha" type="matrix" values="0 0 0 0 0 0 0 0 0 0 0 0 0 0 0 0 0 0 127 0" result="hardAlpha"/>
<feOffset/>
<feGaussianBlur stdDeviation="13.5"/>
<feComposite in2="hardAlpha" operator="out"/>
<feColorMatrix type="matrix" values="0 0 0 0 0.0862745 0 0 0 0 0.780392 0 0 0 0 0.32549 0 0 0 0.84 0"/>
<feBlend mode="normal" in2="BackgroundImageFix" result="effect1_dropShadow_702_2595"/>
<feBlend mode="normal" in="SourceGraphic" in2="effect1_dropShadow_702_2595" result="shape"/>
</filter>
<filter id="filter1_d_702_2595" x="68.4424" y="214.812" width="76.5277" height="78.7408" filterUnits="userSpaceOnUse" color-interpolation-filters="sRGB">
<feFlood flood-opacity="0" result="BackgroundImageFix"/>
<feColorMatrix in="SourceAlpha" type="matrix" values="0 0 0 0 0 0 0 0 0 0 0 0 0 0 0 0 0 0 127 0" result="hardAlpha"/>
<feOffset/>
<feGaussianBlur stdDeviation="13.5"/>
<feComposite in2="hardAlpha" operator="out"/>
<feColorMatrix type="matrix" values="0 0 0 0 0.0862745 0 0 0 0 0.780392 0 0 0 0 0.32549 0 0 0 0.84 0"/>
<feBlend mode="normal" in2="BackgroundImageFix" result="effect1_dropShadow_702_2595"/>
<feBlend mode="normal" in="SourceGraphic" in2="effect1_dropShadow_702_2595" result="shape"/>
</filter>
<filter id="filter2_d_702_2595" x="92.6416" y="238.581" width="63.2955" height="59.2139" filterUnits="userSpaceOnUse" color-interpolation-filters="sRGB">
<feFlood flood-opacity="0" result="BackgroundImageFix"/>
<feColorMatrix in="SourceAlpha" type="matrix" values="0 0 0 0 0 0 0 0 0 0 0 0 0 0 0 0 0 0 127 0" result="hardAlpha"/>
<feOffset/>
<feGaussianBlur stdDeviation="13.5"/>
<feComposite in2="hardAlpha" operator="out"/>
<feColorMatrix type="matrix" values="0 0 0 0 0.0862745 0 0 0 0 0.780392 0 0 0 0 0.32549 0 0 0 0.84 0"/>
<feBlend mode="normal" in2="BackgroundImageFix" result="effect1_dropShadow_702_2595"/>
<feBlend mode="normal" in="SourceGraphic" in2="effect1_dropShadow_702_2595" result="shape"/>
</filter>
<filter id="filter3_d_702_2595" x="199.898" y="108.548" width="64.0975" height="90.6857" filterUnits="userSpaceOnUse" color-interpolation-filters="sRGB">
<feFlood flood-opacity="0" result="BackgroundImageFix"/>
<feColorMatrix in="SourceAlpha" type="matrix" values="0 0 0 0 0 0 0 0 0 0 0 0 0 0 0 0 0 0 127 0" result="hardAlpha"/>
<feOffset/>
<feGaussianBlur stdDeviation="13.5"/>
<feComposite in2="hardAlpha" operator="out"/>
<feColorMatrix type="matrix" values="0 0 0 0 0.0862745 0 0 0 0 0.780392 0 0 0 0 0.32549 0 0 0 0.84 0"/>
<feBlend mode="normal" in2="BackgroundImageFix" result="effect1_dropShadow_702_2595"/>
<feBlend mode="normal" in="SourceGraphic" in2="effect1_dropShadow_702_2595" result="shape"/>
</filter>
</defs>
</svg>
