<svg width="249" height="265" viewBox="0 0 249 265" fill="none" xmlns="http://www.w3.org/2000/svg">
<g filter="url(#filter0_d_492_2830)">
<path d="M96.6718 21.8802C99.5573 20.8237 106.21 20.6591 106.278 20.6578L106.242 19.1758C105.96 19.1816 99.2788 19.3476 96.1623 20.4872L96.6718 21.8802V21.8802Z" fill="#333333"/>
</g>
<g filter="url(#filter1_d_492_2830)">
<path d="M172.818 107.457C140.699 111.608 15.227 110.556 29.376 162.979" stroke="#333333" stroke-width="2.07725" stroke-miterlimit="22.9256"/>
</g>
<path d="M208.329 111.698L202.896 124.522L202.882 124.52L200.39 106.456L200.389 106.453L201.909 100.629L201.915 100.624L246.548 89.6512L246.554 89.6644L224.949 109.55L224.945 109.552L208.335 111.693L208.329 111.698Z" fill="#39A1FF"/>
<path d="M200.93 106.485L203.148 122.565L207.931 111.213L208.269 111.167L224.716 109.047L244.697 90.6517L202.342 101.066L200.93 106.485L200.93 106.485ZM202.432 125.006L202.358 124.609L199.816 106.415L199.889 106.267L201.478 100.179L201.803 100.106L246.804 89.0404L247.223 89.7386L246.93 90.0385L225.184 110.056L225.011 110.079L208.701 112.182L203.229 125.097L202.432 125.006Z" fill="#353535"/>
<path d="M246.518 89.6651L200.393 106.453L200.386 106.452L185.221 96.2688L185.224 96.2542L246.514 89.6514L246.518 89.6651Z" fill="#333333"/>
<path d="M186.71 96.6293L200.463 105.865L242.287 90.6402L186.71 96.6293V96.6293ZM200.309 107.05L200.074 106.882L184.615 96.5005L184.797 95.7601L185.184 95.7258L246.912 89.0742L247.154 89.9716L246.7 90.1637L200.309 107.05L200.309 107.05Z" fill="#353535"/>
<path d="M203.36 116.809L202.984 113.899L204.038 113.764L204.414 116.673L203.36 116.809Z" fill="#353535"/>
<path d="M202.797 112.444L201.936 105.768L202.989 105.632L203.851 112.308L202.797 112.444Z" fill="#353535"/>
<path d="M206.157 109.976L205.395 104.514L206.447 104.368L207.209 109.831L206.157 109.976Z" fill="#353535"/>
<path d="M235.362 116.193L234.435 115.677L236.289 112.344L237.216 112.861L235.362 116.193Z" fill="#39A1FF"/>
<path d="M237.94 111.559L237.012 111.043L240.369 105.007L241.298 105.523L237.94 111.559Z" fill="#39A1FF"/>
<path d="M212.828 107.132L212.536 106.37L214.788 105.503L215.082 106.265L212.828 107.132Z" fill="#39A1FF"/>
<path d="M202.903 124.539L225.383 114.18L225.382 114.166L208.336 111.696L208.328 111.7L202.893 124.529L202.903 124.539Z" fill="#353535"/>
<path d="M208.66 112.279L203.91 123.491L223.556 114.438L208.66 112.279ZM202.782 125.169L202.265 124.659L202.405 124.32L208.012 111.086L208.451 111.177L225.841 113.696L225.977 114.467L225.626 114.652L202.782 125.169L202.782 125.169Z" fill="#353535"/>
<path d="M246.562 89.6685L226.857 124.481L226.846 124.484L208.34 111.701L208.34 111.689L246.552 89.6576L246.562 89.6685Z" fill="#333333"/>
<path d="M209.323 111.736L226.678 123.722L245.155 91.0767L209.323 111.736L209.323 111.736ZM226.772 125.059L226.567 124.935L207.804 111.976L207.811 111.405L208.05 111.245L246.625 89.0043L247.215 89.5392L247.031 89.9181L247.024 89.9305L227.212 124.932L226.772 125.059L226.772 125.059Z" fill="#353535"/>
<path d="M240.049 101.122L236.415 98.4601L237.044 97.6036L240.675 100.266L240.049 101.122Z" fill="#353535"/>
<path d="M238.881 103.144L237.18 101.976L237.781 101.101L239.481 102.269L238.881 103.144Z" fill="#353535"/>
<path d="M211.922 119.559L213.343 116.216L214.318 116.636L212.898 119.979L211.922 119.559Z" fill="#39A1FF"/>
<path d="M210.561 117.205L211.377 115.301L212.353 115.72L211.537 117.624L210.561 117.205Z" fill="#39A1FF"/>
<path d="M208.99 120.872L210.179 118.096L211.155 118.515L209.967 121.29L208.99 120.872Z" fill="#39A1FF"/>
<path d="M93.7794 62.9817H95.1295V58.4277H93.7794V62.9817Z" fill="#39A1FF"/>
<path d="M96.8425 60.2833H98.1926V55.7305H96.8425V60.2833Z" fill="#39A1FF"/>
<path d="M112.386 229.376C112.419 229.512 112.497 229.622 112.616 229.698C114.237 230.726 125.698 238.576 117.247 249.96C111.592 257.577 112.646 261.312 114.243 263.044C114.62 263.452 114.242 264.096 113.707 263.952C109.79 262.897 103.318 259.431 106.897 248.108C111.478 233.617 100.501 238.895 100.91 245.314C100.943 245.837 100.319 246.122 99.9649 245.738C97.5566 243.136 93.3731 236.79 100.899 229.584C109.879 220.982 112.066 228.043 112.386 229.376H112.386Z" fill="#F7EEC3"/>
<path d="M101.411 230.117C94.8495 236.403 97.6237 241.904 100.161 244.844C100.211 242.003 102.152 239.52 104.073 238.558C105.389 237.901 106.648 237.955 107.535 238.71C108.652 239.664 109.573 242.107 107.605 248.328C106.234 252.666 106.262 256.181 107.684 258.78C109.018 261.22 111.37 262.448 113.301 263.062C111.702 260.879 111.226 256.829 116.653 249.517C119.066 246.267 119.996 243.033 119.415 239.903C118.411 234.493 113.246 230.974 112.221 230.323C111.941 230.148 111.744 229.871 111.666 229.549H111.665C111.511 228.902 110.871 226.757 109.116 226.24C108.852 226.164 108.571 226.125 108.273 226.125C106.508 226.125 104.161 227.486 101.412 230.117L101.411 230.117ZM113.516 264.669C111.216 264.048 108.113 262.65 106.385 259.493C104.759 256.526 104.696 252.618 106.192 247.884C108.126 241.768 106.971 240.178 106.573 239.837C106.008 239.359 105.179 239.664 104.735 239.881C103.102 240.7 101.502 242.937 101.65 245.268C101.687 245.827 101.379 246.332 100.866 246.55C100.361 246.765 99.7962 246.646 99.4211 246.24C97.0221 243.645 92.3169 236.778 100.387 229.048C104.055 225.536 107.135 224.111 109.532 224.819C111.973 225.538 112.85 228.191 113.086 229.118C114.353 229.933 119.778 233.737 120.872 239.633C121.53 243.183 120.512 246.807 117.843 250.4C113.746 255.92 112.661 260.233 114.79 262.542C115.186 262.972 115.25 263.595 114.947 264.096C114.71 264.487 114.297 264.714 113.855 264.714L113.516 264.67L113.516 264.669Z" fill="#353535"/>
<path d="M100.754 236.532C101.984 233.878 101.662 232.414 101.08 231.618C100.605 230.973 100.733 230.08 101.389 229.62C103.809 227.935 107.538 225.378 108.433 225.387C106.779 232.98 112.317 233.703 113.226 238.476C114.199 243.586 106.856 249.367 106.647 249.475C106.763 249.025 106.871 248.581 107.022 248.104C110.715 236.421 104.297 237.592 101.886 241.848C101.246 240.44 99.5473 239.137 100.754 236.532Z" fill="#353535"/>
<path d="M101.811 230.228C101.627 230.357 101.564 230.527 101.545 230.649C101.514 230.833 101.561 231.021 101.677 231.178C102.641 232.494 102.558 234.401 101.428 236.84C100.672 238.468 101.254 239.391 101.934 240.453C103.406 238.6 105.524 237.652 107.032 238.316C108.24 238.841 109.907 240.713 108.035 247.301C110.119 245.275 113.084 241.694 112.497 238.613C112.186 236.975 111.242 235.84 110.242 234.637C108.695 232.774 106.959 230.687 107.481 226.535C106.544 227.043 104.847 228.113 101.811 230.228H101.811ZM105.999 249.013C106.094 248.646 106.19 248.272 106.315 247.882C108.009 242.52 107.442 240.11 106.441 239.675C105.505 239.263 103.634 240.263 102.528 242.211L101.813 243.478L101.211 242.152C101.076 241.857 100.888 241.568 100.695 241.268C99.9735 240.138 98.9838 238.589 100.082 236.218C100.958 234.33 101.094 232.889 100.481 232.055C100.126 231.574 99.9853 230.987 100.082 230.406C100.176 229.838 100.489 229.342 100.965 229.011C106.195 225.367 107.67 224.643 108.428 224.643H108.438L109.35 224.651L109.156 225.541C108.212 229.877 109.751 231.728 111.382 233.69C112.457 234.984 113.57 236.322 113.954 238.334C115.051 244.102 107.068 250.089 106.983 250.133L105.511 250.883L105.999 249.013H105.999Z" fill="#353535"/>
<path d="M145.885 74.9805L145.881 74.9717C145.881 74.9717 162.61 68.4824 169.19 80.6015C175.768 92.7206 161.188 103.205 161.188 103.205L161.183 103.196C159.04 105.01 155.792 105.034 152.195 102.827C145.977 99.0115 141.095 90.0056 141.29 82.7131C141.404 78.4956 143.195 75.7883 145.885 74.9804V74.9805Z" fill="#008D26"/>
<path d="M161.401 102.099C164.082 99.9116 173.949 90.9207 168.538 80.9533C163.165 71.0526 150.359 74.3111 146.976 75.3798L147 75.418L146.099 75.6894C143.613 76.435 142.131 79.0017 142.031 82.7315C141.842 89.7782 146.576 98.5095 152.584 102.195C155.762 104.145 158.723 104.305 160.704 102.63L161.383 102.069L161.401 102.099L161.401 102.099ZM151.809 103.458C145.399 99.5231 140.349 90.2092 140.549 82.6915C140.657 78.7038 142.194 75.8108 144.806 74.5989L144.804 74.5943L144.89 74.5585C145.085 74.4728 145.285 74.3943 145.489 74.3258L145.613 74.28C145.786 74.2132 163.028 67.7005 169.841 80.2464C176.653 92.7922 161.772 103.698 161.62 103.806L161.533 103.867C160.368 104.805 158.974 105.272 157.443 105.272C155.7 105.272 153.777 104.666 151.809 103.458V103.458Z" fill="#353535"/>
<path d="M92.5492 221.383H92.5404C92.5404 221.383 94.6937 204.49 107.779 204.484C120.866 204.477 123.019 221.383 123.019 221.383H123.01C123.553 223.992 122.103 226.713 118.635 228.714C112.64 232.176 102.918 232.176 96.9221 228.714C93.4561 226.713 92.0069 223.992 92.5492 221.383H92.5492Z" fill="#008D26"/>
<path d="M107.788 205.224H107.779C97.1389 205.229 94.0623 217.32 93.4192 220.642H93.462L93.2755 221.534C92.7774 223.928 94.2417 226.309 97.2944 228.072C103.078 231.408 112.485 231.407 118.265 228.072C121.318 226.309 122.782 223.928 122.284 221.534L122.108 220.642H122.142C121.501 217.32 118.44 205.224 107.788 205.224H107.788ZM96.5533 229.354C93.2663 227.457 91.5431 224.861 91.7044 222.124H91.7002L91.7133 222.01C91.7284 221.815 91.7536 221.62 91.7876 221.425L91.8053 221.288C91.8292 221.115 94.1984 203.75 107.779 203.742H107.788C121.361 203.742 123.732 221.115 123.754 221.288L123.766 221.389C124.313 224.393 122.587 227.289 119.006 229.354C115.91 231.143 111.845 232.037 107.779 232.037C103.714 232.037 99.6493 231.143 96.5534 229.354H96.5533Z" fill="#353535"/>
<path d="M114.805 179.272V205.224C114.83 206.28 114.147 207.342 112.75 208.15C110.005 209.733 105.556 209.733 102.812 208.15C101.44 207.358 100.754 206.32 100.754 205.281V179.199L114.805 179.272V179.272Z" fill="#353535"/>
<path d="M101.496 179.942V205.282C101.496 206.088 102.094 206.881 103.184 207.508C105.719 208.972 109.842 208.969 112.379 207.508C113.486 206.869 114.085 206.063 114.064 205.223V180.006L101.496 179.942ZM102.443 208.79C100.877 207.887 100.014 206.642 100.014 205.282V178.453L115.546 178.535V205.203C115.58 206.592 114.718 207.866 113.12 208.79C111.622 209.655 109.703 210.086 107.781 210.086C105.86 210.086 103.938 209.655 102.443 208.79V208.79Z" fill="#353535"/>
<path d="M143.933 162.48H143.955C143.955 162.48 138.774 202.57 107.712 202.53C76.6489 202.493 71.6088 162.351 71.6088 162.351H71.6324C70.3536 156.156 73.805 149.707 82.043 144.968C96.2902 136.778 119.365 136.817 133.583 145.06C141.805 149.827 145.234 156.29 143.933 162.48V162.48Z" fill="#F7EEC3"/>
<path d="M143.032 163.162L143.207 162.326C144.497 156.189 140.852 150.132 133.21 145.701C119.218 137.587 96.4288 137.55 82.411 145.612C74.7539 150.014 71.0892 156.061 72.3565 162.202L72.5179 163.092H72.4721C73.4219 168.796 80.1128 201.754 107.712 201.788H107.755C135.383 201.788 142.158 168.713 143.098 163.166L143.032 163.162V163.162ZM107.709 203.27C76.3577 203.233 70.9249 162.851 70.8745 162.443L70.8535 162.236C69.6029 155.521 73.5331 149.007 81.6733 144.327C96.0999 136.03 119.551 136.071 133.954 144.419C142.034 149.102 145.941 155.584 144.732 162.254L144.691 162.574C144.637 162.981 139.07 203.273 107.755 203.27H107.709V203.27Z" fill="#353535"/>
<path d="M82.0165 145.014C67.7839 153.232 67.7839 166.553 82.0165 174.77C96.2485 182.987 119.325 182.987 133.556 174.77C147.789 166.553 147.789 153.232 133.556 145.014C119.324 136.797 96.2486 136.797 82.0165 145.014V145.014Z" fill="#353535"/>
<path d="M82.387 145.654C75.7431 149.49 72.083 154.546 72.083 159.893C72.083 165.235 75.7431 170.292 82.387 174.128C96.3956 182.215 119.183 182.215 133.187 174.128C139.831 170.292 143.49 165.235 143.49 159.893C143.49 154.546 139.831 149.49 133.186 145.654C126.183 141.612 116.985 139.591 107.787 139.591C98.5888 139.591 89.3905 141.612 82.387 145.654V145.654ZM81.646 175.41C74.5253 171.3 70.601 165.786 70.601 159.893C70.601 153.996 74.5253 148.482 81.646 144.371C96.0604 136.047 119.513 136.049 133.927 144.371C141.049 148.482 144.972 153.996 144.972 159.893C144.972 165.786 141.05 171.3 133.928 175.41C126.72 179.573 117.255 181.652 107.787 181.652C98.3204 181.652 88.8539 179.572 81.6459 175.41H81.646Z" fill="#353535"/>
<path d="M48.3125 139.16C48.3113 137.676 48.4919 136.192 48.8225 134.719C50.2764 124.034 55.4794 95.6703 72.0605 67.9199L107.787 70.9281L143.513 67.9199C160.094 95.6703 165.296 124.035 166.751 134.719C169.043 144.922 163.417 155.604 149.841 163.442C126.616 176.85 88.9574 176.85 65.7324 163.44C54.1187 156.736 48.3124 147.948 48.3124 139.16H48.3125Z" fill="#F7EEC3"/>
<path d="M107.724 71.6642L72.4602 68.6943C56.1798 96.1263 51.0213 124.05 49.5468 134.88C49.2192 136.341 49.052 137.782 49.052 139.158C49.052 148.054 55.1069 156.449 66.1015 162.801C89.0875 176.067 126.487 176.067 149.471 162.801C162.314 155.385 168.348 145.208 166.016 134.818C164.55 124.049 159.39 96.1206 143.113 68.6944L107.724 71.6643V71.6642ZM65.3605 164.081C53.8888 157.459 47.57 148.606 47.57 139.158C47.57 137.67 47.7477 136.122 48.0901 134.619C49.5734 123.709 54.8167 95.3303 71.4248 67.5383L71.6617 67.1426L107.724 70.1881L143.911 67.1426L144.149 67.5383C160.753 95.3261 166 123.708 167.472 134.557C169.946 145.562 163.653 156.322 150.212 164.081C138.516 170.834 123.151 174.212 107.787 174.212C92.4221 174.212 77.0588 170.834 65.3605 164.081Z" fill="#353535"/>
<path d="M82.0165 57.196C67.7839 65.4135 67.7839 78.7344 82.0165 86.9519C96.2485 95.1689 119.325 95.1689 133.556 86.9519C147.789 78.7361 147.789 65.4135 133.556 57.196C119.324 48.9789 96.2486 48.9789 82.0165 57.196V57.196Z" fill="#008D26"/>
<path d="M82.387 57.8367C75.7431 61.672 72.083 66.7284 72.083 72.0721C72.083 77.4171 75.7431 82.4736 82.387 86.3088C96.3956 94.3944 119.183 94.3944 133.187 86.3088C139.831 82.4736 143.49 77.4171 143.49 72.0734C143.49 66.7284 139.831 61.672 133.186 57.8367C126.183 53.7927 116.985 51.7725 107.787 51.7725C98.5888 51.7725 89.3905 53.7927 82.387 57.8367V57.8367ZM81.646 87.5938C74.5253 83.4813 70.601 77.9687 70.601 72.0721C70.601 66.1756 74.5253 60.6655 81.646 56.5534C96.0604 48.2322 119.513 48.2322 133.927 56.5534C141.049 60.6655 144.972 66.1756 144.972 72.0734C144.972 77.9687 141.05 83.4813 133.928 87.5939C126.72 91.7552 117.255 93.8341 107.787 93.8341C98.3204 93.8341 88.8539 91.7535 81.6459 87.5939L81.646 87.5938Z" fill="#353535"/>
<path d="M71.6367 63.8692H71.6131C71.6131 63.8692 76.7241 23.7699 107.787 23.7539C138.849 23.7375 143.959 63.8692 143.959 63.8692H143.938C145.226 70.0623 141.786 76.5193 133.556 81.2703C119.325 89.4873 96.2484 89.4873 82.0163 81.2703C73.7871 76.5193 70.3475 70.0623 71.6367 63.8692V63.8692Z" fill="#F7EEC3"/>
<path d="M107.807 24.4952H107.787C80.2063 24.5103 73.4414 57.4239 72.4794 63.1306H72.5462L72.361 64.0212C71.0836 70.1593 74.7382 76.2129 82.3865 80.628C96.395 88.7148 119.182 88.7148 133.187 80.628C140.835 76.213 144.489 70.1594 143.212 64.0212L143.049 63.1306H143.095C142.133 57.4239 135.374 24.4952 107.807 24.4952H107.807ZM81.6454 81.9142C73.5509 77.2388 69.6343 70.7567 70.8406 64.0775L70.8789 63.7767C70.931 63.3692 76.4348 23.0313 107.786 23.0137H107.807C139.139 23.0137 144.643 63.3693 144.695 63.7767L144.716 63.9889C145.974 70.6987 142.057 77.2195 133.928 81.9142C126.72 86.0737 117.253 88.1531 107.786 88.1531C98.3197 88.1531 88.8533 86.0738 81.6453 81.9142H81.6454Z" fill="#353535"/>
<path d="M59.3237 118.307L59.3221 118.318C59.3221 118.318 40.0705 114.124 41.3895 99.0408C42.7069 83.9564 62.4121 83.189 62.4121 83.189L62.4104 83.2007C65.4719 82.8391 68.4611 84.7848 70.4174 88.983C73.799 96.2461 72.8135 107.449 68.2166 114.01C65.5568 117.802 62.2756 119.198 59.3237 118.307Z" fill="#008D26"/>
<path d="M62.4991 83.9345L61.6707 84.0202V83.9878C58.0905 84.3302 43.2266 86.5129 42.1256 99.1033C41.0422 111.519 54.8761 116.304 58.5823 117.358V117.307L59.5367 117.596C62.3004 118.425 65.2392 116.966 67.6101 113.583C72.065 107.227 73.0219 96.3304 69.7457 89.2958C68.1301 85.8281 65.7474 83.8957 63.1317 83.8957C62.9229 83.8957 62.7107 83.9092 62.499 83.9344L62.4991 83.9345ZM60.0644 119.232V119.237L59.9976 119.221C59.7648 119.183 59.5338 119.133 59.301 119.071L59.1645 119.04C58.9675 118.997 39.2921 114.527 40.6494 98.9743C42.0083 83.4199 62.1789 82.4554 62.3819 82.4478L62.4974 82.4448C65.9609 82.1083 69.0904 84.3789 71.0883 88.6691C74.5648 96.1321 73.5495 107.691 68.8224 114.434C66.5952 117.61 63.8609 119.312 61.0968 119.312C60.7532 119.312 60.4079 119.284 60.0643 119.232H60.0644Z" fill="#353535"/>
<path d="M126.066 51.1727C132.315 47.566 134.737 42.4487 133.285 37.6905C133.212 37.4502 133.52 37.2873 133.667 37.4906C137.782 43.1704 140.345 49.5946 141.875 54.6838C143.212 60.5434 139.847 66.7983 132.05 71.3006C125.543 75.0585 117.067 76.9627 108.543 77.0413C105.199 77.074 102.11 75.2648 100.487 72.3453L100.408 72.2017C98.129 68.1026 98.2966 63.1084 100.829 59.1933C102.287 56.9421 104.775 55.5134 107.459 55.5344C114.183 55.5861 120.934 54.1368 126.066 51.1728L126.066 51.1727Z" fill="#008D26"/>
<path d="M126.438 51.8163C121.445 54.6972 114.846 56.2767 107.818 56.2767C107.68 56.2767 107.555 56.2767 107.403 56.2754C105.055 56.2754 102.779 57.5436 101.453 59.5977C99.0609 63.2893 98.9097 67.9794 101.054 71.8412L101.136 71.9853C102.631 74.6763 105.392 76.3225 108.535 76.3002C117.3 76.2204 125.519 74.2154 131.68 70.6587C138.917 66.4827 142.459 60.5698 141.164 54.8954C139.961 50.8884 137.851 45.2304 134.43 39.9194C134.663 44.3931 131.813 48.7115 126.438 51.8163L126.438 51.8163ZM99.8406 72.7054L99.7591 72.56C97.3479 68.2198 97.5184 62.9453 100.208 58.7917C101.831 56.2843 104.514 54.7934 107.4 54.7934C107.541 54.7904 107.678 54.7946 107.818 54.7946C114.59 54.7946 120.928 53.2861 125.697 50.5326C131.41 47.2325 133.982 42.5125 132.576 37.9052C132.438 37.4502 132.646 36.9688 133.071 36.7584C133.491 36.5492 133.993 36.6769 134.267 37.0545C138.624 43.0683 141.195 49.8453 142.597 54.5178C144.055 60.9092 140.251 67.4224 132.421 71.942C126.044 75.6232 117.566 77.6996 108.55 77.7824H108.456C104.879 77.7824 101.585 75.8441 99.8406 72.7054V72.7054Z" fill="#353535"/>
<path d="M108.075 73.6122C116.599 73.5324 121.72 72.8091 128.715 69.0775C136.658 64.8407 140.707 59.8111 138.54 52.4607C137.479 48.9321 135.907 44.7649 133.679 40.647C133.708 39.6569 133.582 38.6655 133.284 37.6905C133.211 37.4502 133.519 37.2873 133.666 37.4906C137.781 43.1704 140.344 49.5946 141.875 54.6838C143.211 60.5434 139.846 66.7983 132.05 71.3006C125.542 75.0585 117.066 77.0413 108.542 77.0413C105.178 77.0413 102.666 74.6229 100.948 72.8296C100.833 72.707 100.96 72.5276 101.119 72.581C103.929 73.556 106.992 73.6228 108.075 73.6122H108.075Z" fill="#353535"/>
<path d="M134.426 40.4659C136.339 44.0374 138.006 48.1071 139.251 52.2502C141.346 59.3516 138.108 64.9074 129.064 69.7312C121.884 73.5618 116.577 74.273 108.083 74.3532C107.201 74.3637 105.233 74.3192 103.104 73.8819C104.679 75.2585 106.443 76.3003 108.542 76.3003C117.161 76.3003 125.379 74.297 131.68 70.6587C138.916 66.4798 142.458 60.5699 141.164 54.8955C139.959 50.8813 137.843 45.2128 134.414 39.8956C134.423 40.0855 134.427 40.2766 134.426 40.466V40.4659ZM100.412 73.3425C100.127 73.0417 100.082 72.591 100.303 72.2444C100.53 71.8932 100.962 71.742 101.363 71.8815C104.028 72.8061 106.937 72.8921 108.068 72.8712C116.318 72.7944 121.459 72.1096 128.366 68.4239C136.798 63.9266 139.716 59.0672 137.829 52.6729C136.595 48.562 134.934 44.5251 133.028 40.9994L132.935 40.823L132.939 40.6247C132.966 39.6968 132.844 38.7827 132.576 37.9052C132.438 37.4502 132.646 36.9688 133.071 36.7584C133.49 36.5492 133.993 36.6769 134.267 37.0545C138.622 43.0683 141.193 49.8436 142.597 54.5178C144.055 60.9075 140.251 67.4208 132.421 71.942C125.897 75.7093 117.418 77.7823 108.542 77.7823C105.138 77.7823 102.624 75.6484 100.412 73.3426L100.412 73.3425Z" fill="#353535"/>
<path d="M131.174 55.534C131.379 58.1124 132.551 60.1233 133.793 60.0254C135.036 59.9279 135.878 57.7582 135.673 55.1782C135.469 52.5981 134.297 50.5872 133.055 50.6851C131.812 50.7842 130.972 52.9551 131.174 55.534V55.534Z" fill="#F7EEC3"/>
<path d="M133.113 51.4225C132.513 51.4712 131.726 53.1104 131.914 55.4741C132.003 56.5974 132.302 57.6657 132.735 58.4113C133.064 58.973 133.463 59.3002 133.735 59.2872C134.337 59.2398 135.122 57.5977 134.934 55.2368C134.751 52.9088 133.746 51.4226 133.141 51.4226H133.113L133.113 51.4225ZM131.455 59.1565C130.905 58.2125 130.543 56.9486 130.436 55.5909C130.192 52.5088 131.293 50.0813 132.997 49.9447C134.688 49.8174 136.169 52.0345 136.411 55.1183C136.656 58.202 135.555 60.6279 133.852 60.7645L133.701 60.7703C132.858 60.7703 132.064 60.2028 131.455 59.1565V59.1565Z" fill="#353535"/>
<path d="M108.259 64.4548C108.28 67.4083 110.671 69.785 113.599 69.7645C116.527 69.7452 118.883 67.3339 118.864 64.3838C118.843 61.4302 116.453 59.053 113.525 59.0724C110.596 59.0929 108.24 61.5029 108.259 64.4548V64.4548Z" fill="#F7EEC3"/>
<path d="M113.53 59.8141C111.016 59.8317 108.984 61.9123 109 64.4508L108.259 64.4567L109 64.4508C109.009 65.6808 109.492 66.8369 110.361 67.7009C111.228 68.5633 112.311 69.0388 113.594 69.0241C116.108 69.0078 118.14 66.9271 118.123 64.3874C118.114 63.1557 117.631 62.0026 116.762 61.1389C115.903 60.2837 114.768 59.8141 113.563 59.8141H113.53H113.53ZM109.316 68.7516C108.169 67.609 107.53 66.087 107.518 64.4613C107.496 61.1062 110.187 58.356 113.52 58.332C115.177 58.335 116.657 58.9441 117.807 60.0884C118.954 61.2293 119.593 62.7529 119.605 64.3786C119.627 67.7333 116.936 70.4839 113.603 70.5062H113.561C111.961 70.5062 110.455 69.8836 109.316 68.7515L109.316 68.7516Z" fill="#353535"/>
<path d="M99.1649 129.174L102.793 117.978C103.231 116.622 104.513 115.744 105.937 115.765C124.902 116.063 138.348 109.086 143.476 105.906C144.832 105.064 146.595 105.322 147.639 106.531L152.065 111.663C154.907 114.956 157.009 118.842 158.107 123.05C164.278 146.708 158.827 156.647 158.738 156.807C156.314 159.113 153.382 161.292 149.931 163.284C136.256 171.18 117.578 174.421 99.7875 173.019C95.5062 161.127 96.2073 146.726 97.0562 138.922C97.4179 135.608 98.1379 132.345 99.1649 129.174H99.1649Z" fill="#008D26" stroke="#353535" stroke-width="0.199403" stroke-miterlimit="10"/>
<path d="M157.389 123.239C156.346 119.235 154.31 115.398 151.505 112.147L147.077 107.015C146.272 106.083 144.922 105.88 143.865 106.535C138.874 109.634 125.254 116.787 105.923 116.507L105.882 116.505C104.782 116.505 103.826 117.184 103.497 118.206L99.8695 129.402C98.8395 132.584 98.14 135.815 97.7918 139.004C96.9815 146.445 96.2493 160.585 100.324 172.316C118.626 173.673 136.543 170.155 149.56 162.643C152.839 160.751 155.725 158.635 158.137 156.356C158.653 155.307 163.127 145.237 157.389 123.239L157.389 123.239ZM99.7305 173.756L99.2516 173.719L99.0903 173.269C94.7333 161.172 95.4831 146.507 96.3191 138.844C96.6774 135.554 97.3978 132.225 98.4602 128.946L102.087 117.75C102.624 116.092 104.206 115.019 105.947 115.025C124.886 115.309 138.204 108.304 143.084 105.276C144.763 104.233 146.914 104.558 148.198 106.047L152.626 111.181C155.58 114.602 157.723 118.642 158.824 122.864C165.018 146.612 159.62 156.747 159.387 157.166L159.249 157.344C156.734 159.737 153.724 161.95 150.301 163.925C138.898 170.509 123.831 174.084 108.022 174.084C105.276 174.084 102.506 173.978 99.7305 173.756V173.756Z" fill="#353535"/>
<path d="M153.089 152.414C153.089 153.721 153.829 154.779 154.74 154.779C155.651 154.779 156.391 153.721 156.391 152.414C156.391 151.108 155.651 150.049 154.74 150.049C153.829 150.049 153.089 151.108 153.089 152.414Z" fill="#F7EEC3"/>
<path d="M153.83 152.416C153.83 153.347 154.31 154.039 154.74 154.039C155.17 154.039 155.651 153.347 155.651 152.416C155.651 151.484 155.17 150.791 154.74 150.791C154.31 150.791 153.83 151.484 153.83 152.416ZM152.348 152.416C152.348 150.673 153.399 149.309 154.74 149.309C156.081 149.309 157.133 150.673 157.133 152.416C157.133 154.158 156.081 155.521 154.74 155.521C153.399 155.521 152.348 154.157 152.348 152.416Z" fill="#353535"/>
<path d="M144.159 113.543C144.771 114.698 145.909 115.291 146.702 114.872C147.494 114.451 147.64 113.174 147.027 112.02C146.413 110.866 145.275 110.271 144.484 110.692C143.691 111.113 143.546 112.388 144.159 113.543V113.543Z" fill="#F7EEC3"/>
<path d="M144.832 111.347C144.463 111.543 144.377 112.374 144.812 113.196C145.036 113.616 145.362 113.961 145.706 114.141C145.826 114.206 146.131 114.337 146.354 114.217C146.579 114.096 146.64 113.773 146.654 113.639C146.699 113.252 146.597 112.79 146.371 112.367C146.149 111.946 145.823 111.602 145.479 111.423C145.395 111.377 145.217 111.299 145.04 111.299L144.832 111.347V111.347ZM145.02 115.454C144.408 115.135 143.87 114.58 143.504 113.892C142.687 112.354 142.965 110.661 144.135 110.038C144.733 109.722 145.472 109.749 146.166 110.109C146.778 110.429 147.316 110.985 147.68 111.675C148.047 112.361 148.205 113.12 148.128 113.804C148.039 114.583 147.646 115.21 147.049 115.527C146.773 115.673 146.465 115.747 146.145 115.747C145.776 115.747 145.392 115.65 145.02 115.454L145.02 115.454Z" fill="#353535"/>
<path d="M103.339 166.414C103.339 167.72 104.399 168.78 105.706 168.78C107.012 168.78 108.071 167.72 108.071 166.414C108.071 165.106 107.012 164.047 105.706 164.047C104.399 164.047 103.339 165.106 103.339 166.414Z" fill="#F7EEC3" stroke="#353535" stroke-width="0.199403" stroke-miterlimit="10"/>
<path d="M104.08 166.413C104.08 167.309 104.809 168.037 105.706 168.037C106.601 168.037 107.33 167.309 107.33 166.413C107.33 165.518 106.601 164.789 105.706 164.789C104.809 164.789 104.08 165.518 104.08 166.413ZM102.598 166.413C102.598 164.7 103.993 163.307 105.706 163.307C107.419 163.307 108.812 164.7 108.812 166.413C108.812 168.124 107.419 169.519 105.706 169.519C103.993 169.519 102.598 168.125 102.598 166.413Z" fill="#353535"/>
<path d="M106.26 123.567C106.26 124.875 107.319 125.933 108.625 125.933C109.932 125.933 110.992 124.875 110.992 123.567C110.992 122.261 109.932 121.201 108.625 121.201C107.319 121.201 106.26 122.261 106.26 123.567Z" fill="#F7EEC3"/>
<path d="M107.001 123.566C107.001 124.46 107.731 125.191 108.625 125.191C109.522 125.191 110.251 124.46 110.251 123.566C110.251 122.67 109.522 121.941 108.625 121.941C107.731 121.941 107.001 122.67 107.001 123.566ZM105.519 123.566C105.519 121.853 106.912 120.459 108.625 120.459C110.34 120.459 111.733 121.853 111.733 123.566C111.733 125.278 110.34 126.673 108.625 126.673C106.912 126.673 105.519 125.278 105.519 123.566Z" fill="#353535"/>
<path d="M57.8412 118.48C67.6605 113.633 67.6369 99.5172 67.6307 98.9199L66.1491 98.9334C66.1504 99.0728 66.1651 112.72 57.1847 117.152L57.8413 118.48L57.8412 118.48Z" fill="#353535"/>
<path d="M66.15 95.7718L67.6291 95.6622C67.6144 95.4488 67.2128 90.4474 64.6445 86.9902L63.4544 87.8749C65.7631 90.9826 66.1471 95.7248 66.15 95.7718V95.7718Z" fill="#353535"/>
<path d="M167.977 89.0096C168.031 88.7059 169.235 81.5466 161.454 76.4238L160.638 77.6597C167.611 82.2507 166.532 88.6807 166.52 88.7446L167.977 89.0096H167.977Z" fill="#353535"/>
<path d="M107.407 38.7626C116.641 38.7626 118.867 32.7623 118.963 32.4867L117.565 31.9902C117.475 32.2422 115.252 38.1048 105.365 37.1827L105.229 38.6588C105.995 38.7298 106.721 38.7626 107.407 38.7626H107.407Z" fill="#353535"/>
<path d="M93.1029 168.077L93.2852 166.608C93.1373 166.588 78.3949 164.69 66.8597 157.695L66.0922 158.962C77.9047 166.125 92.9521 168.058 93.1029 168.077V168.077Z" fill="#353535"/>
<path d="M54.5917 147.529L55.4823 146.345C55.46 146.326 53.0799 144.466 52.0516 140.127L50.6095 140.466C51.7685 145.364 54.4746 147.443 54.5918 147.53L54.5917 147.529Z" fill="#353535"/>
<path d="M109.425 199.33C123.898 198.986 129.161 189.828 129.378 189.44L128.084 188.717C128.035 188.804 122.976 197.524 109.39 197.848L109.425 199.33V199.33Z" fill="#353535"/>
<path d="M108.61 228.642C116.386 228.642 120.46 223.661 120.644 223.432L119.488 222.506C119.305 222.729 114.974 227.987 106.647 227.049L106.481 228.521C107.219 228.605 107.929 228.642 108.61 228.642H108.61Z" fill="#353535"/>
<path d="M103.05 27.8492C100.439 29.3577 100.439 31.8012 103.05 33.3101C105.663 34.8169 109.897 34.8169 112.508 33.3101C115.121 31.8012 115.121 29.3577 112.508 27.8492C109.897 26.3419 105.663 26.3419 103.05 27.8492V27.8492Z" fill="#008D26"/>
<path d="M103.422 28.4902C102.397 29.0817 101.832 29.8227 101.832 30.5784C101.832 31.3358 102.396 32.0768 103.422 32.6666C105.783 34.0297 109.775 34.0314 112.139 32.6666C113.163 32.0768 113.726 31.3358 113.726 30.5784C113.726 29.8227 113.163 29.0817 112.139 28.4902C110.956 27.8089 109.368 27.4665 107.779 27.4665C106.192 27.4665 104.603 27.8089 103.422 28.4902V28.4902ZM102.681 33.9499C101.178 33.0841 100.35 31.8853 100.35 30.5784C100.35 29.2728 101.178 28.0739 102.681 27.2069C105.54 25.556 110.02 25.556 112.88 27.2069C114.381 28.0739 115.208 29.2728 115.208 30.5784C115.208 31.8853 114.381 33.0841 112.88 33.9499C111.45 34.7766 109.615 35.1887 107.781 35.1887C105.946 35.1887 104.111 34.7753 102.681 33.9499Z" fill="#353535"/>
<g filter="url(#filter2_d_492_2830)">
<path d="M89.2961 203.002L90.0531 201.731C89.9553 201.67 80.1066 195.714 75.8119 185.871L74.4546 186.464C78.943 196.754 88.8735 202.753 89.2961 203.002Z" fill="#333333"/>
<path d="M74.4578 186.465L75.8106 185.874C80.0667 195.626 89.7733 201.562 90.0467 201.729C90.0479 201.73 90.0489 201.731 90.0498 201.731L89.2953 202.999C88.843 202.732 78.9392 196.737 74.4578 186.465Z" stroke="#333333" stroke-width="0.00492474"/>
</g>
<g filter="url(#filter3_d_492_2830)">
<path d="M97.2613 205.94L97.6469 204.51C97.62 204.5 94.8681 203.755 91.8419 202.33L91.2106 203.671C94.3611 205.155 97.1458 205.907 97.2613 205.94Z" fill="#333333"/>
<path d="M91.8431 202.333C94.6678 203.665 97.2554 204.401 97.6059 204.501C97.6262 204.507 97.639 204.51 97.6439 204.512L97.2596 205.937C97.2556 205.936 97.2496 205.934 97.2417 205.932C96.9609 205.854 94.2606 205.099 91.2138 203.67L91.8431 202.333Z" stroke="#191C1A" stroke-width="0.00492474"/>
</g>
<g filter="url(#filter4_d_492_2830)">
<path d="M171.003 137.695L172.469 137.467C172.444 137.307 169.952 121.401 166.881 112.293L165.477 112.766C168.507 121.753 170.98 137.536 171.003 137.695H171.003Z" fill="#333333"/>
<path d="M165.481 112.777C165.533 112.931 165.584 113.087 165.636 113.245L165.704 113.448M165.481 112.777L171.006 137.694C171.006 137.694 171.005 137.693 171.005 137.692M165.481 112.777L165.64 113.25M165.481 112.777L171.005 137.692M165.704 113.448C168.589 122.397 170.915 137.109 171.003 137.679M165.704 113.448C165.683 113.382 165.662 113.316 165.64 113.25M165.704 113.448L170.985 129.109M171.003 137.679V137.692L171.005 137.692M171.003 137.679V137.678L171.005 137.692M171.003 137.679C171.004 137.685 171.005 137.689 171.005 137.692M171.005 137.692L172.466 137.465L172.466 137.463C172.441 137.306 171.884 133.762 170.985 129.109M170.985 129.109L170.991 129.126C170.991 129.125 170.99 129.124 170.99 129.123L170.984 129.105M170.985 129.109C170.985 129.107 170.984 129.106 170.984 129.105M170.984 129.105C169.964 123.823 168.502 117.11 166.879 112.296L165.48 112.768C165.534 112.926 165.587 113.087 165.64 113.25M170.984 129.105L165.64 113.25" stroke="#191C1A" stroke-width="0.00492474"/>
</g>
<g filter="url(#filter5_d_492_2830)">
<path d="M132.244 30.3294L133.296 29.2863C132.94 28.9276 124.428 20.4925 110.372 19L110.216 20.4748C123.751 21.9124 132.161 30.2449 132.244 30.3293V30.3294Z" fill="#333333"/>
</g>
<g filter="url(#filter6_d_492_2830)">
<path d="M28.0266 180.409C20.2525 176.008 17.0004 164.387 20.2524 154.162L21.9243 154.693C19.4239 162.656 22.2169 174.277 29.1859 179.093L28.0266 180.409Z" fill="#333333"/>
<path d="M22.0017 168.074C23.2583 172.576 25.6983 176.685 29.1822 179.093L28.026 180.406C20.2551 176.005 17.0037 164.388 20.254 154.165L21.9212 154.695C20.6716 158.677 20.745 163.572 22.0017 168.074Z" stroke="#333333" stroke-width="0.00492474"/>
</g>
<g filter="url(#filter7_d_492_2830)">
<path d="M29.3764 162.981C38.6298 197.265 112.455 176.626 192.205 131" stroke="#333333" stroke-width="2.07725" stroke-miterlimit="22.9256" shape-rendering="crispEdges"/>
</g>
<g filter="url(#filter8_d_492_2830)">
<path d="M33.4417 181.662C34.7385 182.439 36.0353 183.217 37.7764 183.73C39.5177 184.242 41.7037 184.491 43.8893 184.739" stroke="#333333" stroke-width="2.07725" stroke-miterlimit="22.9256" shape-rendering="crispEdges"/>
</g>
<defs>
<filter id="filter0_d_492_2830" x="77.467" y="0.480513" width="47.5059" height="40.0956" filterUnits="userSpaceOnUse" color-interpolation-filters="sRGB">
<feFlood flood-opacity="0" result="BackgroundImageFix"/>
<feColorMatrix in="SourceAlpha" type="matrix" values="0 0 0 0 0 0 0 0 0 0 0 0 0 0 0 0 0 0 127 0" result="hardAlpha"/>
<feOffset/>
<feGaussianBlur stdDeviation="9.34763"/>
<feComposite in2="hardAlpha" operator="out"/>
<feColorMatrix type="matrix" values="0 0 0 0 0.0862745 0 0 0 0 0.780392 0 0 0 0 0.32549 0 0 0 0.84 0"/>
<feBlend mode="normal" in2="BackgroundImageFix" result="effect1_dropShadow_492_2830"/>
<feBlend mode="normal" in="SourceGraphic" in2="effect1_dropShadow_492_2830" result="shape"/>
</filter>
<filter id="filter1_d_492_2830" x="8.53435" y="87.7325" width="183.112" height="94.2128" filterUnits="userSpaceOnUse" color-interpolation-filters="sRGB">
<feFlood flood-opacity="0" result="BackgroundImageFix"/>
<feColorMatrix in="SourceAlpha" type="matrix" values="0 0 0 0 0 0 0 0 0 0 0 0 0 0 0 0 0 0 127 0" result="hardAlpha"/>
<feOffset/>
<feGaussianBlur stdDeviation="9.34763"/>
<feComposite in2="hardAlpha" operator="out"/>
<feColorMatrix type="matrix" values="0 0 0 0 0.0862745 0 0 0 0 0.780392 0 0 0 0 0.32549 0 0 0 0.84 0"/>
<feBlend mode="normal" in2="BackgroundImageFix" result="effect1_dropShadow_492_2830"/>
<feBlend mode="normal" in="SourceGraphic" in2="effect1_dropShadow_492_2830" result="shape"/>
</filter>
<filter id="filter2_d_492_2830" x="55.7593" y="167.176" width="52.9891" height="54.5214" filterUnits="userSpaceOnUse" color-interpolation-filters="sRGB">
<feFlood flood-opacity="0" result="BackgroundImageFix"/>
<feColorMatrix in="SourceAlpha" type="matrix" values="0 0 0 0 0 0 0 0 0 0 0 0 0 0 0 0 0 0 127 0" result="hardAlpha"/>
<feOffset/>
<feGaussianBlur stdDeviation="9.34763"/>
<feComposite in2="hardAlpha" operator="out"/>
<feColorMatrix type="matrix" values="0 0 0 0 0.0862745 0 0 0 0 0.780392 0 0 0 0 0.32549 0 0 0 0.84 0"/>
<feBlend mode="normal" in2="BackgroundImageFix" result="effect1_dropShadow_492_2830"/>
<feBlend mode="normal" in="SourceGraphic" in2="effect1_dropShadow_492_2830" result="shape"/>
</filter>
<filter id="filter3_d_492_2830" x="72.5153" y="183.635" width="43.8269" height="40.9999" filterUnits="userSpaceOnUse" color-interpolation-filters="sRGB">
<feFlood flood-opacity="0" result="BackgroundImageFix"/>
<feColorMatrix in="SourceAlpha" type="matrix" values="0 0 0 0 0 0 0 0 0 0 0 0 0 0 0 0 0 0 127 0" result="hardAlpha"/>
<feOffset/>
<feGaussianBlur stdDeviation="9.34763"/>
<feComposite in2="hardAlpha" operator="out"/>
<feColorMatrix type="matrix" values="0 0 0 0 0.0862745 0 0 0 0 0.780392 0 0 0 0 0.32549 0 0 0 0.84 0"/>
<feBlend mode="normal" in2="BackgroundImageFix" result="effect1_dropShadow_492_2830"/>
<feBlend mode="normal" in="SourceGraphic" in2="effect1_dropShadow_492_2830" result="shape"/>
</filter>
<filter id="filter4_d_492_2830" x="146.782" y="93.5977" width="44.3822" height="62.7929" filterUnits="userSpaceOnUse" color-interpolation-filters="sRGB">
<feFlood flood-opacity="0" result="BackgroundImageFix"/>
<feColorMatrix in="SourceAlpha" type="matrix" values="0 0 0 0 0 0 0 0 0 0 0 0 0 0 0 0 0 0 127 0" result="hardAlpha"/>
<feOffset/>
<feGaussianBlur stdDeviation="9.34763"/>
<feComposite in2="hardAlpha" operator="out"/>
<feColorMatrix type="matrix" values="0 0 0 0 0.0862745 0 0 0 0 0.780392 0 0 0 0 0.32549 0 0 0 0.84 0"/>
<feBlend mode="normal" in2="BackgroundImageFix" result="effect1_dropShadow_492_2830"/>
<feBlend mode="normal" in="SourceGraphic" in2="effect1_dropShadow_492_2830" result="shape"/>
</filter>
<filter id="filter5_d_492_2830" x="91.5209" y="0.304731" width="60.4702" height="48.7206" filterUnits="userSpaceOnUse" color-interpolation-filters="sRGB">
<feFlood flood-opacity="0" result="BackgroundImageFix"/>
<feColorMatrix in="SourceAlpha" type="matrix" values="0 0 0 0 0 0 0 0 0 0 0 0 0 0 0 0 0 0 127 0" result="hardAlpha"/>
<feOffset/>
<feGaussianBlur stdDeviation="9.34763"/>
<feComposite in2="hardAlpha" operator="out"/>
<feColorMatrix type="matrix" values="0 0 0 0 0.0862745 0 0 0 0 0.780392 0 0 0 0 0.32549 0 0 0 0.84 0"/>
<feBlend mode="normal" in2="BackgroundImageFix" result="effect1_dropShadow_492_2830"/>
<feBlend mode="normal" in="SourceGraphic" in2="effect1_dropShadow_492_2830" result="shape"/>
</filter>
<filter id="filter6_d_492_2830" x="0.304762" y="135.467" width="47.5764" height="63.6366" filterUnits="userSpaceOnUse" color-interpolation-filters="sRGB">
<feFlood flood-opacity="0" result="BackgroundImageFix"/>
<feColorMatrix in="SourceAlpha" type="matrix" values="0 0 0 0 0 0 0 0 0 0 0 0 0 0 0 0 0 0 127 0" result="hardAlpha"/>
<feOffset/>
<feGaussianBlur stdDeviation="9.34763"/>
<feComposite in2="hardAlpha" operator="out"/>
<feColorMatrix type="matrix" values="0 0 0 0 0.0862745 0 0 0 0 0.780392 0 0 0 0 0.32549 0 0 0 0.84 0"/>
<feBlend mode="normal" in2="BackgroundImageFix" result="effect1_dropShadow_492_2830"/>
<feBlend mode="normal" in="SourceGraphic" in2="effect1_dropShadow_492_2830" result="shape"/>
</filter>
<filter id="filter7_d_492_2830" x="9.67842" y="111.402" width="201.738" height="88.414" filterUnits="userSpaceOnUse" color-interpolation-filters="sRGB">
<feFlood flood-opacity="0" result="BackgroundImageFix"/>
<feColorMatrix in="SourceAlpha" type="matrix" values="0 0 0 0 0 0 0 0 0 0 0 0 0 0 0 0 0 0 127 0" result="hardAlpha"/>
<feOffset/>
<feGaussianBlur stdDeviation="9.34763"/>
<feComposite in2="hardAlpha" operator="out"/>
<feColorMatrix type="matrix" values="0 0 0 0 0.0862745 0 0 0 0 0.780392 0 0 0 0 0.32549 0 0 0 0.84 0"/>
<feBlend mode="normal" in2="BackgroundImageFix" result="effect1_dropShadow_492_2830"/>
<feBlend mode="normal" in="SourceGraphic" in2="effect1_dropShadow_492_2830" result="shape"/>
</filter>
<filter id="filter8_d_492_2830" x="14.2125" y="162.076" width="48.4893" height="42.3905" filterUnits="userSpaceOnUse" color-interpolation-filters="sRGB">
<feFlood flood-opacity="0" result="BackgroundImageFix"/>
<feColorMatrix in="SourceAlpha" type="matrix" values="0 0 0 0 0 0 0 0 0 0 0 0 0 0 0 0 0 0 127 0" result="hardAlpha"/>
<feOffset/>
<feGaussianBlur stdDeviation="9.34763"/>
<feComposite in2="hardAlpha" operator="out"/>
<feColorMatrix type="matrix" values="0 0 0 0 0.0862745 0 0 0 0 0.780392 0 0 0 0 0.32549 0 0 0 0.84 0"/>
<feBlend mode="normal" in2="BackgroundImageFix" result="effect1_dropShadow_492_2830"/>
<feBlend mode="normal" in="SourceGraphic" in2="effect1_dropShadow_492_2830" result="shape"/>
</filter>
</defs>
</svg>
