<svg width="249" height="265" viewBox="0 0 249 265" fill="none" xmlns="http://www.w3.org/2000/svg">
<g filter="url(#filter0_d_702_3574)">
<path d="M96.6718 21.8793C99.5573 20.8228 106.21 20.6581 106.278 20.6568L106.242 19.1748C105.96 19.1807 99.2788 19.3466 96.1622 20.4862L96.6718 21.8792V21.8793Z" fill="#3EDA2B"/>
</g>
<g filter="url(#filter1_d_702_3574)">
<path d="M172.818 107.458C140.699 111.609 15.227 110.557 29.376 162.98" stroke="#3EDA2B" stroke-width="2.07725" stroke-miterlimit="22.9256"/>
</g>
<path d="M208.329 111.698L202.896 124.522L202.882 124.52L200.39 106.456L200.389 106.453L201.909 100.629L201.915 100.624L246.548 89.6511L246.554 89.6643L224.949 109.55L224.946 109.552L208.335 111.693L208.329 111.698Z" fill="#39A1FF"/>
<path d="M200.93 106.486L203.148 122.566L207.931 111.214L208.269 111.167L224.716 109.047L244.697 90.6525L202.342 101.066L200.93 106.486L200.93 106.486ZM202.432 125.007L202.358 124.61L199.816 106.415L199.889 106.267L201.478 100.18L201.803 100.106L246.804 89.0412L247.223 89.7393L246.93 90.0392L225.184 110.057L225.011 110.079L208.701 112.183L203.229 125.098L202.432 125.007Z" fill="#353535"/>
<path d="M246.518 89.6654L200.393 106.454L200.386 106.452L185.221 96.2691L185.224 96.2545L246.514 89.6517L246.518 89.6654Z" fill="white"/>
<path d="M186.71 96.6293L200.463 105.865L242.287 90.6402L186.71 96.6293V96.6293ZM200.309 107.05L200.074 106.882L184.615 96.5005L184.797 95.7601L185.184 95.7258L246.912 89.0742L247.154 89.9716L246.7 90.1637L200.309 107.05L200.309 107.05Z" fill="#353535"/>
<path d="M203.36 116.809L202.984 113.898L204.038 113.763L204.414 116.673L203.36 116.809Z" fill="#353535"/>
<path d="M202.797 112.443L201.936 105.768L202.989 105.632L203.851 112.308L202.797 112.443Z" fill="#353535"/>
<path d="M206.157 109.977L205.396 104.515L206.447 104.369L207.209 109.832L206.157 109.977Z" fill="#353535"/>
<path d="M235.362 116.193L234.435 115.677L236.289 112.344L237.216 112.86L235.362 116.193Z" fill="#39A1FF"/>
<path d="M237.94 111.56L237.012 111.043L240.369 105.007L241.298 105.524L237.94 111.56Z" fill="#39A1FF"/>
<path d="M212.828 107.131L212.536 106.37L214.788 105.502L215.082 106.264L212.828 107.131Z" fill="#39A1FF"/>
<path d="M202.903 124.539L225.383 114.18L225.382 114.166L208.336 111.696L208.328 111.7L202.893 124.529L202.903 124.539Z" fill="#353535"/>
<path d="M208.66 112.279L203.91 123.491L223.557 114.438L208.66 112.279ZM202.782 125.17L202.265 124.659L202.405 124.32L208.012 111.086L208.451 111.177L225.841 113.697L225.977 114.468L225.626 114.652L202.782 125.17L202.782 125.17Z" fill="#353535"/>
<path d="M246.562 89.6687L226.857 124.481L226.847 124.484L208.341 111.701L208.341 111.689L246.553 89.6579L246.562 89.6687Z" fill="white"/>
<path d="M209.323 111.735L226.678 123.722L245.155 91.0762L209.323 111.735L209.323 111.735ZM226.772 125.059L226.567 124.935L207.804 111.976L207.811 111.404L208.05 111.244L246.625 89.0038L247.215 89.5387L247.031 89.9176L247.024 89.93L227.212 124.931L226.772 125.059L226.772 125.059Z" fill="#353535"/>
<path d="M240.049 101.122L236.415 98.4594L237.044 97.6029L240.675 100.265L240.049 101.122Z" fill="#353535"/>
<path d="M238.881 103.145L237.18 101.976L237.781 101.101L239.481 102.269L238.881 103.145Z" fill="#353535"/>
<path d="M211.922 119.558L213.343 116.215L214.318 116.636L212.898 119.979L211.922 119.558Z" fill="#39A1FF"/>
<path d="M210.561 117.206L211.377 115.302L212.353 115.721L211.537 117.625L210.561 117.206Z" fill="#39A1FF"/>
<path d="M208.99 120.872L210.179 118.097L211.155 118.516L209.967 121.29L208.99 120.872Z" fill="#39A1FF"/>
<path d="M93.7794 62.9823H95.1295V58.4283H93.7794V62.9823Z" fill="#39A1FF"/>
<path d="M96.8425 60.2835H98.1926V55.7307H96.8425V60.2835Z" fill="#39A1FF"/>
<path d="M112.386 229.377C112.419 229.513 112.497 229.623 112.616 229.698C114.237 230.727 125.698 238.576 117.247 249.961C111.592 257.578 112.646 261.312 114.243 263.044C114.619 263.452 114.242 264.097 113.707 263.953C109.79 262.898 103.318 259.432 106.897 248.108C111.478 233.618 100.501 238.895 100.91 245.315C100.943 245.838 100.319 246.123 99.9649 245.739C97.5566 243.136 93.3731 236.791 100.899 229.584C109.879 220.983 112.066 228.043 112.386 229.377H112.386Z" fill="white"/>
<path d="M101.411 230.118C94.8495 236.404 97.6237 241.905 100.161 244.845C100.211 242.004 102.152 239.521 104.073 238.559C105.389 237.902 106.648 237.956 107.535 238.711C108.652 239.665 109.573 242.108 107.605 248.329C106.234 252.667 106.262 256.182 107.684 258.781C109.018 261.221 111.37 262.449 113.301 263.063C111.702 260.879 111.226 256.83 116.653 249.518C119.066 246.268 119.996 243.034 119.415 239.904C118.411 234.494 113.246 230.974 112.221 230.324C111.941 230.149 111.744 229.872 111.666 229.55H111.665C111.511 228.903 110.871 226.758 109.116 226.241C108.852 226.165 108.571 226.126 108.273 226.126C106.508 226.126 104.161 227.487 101.412 230.118L101.411 230.118ZM113.516 264.67C111.216 264.049 108.113 262.651 106.385 259.494C104.759 256.527 104.696 252.619 106.192 247.885C108.126 241.769 106.971 240.179 106.573 239.838C106.008 239.36 105.179 239.665 104.735 239.882C103.102 240.701 101.502 242.938 101.65 245.269C101.687 245.828 101.379 246.333 100.866 246.551C100.361 246.766 99.7962 246.647 99.4211 246.241C97.0221 243.646 92.3169 236.779 100.387 229.049C104.055 225.537 107.135 224.112 109.532 224.82C111.973 225.539 112.85 228.192 113.086 229.119C114.353 229.934 119.778 233.738 120.872 239.634C121.53 243.184 120.512 246.808 117.843 250.401C113.746 255.921 112.661 260.234 114.79 262.543C115.186 262.972 115.25 263.596 114.947 264.097C114.71 264.488 114.297 264.715 113.855 264.715L113.516 264.67L113.516 264.67Z" fill="#353535"/>
<path d="M100.754 236.532C101.984 233.878 101.662 232.414 101.08 231.618C100.605 230.973 100.733 230.08 101.389 229.62C103.809 227.935 107.538 225.378 108.433 225.387C106.779 232.98 112.317 233.703 113.226 238.476C114.199 243.586 106.856 249.367 106.647 249.475C106.763 249.025 106.871 248.581 107.022 248.104C110.715 236.421 104.297 237.592 101.886 241.848C101.246 240.44 99.5473 239.137 100.754 236.532Z" fill="#353535"/>
<path d="M101.811 230.229C101.627 230.358 101.564 230.528 101.545 230.65C101.514 230.834 101.561 231.022 101.677 231.179C102.641 232.495 102.558 234.402 101.428 236.841C100.672 238.469 101.254 239.392 101.934 240.454C103.406 238.601 105.524 237.653 107.032 238.317C108.24 238.842 109.907 240.714 108.035 247.302C110.119 245.276 113.084 241.695 112.497 238.614C112.186 236.976 111.242 235.841 110.242 234.638C108.695 232.775 106.959 230.688 107.481 226.536C106.544 227.044 104.847 228.114 101.811 230.229H101.811ZM105.999 249.014C106.094 248.647 106.19 248.273 106.315 247.883C108.009 242.521 107.442 240.111 106.441 239.676C105.505 239.264 103.634 240.264 102.528 242.212L101.813 243.479L101.211 242.153C101.076 241.858 100.888 241.569 100.695 241.269C99.9735 240.139 98.9838 238.59 100.082 236.219C100.958 234.331 101.094 232.89 100.481 232.056C100.126 231.575 99.9853 230.988 100.082 230.407C100.176 229.839 100.489 229.343 100.965 229.012C106.195 225.368 107.67 224.644 108.428 224.644H108.438L109.35 224.652L109.156 225.542C108.212 229.878 109.751 231.729 111.382 233.691C112.457 234.985 113.57 236.323 113.954 238.335C115.051 244.103 107.068 250.09 106.983 250.134L105.511 250.884L105.999 249.014H105.999Z" fill="#353535"/>
<path d="M145.885 74.9798L145.881 74.9709C145.881 74.9709 162.61 68.4816 169.19 80.6007C175.768 92.7198 161.187 103.204 161.187 103.204L161.183 103.196C159.04 105.009 155.792 105.033 152.195 102.827C145.977 99.0108 141.095 90.0049 141.29 82.7124C141.404 78.4948 143.195 75.7875 145.885 74.9797V74.9798Z" fill="#3EDA2B"/>
<path d="M161.401 102.099C164.082 99.9118 173.949 90.921 168.538 80.9535C163.165 71.0528 150.359 74.3114 146.976 75.38L147 75.4183L146.099 75.6897C143.613 76.4353 142.132 79.002 142.031 82.7318C141.842 89.7785 146.576 98.5097 152.584 102.195C155.762 104.145 158.723 104.305 160.705 102.63L161.383 102.069L161.401 102.099L161.401 102.099ZM151.809 103.458C145.399 99.5233 140.349 90.2095 140.549 82.6918C140.657 78.704 142.194 75.811 144.806 74.5991L144.804 74.5945L144.89 74.5588C145.085 74.4731 145.285 74.3945 145.489 74.3261L145.613 74.2803C145.786 74.2135 163.028 67.7007 169.841 80.2466C176.653 92.7925 161.772 103.698 161.62 103.806L161.533 103.867C160.368 104.805 158.974 105.272 157.443 105.272C155.7 105.272 153.777 104.666 151.809 103.458V103.458Z" fill="#353535"/>
<path d="M92.5492 221.384H92.5404C92.5404 221.384 94.6937 204.491 107.779 204.485C120.866 204.478 123.019 221.384 123.019 221.384H123.01C123.553 223.993 122.103 226.714 118.635 228.715C112.64 232.177 102.918 232.177 96.9221 228.715C93.4561 226.714 92.0069 223.993 92.5492 221.384H92.5492Z" fill="#3EDA2B"/>
<path d="M107.788 205.225H107.779C97.139 205.229 94.0624 217.32 93.4192 220.643H93.4621L93.2756 221.535C92.7774 223.928 94.2417 226.309 97.2944 228.073C103.078 231.409 112.485 231.407 118.265 228.073C121.318 226.309 122.782 223.928 122.284 221.535L122.108 220.643H122.142C121.501 217.32 118.44 205.225 107.788 205.225H107.788ZM96.5534 229.355C93.2663 227.458 91.5432 224.862 91.7045 222.124H91.7003L91.7133 222.01C91.7284 221.815 91.7536 221.62 91.7877 221.425L91.8053 221.289C91.8293 221.115 94.1985 203.75 107.779 203.743H107.788C121.361 203.743 123.732 221.115 123.754 221.289L123.766 221.389C124.313 224.393 122.587 227.289 119.006 229.355C115.91 231.143 111.845 232.037 107.779 232.037C103.714 232.037 99.6494 231.143 96.5535 229.355H96.5534Z" fill="#353535"/>
<path d="M114.805 179.271V205.223C114.83 206.279 114.147 207.342 112.75 208.149C110.005 209.732 105.556 209.732 102.812 208.149C101.44 207.357 100.754 206.319 100.754 205.28V179.198L114.805 179.271V179.271Z" fill="#353535"/>
<path d="M101.496 179.942V205.282C101.496 206.088 102.095 206.881 103.184 207.508C105.719 208.972 109.842 208.969 112.379 207.508C113.486 206.869 114.085 206.063 114.064 205.223V180.006L101.496 179.942ZM102.443 208.79C100.877 207.887 100.014 206.642 100.014 205.282V178.453L115.546 178.535V205.203C115.58 206.592 114.718 207.866 113.12 208.79C111.622 209.655 109.703 210.086 107.781 210.086C105.86 210.086 103.938 209.655 102.443 208.79V208.79Z" fill="#353535"/>
<path d="M143.933 162.479H143.955C143.955 162.479 138.774 202.57 107.711 202.53C76.6488 202.493 71.6087 162.35 71.6087 162.35H71.6323C70.3536 156.156 73.8049 149.706 82.043 144.967C96.2902 136.777 119.365 136.817 133.583 145.059C141.805 149.826 145.234 156.289 143.933 162.479V162.479Z" fill="white"/>
<path d="M143.032 163.163L143.207 162.327C144.497 156.19 140.852 150.132 133.21 145.701C119.218 137.587 96.4288 137.55 82.411 145.612C74.7539 150.015 71.0892 156.061 72.3566 162.202L72.5179 163.093H72.4721C73.4219 168.797 80.1128 201.755 107.712 201.789H107.755C135.383 201.789 142.158 168.714 143.098 163.167L143.032 163.163V163.163ZM107.709 203.271C76.3578 203.234 70.925 162.851 70.8745 162.444L70.8535 162.236C69.6029 155.522 73.5331 149.007 81.6733 144.327C96.0999 136.03 119.551 136.071 133.954 144.419C142.034 149.102 145.941 155.584 144.732 162.254L144.691 162.574C144.637 162.982 139.07 203.274 107.755 203.271H107.709V203.271Z" fill="#353535"/>
<path d="M82.0164 145.014C67.7839 153.231 67.7839 166.552 82.0164 174.77C96.2485 182.987 119.325 182.987 133.556 174.77C147.789 166.552 147.789 153.231 133.556 145.014C119.324 136.797 96.2485 136.797 82.0164 145.014V145.014Z" fill="#353535"/>
<path d="M82.3869 145.654C75.7431 149.489 72.083 154.546 72.083 159.892C72.083 165.235 75.7431 170.291 82.3869 174.128C96.3955 182.214 119.183 182.214 133.187 174.128C139.831 170.291 143.489 165.235 143.489 159.892C143.489 154.545 139.831 149.489 133.186 145.654C126.183 141.611 116.985 139.59 107.787 139.59C98.5887 139.59 89.3904 141.611 82.3869 145.654V145.654ZM81.6459 175.41C74.5252 171.299 70.601 165.786 70.601 159.892C70.601 153.996 74.5252 148.481 81.6459 144.371C96.0603 136.047 119.513 136.048 133.927 144.371C141.049 148.481 144.972 153.996 144.972 159.892C144.972 165.786 141.05 171.299 133.928 175.41C126.72 179.572 117.255 181.652 107.787 181.652C98.3203 181.652 88.8539 179.571 81.6458 175.41H81.6459Z" fill="#353535"/>
<path d="M48.3126 139.16C48.3113 137.675 48.4919 136.192 48.8225 134.719C50.2764 124.034 55.4794 95.67 72.0605 67.9196L107.787 70.9277L143.513 67.9196C160.094 95.67 165.296 124.034 166.751 134.719C169.044 144.922 163.417 155.603 149.841 163.441C126.616 176.85 88.9575 176.85 65.7325 163.44C54.1187 156.735 48.3125 147.948 48.3125 139.16H48.3126Z" fill="white"/>
<path d="M107.724 71.665L72.4602 68.6951C56.1798 96.1271 51.0213 124.051 49.5469 134.881C49.2192 136.342 49.052 137.782 49.052 139.159C49.052 148.055 55.1069 156.45 66.1016 162.802C89.0875 176.068 126.487 176.068 149.471 162.802C162.314 155.386 168.348 145.208 166.016 134.818C164.55 124.049 159.39 96.1213 143.113 68.6951L107.724 71.6651V71.665ZM65.3605 164.082C53.8888 157.459 47.5701 148.606 47.5701 139.159C47.5701 137.671 47.7478 136.123 48.0901 134.62C49.5734 123.71 54.8168 95.331 71.4248 67.539L71.6617 67.1433L107.724 70.1889L143.911 67.1433L144.149 67.539C160.753 95.3268 166 123.709 167.472 134.557C169.946 145.563 163.653 156.323 150.212 164.082C138.516 170.835 123.151 174.212 107.787 174.212C92.4221 174.212 77.0588 170.835 65.3605 164.082Z" fill="#353535"/>
<path d="M82.0164 57.195C67.7839 65.4125 67.7839 78.7334 82.0164 86.9509C96.2485 95.1679 119.325 95.1679 133.556 86.9509C147.789 78.7351 147.789 65.4125 133.556 57.195C119.324 48.978 96.2485 48.978 82.0164 57.195V57.195Z" fill="#3EDA2B"/>
<path d="M82.3869 57.8368C75.7431 61.6721 72.083 66.7286 72.083 72.0723C72.083 77.4172 75.7431 82.4737 82.3869 86.309C96.3955 94.3945 119.183 94.3945 133.187 86.309C139.831 82.4737 143.489 77.4172 143.489 72.0735C143.489 66.7286 139.831 61.6721 133.186 57.8368C126.183 53.7928 116.985 51.7727 107.787 51.7727C98.5887 51.7727 89.3904 53.7928 82.3869 57.8368V57.8368ZM81.6459 87.5939C74.5252 83.4814 70.601 77.9688 70.601 72.0723C70.601 66.1757 74.5252 60.6656 81.6459 56.5535C96.0603 48.2323 119.513 48.2323 133.927 56.5535C141.049 60.6656 144.972 66.1758 144.972 72.0735C144.972 77.9689 141.05 83.4814 133.928 87.594C126.72 91.7553 117.255 93.8342 107.787 93.8342C98.3203 93.8342 88.8539 91.7536 81.6458 87.594L81.6459 87.5939Z" fill="#353535"/>
<path d="M71.6366 63.8688H71.613C71.613 63.8688 76.724 23.7695 107.787 23.7535C138.849 23.7372 143.959 63.8688 143.959 63.8688H143.938C145.226 70.0619 141.786 76.5189 133.556 81.2699C119.325 89.4869 96.2483 89.4869 82.0162 81.2699C73.787 76.5189 70.3475 70.0619 71.6366 63.8688V63.8688Z" fill="white"/>
<path d="M107.807 24.4952H107.787C80.2062 24.5103 73.4414 57.4239 72.4794 63.1306H72.5462L72.361 64.0212C71.0835 70.1593 74.7382 76.2129 82.3864 80.628C96.395 88.7148 119.182 88.7148 133.187 80.628C140.835 76.213 144.489 70.1594 143.212 64.0212L143.049 63.1306H143.095C142.133 57.4239 135.374 24.4952 107.807 24.4952H107.807ZM81.6453 81.9142C73.5509 77.2388 69.6342 70.7567 70.8406 64.0775L70.8789 63.7767C70.931 63.3692 76.4347 23.0313 107.786 23.0137H107.807C139.139 23.0137 144.643 63.3693 144.695 63.7767L144.716 63.9889C145.974 70.6987 142.057 77.2195 133.928 81.9142C126.72 86.0737 117.253 88.1531 107.786 88.1531C98.3197 88.1531 88.8533 86.0738 81.6453 81.9142H81.6453Z" fill="#353535"/>
<path d="M59.3237 118.307L59.322 118.318C59.322 118.318 40.0705 114.124 41.3895 99.0406C42.7069 83.9561 62.412 83.1887 62.412 83.1887L62.4104 83.2005C65.4718 82.8388 68.4611 84.7846 70.4174 88.9828C73.799 96.2458 72.8135 107.449 68.2166 114.009C65.5567 117.802 62.2755 119.198 59.3237 118.307Z" fill="#3EDA2B"/>
<path d="M62.4991 83.9353L61.6707 84.021V83.9887C58.0905 84.331 43.2266 86.5137 42.1256 99.1042C41.0422 111.52 54.8761 116.305 58.5823 117.358V117.308L59.5367 117.597C62.3004 118.425 65.2392 116.967 67.6101 113.584C72.065 107.228 73.0219 96.3313 69.7457 89.2967C68.1301 85.829 65.7474 83.8966 63.1317 83.8966C62.9229 83.8966 62.7107 83.91 62.499 83.9352L62.4991 83.9353ZM60.0644 119.233V119.237L59.9976 119.221C59.7648 119.184 59.5338 119.134 59.301 119.071L59.1645 119.04C58.9675 118.998 39.2921 114.528 40.6494 98.9752C42.0083 83.4207 62.1789 82.4562 62.3819 82.4486L62.4974 82.4457C65.9609 82.1092 69.0904 84.3797 71.0883 88.67C74.5648 96.133 73.5495 107.692 68.8224 114.435C66.5952 117.61 63.8609 119.313 61.0968 119.313C60.7532 119.313 60.4079 119.285 60.0643 119.233H60.0644Z" fill="#353535"/>
<path d="M126.066 51.1719C132.315 47.5651 134.737 42.4478 133.285 37.6896C133.212 37.4493 133.52 37.2864 133.667 37.4897C137.782 43.1696 140.345 49.5937 141.876 54.6829C143.212 60.5425 139.847 66.7974 132.05 71.2997C125.543 75.0577 117.067 76.9619 108.543 77.0404C105.199 77.0732 102.11 75.2639 100.487 72.3445L100.408 72.2008C98.1291 68.1018 98.2967 63.1075 100.829 59.1924C102.287 56.9412 104.776 55.5125 107.459 55.5336C114.183 55.5853 120.934 54.136 126.067 51.172L126.066 51.1719Z" fill="#3EDA2B"/>
<path d="M126.438 51.8163C121.445 54.6972 114.846 56.2767 107.818 56.2767C107.68 56.2767 107.555 56.2767 107.403 56.2754C105.055 56.2754 102.779 57.5436 101.453 59.5977C99.0609 63.2893 98.9097 67.9794 101.054 71.8412L101.136 71.9853C102.631 74.6763 105.392 76.3225 108.535 76.3002C117.3 76.2204 125.519 74.2154 131.68 70.6587C138.917 66.4827 142.459 60.5698 141.164 54.8954C139.961 50.8884 137.851 45.2304 134.43 39.9194C134.663 44.3931 131.813 48.7115 126.438 51.8163L126.438 51.8163ZM99.8406 72.7054L99.7591 72.56C97.3479 68.2198 97.5184 62.9453 100.208 58.7917C101.831 56.2843 104.514 54.7934 107.4 54.7934C107.541 54.7904 107.678 54.7946 107.818 54.7946C114.59 54.7946 120.928 53.2861 125.697 50.5326C131.41 47.2325 133.982 42.5125 132.576 37.9052C132.438 37.4502 132.646 36.9688 133.071 36.7584C133.491 36.5492 133.993 36.6769 134.267 37.0545C138.624 43.0683 141.195 49.8453 142.597 54.5178C144.055 60.9092 140.251 67.4224 132.421 71.942C126.044 75.6232 117.566 77.6996 108.55 77.7824H108.456C104.879 77.7824 101.585 75.8441 99.8406 72.7054V72.7054Z" fill="#353535"/>
<path d="M108.075 73.6114C116.599 73.5316 121.72 72.8082 128.715 69.0767C136.658 64.8398 140.707 59.8103 138.54 52.4599C137.479 48.9312 135.907 44.7641 133.679 40.6461C133.708 39.656 133.582 38.6647 133.284 37.6896C133.211 37.4493 133.519 37.2864 133.666 37.4897C137.781 43.1696 140.344 49.5937 141.875 54.6829C143.211 60.5425 139.846 66.7974 132.05 71.2997C125.542 75.0577 117.066 77.0404 108.542 77.0404C105.178 77.0404 102.666 74.622 100.948 72.8288C100.833 72.7061 100.96 72.5267 101.119 72.5801C103.929 73.5551 106.992 73.6219 108.075 73.6114H108.075Z" fill="#353535"/>
<path d="M134.426 40.4659C136.339 44.0374 138.006 48.1071 139.251 52.2502C141.346 59.3516 138.108 64.9074 129.064 69.7312C121.884 73.5618 116.577 74.273 108.083 74.3532C107.201 74.3637 105.233 74.3192 103.104 73.8819C104.679 75.2585 106.443 76.3003 108.542 76.3003C117.161 76.3003 125.379 74.297 131.68 70.6587C138.916 66.4798 142.458 60.5699 141.164 54.8955C139.959 50.8813 137.843 45.2128 134.414 39.8956C134.423 40.0855 134.427 40.2766 134.426 40.466V40.4659ZM100.412 73.3425C100.127 73.0417 100.082 72.591 100.303 72.2444C100.53 71.8932 100.962 71.742 101.363 71.8815C104.028 72.8061 106.937 72.8921 108.068 72.8712C116.318 72.7944 121.459 72.1096 128.366 68.4239C136.798 63.9266 139.716 59.0672 137.83 52.6729C136.595 48.562 134.934 44.5251 133.028 40.9994L132.935 40.823L132.939 40.6247C132.966 39.6968 132.844 38.7827 132.576 37.9052C132.438 37.4502 132.646 36.9688 133.071 36.7584C133.49 36.5492 133.993 36.6769 134.267 37.0545C138.623 43.0683 141.193 49.8436 142.597 54.5178C144.055 60.9075 140.251 67.4208 132.421 71.942C125.897 75.7093 117.418 77.7823 108.542 77.7823C105.138 77.7823 102.624 75.6484 100.412 73.3426L100.412 73.3425Z" fill="#353535"/>
<path d="M131.174 55.5335C131.379 58.1119 132.551 60.1229 133.793 60.0249C135.036 59.9274 135.878 57.7578 135.673 55.1777C135.469 52.5976 134.297 50.5867 133.055 50.6846C131.812 50.7837 130.972 52.9547 131.174 55.5335V55.5335Z" fill="white"/>
<path d="M133.113 51.4235C132.513 51.4722 131.726 53.1114 131.914 55.4751C132.003 56.5984 132.302 57.6666 132.735 58.4123C133.064 58.974 133.463 59.3011 133.735 59.2882C134.337 59.2408 135.122 57.5986 134.934 55.2378C134.751 52.9098 133.746 51.4236 133.141 51.4236H133.113L133.113 51.4235ZM131.455 59.1574C130.905 58.2135 130.543 56.9496 130.436 55.5919C130.192 52.5098 131.293 50.0822 132.997 49.9456C134.688 49.8184 136.169 52.0355 136.411 55.1192C136.656 58.203 135.555 60.6289 133.852 60.7655L133.701 60.7713C132.858 60.7713 132.064 60.2038 131.455 59.1574V59.1574Z" fill="#353535"/>
<path d="M108.259 64.4545C108.28 67.4081 110.671 69.7848 113.599 69.7642C116.527 69.7449 118.883 67.3337 118.864 64.3835C118.843 61.43 116.453 59.0528 113.525 59.0721C110.596 59.0927 108.24 61.5027 108.259 64.4545V64.4545Z" fill="white"/>
<path d="M113.53 59.8141C111.016 59.8317 108.984 61.9123 109 64.4508L108.259 64.4567L109 64.4508C109.009 65.6808 109.492 66.8369 110.361 67.7009C111.228 68.5633 112.311 69.0388 113.594 69.0241C116.108 69.0078 118.14 66.9271 118.123 64.3874C118.114 63.1557 117.631 62.0026 116.762 61.1389C115.903 60.2837 114.768 59.8141 113.563 59.8141H113.53H113.53ZM109.316 68.7516C108.169 67.609 107.53 66.087 107.518 64.4613C107.496 61.1062 110.187 58.356 113.52 58.332C115.177 58.335 116.657 58.9441 117.807 60.0884C118.954 61.2293 119.593 62.7529 119.605 64.3786C119.627 67.7333 116.936 70.4839 113.603 70.5062H113.561C111.961 70.5062 110.455 69.8836 109.316 68.7515L109.316 68.7516Z" fill="#353535"/>
<path d="M99.1649 129.174L102.793 117.978C103.231 116.622 104.513 115.744 105.937 115.765C124.902 116.063 138.348 109.086 143.476 105.906C144.832 105.065 146.595 105.322 147.639 106.531L152.065 111.663C154.907 114.956 157.009 118.842 158.107 123.05C164.278 146.708 158.827 156.647 158.738 156.807C156.314 159.113 153.382 161.292 149.931 163.285C136.256 171.18 117.578 174.422 99.7876 173.019C95.5062 161.127 96.2073 146.726 97.0562 138.922C97.4179 135.608 98.138 132.345 99.165 129.174H99.1649Z" fill="#3EDA2B" stroke="#353535" stroke-width="0.199403" stroke-miterlimit="10"/>
<path d="M157.389 123.239C156.346 119.234 154.31 115.398 151.504 112.147L147.076 107.015C146.272 106.082 144.921 105.88 143.865 106.534C138.874 109.633 125.254 116.786 105.923 116.507L105.882 116.505C104.782 116.505 103.826 117.184 103.497 118.206L99.8694 129.402C98.8394 132.584 98.14 135.814 97.7918 139.004C96.9814 146.444 96.2493 160.585 100.324 172.316C118.626 173.673 136.543 170.155 149.56 162.643C152.839 160.751 155.725 158.634 158.137 156.356C158.653 155.306 163.127 145.237 157.389 123.239L157.389 123.239ZM99.7305 173.756L99.2516 173.719L99.0902 173.268C94.7332 161.172 95.4831 146.506 96.3191 138.843C96.6774 135.553 97.3978 132.225 98.4601 128.946L102.087 117.749C102.624 116.091 104.206 115.019 105.947 115.024C124.886 115.309 138.204 108.304 143.084 105.276C144.763 104.233 146.913 104.557 148.198 106.047L152.626 111.18C155.58 114.602 157.722 118.642 158.823 122.864C165.018 146.611 159.62 156.746 159.387 157.166L159.249 157.344C156.734 159.737 153.724 161.949 150.301 163.925C138.898 170.509 123.831 174.083 108.022 174.083C105.276 174.083 102.506 173.978 99.7305 173.756V173.756Z" fill="#353535"/>
<path d="M153.089 152.415C153.089 153.722 153.829 154.78 154.74 154.78C155.651 154.78 156.391 153.722 156.391 152.415C156.391 151.109 155.651 150.05 154.74 150.05C153.829 150.05 153.089 151.109 153.089 152.415Z" fill="white"/>
<path d="M153.83 152.416C153.83 153.347 154.31 154.039 154.74 154.039C155.17 154.039 155.651 153.347 155.651 152.416C155.651 151.484 155.17 150.79 154.74 150.79C154.31 150.79 153.83 151.484 153.83 152.416ZM152.348 152.416C152.348 150.673 153.399 149.308 154.74 149.308C156.081 149.308 157.133 150.673 157.133 152.416C157.133 154.157 156.081 155.52 154.74 155.52C153.399 155.52 152.348 154.157 152.348 152.416Z" fill="#353535"/>
<path d="M144.159 113.544C144.771 114.698 145.909 115.292 146.702 114.873C147.494 114.452 147.64 113.174 147.027 112.02C146.413 110.867 145.275 110.271 144.484 110.692C143.691 111.113 143.546 112.389 144.159 113.544V113.544Z" fill="white"/>
<path d="M144.832 111.348C144.463 111.544 144.377 112.375 144.812 113.196C145.036 113.617 145.362 113.962 145.706 114.142C145.826 114.207 146.131 114.337 146.354 114.217C146.579 114.097 146.64 113.774 146.654 113.639C146.699 113.253 146.597 112.79 146.371 112.368C146.149 111.947 145.823 111.603 145.479 111.424C145.395 111.378 145.217 111.299 145.04 111.299L144.832 111.348V111.348ZM145.02 115.455C144.408 115.136 143.87 114.581 143.504 113.893C142.687 112.355 142.964 110.662 144.135 110.038C144.733 109.722 145.472 109.749 146.165 110.109C146.778 110.429 147.316 110.985 147.68 111.676C148.047 112.362 148.204 113.121 148.128 113.805C148.039 114.584 147.646 115.21 147.049 115.527C146.773 115.674 146.465 115.748 146.145 115.748C145.776 115.748 145.392 115.651 145.02 115.455L145.02 115.455Z" fill="#353535"/>
<path d="M103.339 166.413C103.339 167.72 104.399 168.78 105.706 168.78C107.012 168.78 108.071 167.72 108.071 166.413C108.071 165.106 107.012 164.047 105.706 164.047C104.399 164.047 103.339 165.106 103.339 166.413Z" fill="white" stroke="#353535" stroke-width="0.199403" stroke-miterlimit="10"/>
<path d="M104.08 166.413C104.08 167.31 104.809 168.037 105.706 168.037C106.601 168.037 107.33 167.31 107.33 166.413C107.33 165.518 106.601 164.789 105.706 164.789C104.809 164.789 104.08 165.518 104.08 166.413ZM102.598 166.413C102.598 164.7 103.993 163.307 105.706 163.307C107.419 163.307 108.812 164.7 108.812 166.413C108.812 168.125 107.419 169.519 105.706 169.519C103.993 169.519 102.598 168.125 102.598 166.413Z" fill="#353535"/>
<path d="M106.26 123.568C106.26 124.875 107.319 125.933 108.625 125.933C109.932 125.933 110.992 124.875 110.992 123.568C110.992 122.261 109.932 121.201 108.625 121.201C107.319 121.201 106.26 122.261 106.26 123.568Z" fill="white"/>
<path d="M107.001 123.567C107.001 124.46 107.731 125.191 108.625 125.191C109.522 125.191 110.251 124.46 110.251 123.567C110.251 122.67 109.522 121.941 108.625 121.941C107.731 121.941 107.001 122.67 107.001 123.567ZM105.519 123.567C105.519 121.853 106.912 120.459 108.625 120.459C110.34 120.459 111.733 121.853 111.733 123.567C111.733 125.278 110.34 126.673 108.625 126.673C106.912 126.673 105.519 125.278 105.519 123.567Z" fill="#353535"/>
<path d="M57.8412 118.48C67.6604 113.632 67.6369 99.5171 67.6306 98.9198L66.1491 98.9332C66.1503 99.0727 66.165 112.72 57.1847 117.152L57.8413 118.48L57.8412 118.48Z" fill="#353535"/>
<path d="M66.15 95.7721L67.6291 95.6624C67.6144 95.449 67.2128 90.4477 64.6444 86.9905L63.4543 87.8751C65.7631 90.9828 66.147 95.7251 66.15 95.7721V95.7721Z" fill="#353535"/>
<path d="M167.977 89.0103C168.031 88.7065 169.235 81.5472 161.453 76.4244L160.638 77.6603C167.611 82.2513 166.532 88.6813 166.52 88.7452L167.977 89.0103H167.977Z" fill="#353535"/>
<path d="M107.407 38.7634C116.641 38.7634 118.867 32.763 118.963 32.4875L117.565 31.991C117.475 32.243 115.252 38.1056 105.365 37.1835L105.229 38.6596C105.995 38.7305 106.721 38.7634 107.407 38.7634H107.407Z" fill="#353535"/>
<path d="M93.1029 168.076L93.2852 166.607C93.1373 166.587 78.3948 164.689 66.8597 157.694L66.0922 158.961C77.9046 166.124 92.9521 168.057 93.1029 168.076V168.076Z" fill="#353535"/>
<path d="M54.5917 147.53L55.4823 146.346C55.46 146.327 53.0799 144.467 52.0516 140.128L50.6095 140.467C51.7685 145.365 54.4746 147.444 54.5918 147.531L54.5917 147.53Z" fill="#353535"/>
<path d="M109.425 199.33C123.898 198.986 129.161 189.827 129.378 189.439L128.084 188.716C128.035 188.804 122.976 197.523 109.39 197.848L109.425 199.33V199.33Z" fill="#353535"/>
<path d="M108.61 228.642C116.386 228.642 120.46 223.661 120.644 223.431L119.488 222.505C119.305 222.729 114.974 227.987 106.647 227.049L106.481 228.521C107.219 228.605 107.929 228.642 108.61 228.642H108.61Z" fill="#353535"/>
<path d="M103.05 27.8487C100.439 29.3572 100.439 31.8007 103.05 33.3096C105.663 34.8164 109.896 34.8164 112.508 33.3096C115.12 31.8007 115.12 29.3572 112.508 27.8487C109.896 26.3414 105.663 26.3414 103.05 27.8487V27.8487Z" fill="#3EDA2B"/>
<path d="M103.422 28.4905C102.397 29.0819 101.832 29.8229 101.832 30.5786C101.832 31.336 102.397 32.077 103.422 32.6668C105.783 34.03 109.775 34.0316 112.139 32.6668C113.163 32.077 113.726 31.336 113.726 30.5786C113.726 29.8229 113.163 29.0819 112.139 28.4905C110.956 27.8091 109.368 27.4668 107.779 27.4668C106.192 27.4668 104.603 27.8091 103.422 28.4905V28.4905ZM102.681 33.9501C101.178 33.0844 100.35 31.8855 100.35 30.5786C100.35 29.2731 101.178 28.0742 102.681 27.2072C105.54 25.5563 110.02 25.5563 112.88 27.2072C114.381 28.0742 115.208 29.2731 115.208 30.5786C115.208 31.8855 114.381 33.0844 112.88 33.9501C111.45 34.7768 109.615 35.1889 107.781 35.1889C105.946 35.1889 104.111 34.7756 102.681 33.9501Z" fill="#353535"/>
<g filter="url(#filter2_d_702_3574)">
<path d="M89.2962 203.003L90.0532 201.732C89.9553 201.671 80.1067 195.715 75.8119 185.872L74.4546 186.465C78.9431 196.755 88.8736 202.754 89.2962 203.003Z" fill="#3EDA2B"/>
</g>
<g filter="url(#filter3_d_702_3574)">
<path d="M97.2613 205.94L97.6469 204.51C97.62 204.499 94.8681 203.754 91.8419 202.33L91.2106 203.671C94.3611 205.154 97.1458 205.907 97.2613 205.94Z" fill="#3EDA2B"/>
</g>
<g filter="url(#filter4_d_702_3574)">
<path d="M171.003 137.694L172.469 137.466C172.443 137.306 169.952 121.4 166.88 112.292L165.477 112.765C168.507 121.752 170.98 137.535 171.003 137.694H171.003Z" fill="#3EDA2B"/>
</g>
<g filter="url(#filter5_d_702_3574)">
<path d="M132.244 30.3294L133.296 29.2863C132.94 28.9276 124.428 20.4925 110.372 19L110.216 20.4748C123.751 21.9124 132.161 30.2449 132.244 30.3293V30.3294Z" fill="#3EDA2B"/>
</g>
<g filter="url(#filter6_d_702_3574)">
<path d="M28.0266 180.408C20.2525 176.007 17.0004 164.387 20.2524 154.162L21.9243 154.693C19.4239 162.656 22.2169 174.276 29.1859 179.092L28.0266 180.408Z" fill="#3EDA2B"/>
<path d="M22.0017 168.073C23.2583 172.575 25.6983 176.684 29.1822 179.093L28.026 180.405C20.2551 176.004 17.0037 164.388 20.254 154.165L21.9212 154.695C20.6716 158.676 20.745 163.571 22.0017 168.073Z" stroke="#3EDA2B" stroke-width="0.00492474"/>
</g>
<g filter="url(#filter7_d_702_3574)">
<path d="M29.3765 162.98C38.6298 197.265 112.455 176.626 192.205 131" stroke="#3EDA2B" stroke-width="2.07725" stroke-miterlimit="22.9256" shape-rendering="crispEdges"/>
</g>
<g filter="url(#filter8_d_702_3574)">
<path d="M33.4417 181.662C34.7384 182.439 36.0352 183.216 37.7764 183.729C39.5176 184.242 41.7037 184.49 43.8892 184.739" stroke="#3EDA2B" stroke-width="2.07725" stroke-miterlimit="22.9256" shape-rendering="crispEdges"/>
</g>
<defs>
<filter id="filter0_d_702_3574" x="77.467" y="0.479536" width="47.5059" height="40.095" filterUnits="userSpaceOnUse" color-interpolation-filters="sRGB">
<feFlood flood-opacity="0" result="BackgroundImageFix"/>
<feColorMatrix in="SourceAlpha" type="matrix" values="0 0 0 0 0 0 0 0 0 0 0 0 0 0 0 0 0 0 127 0" result="hardAlpha"/>
<feOffset/>
<feGaussianBlur stdDeviation="9.34763"/>
<feComposite in2="hardAlpha" operator="out"/>
<feColorMatrix type="matrix" values="0 0 0 0 0.0862745 0 0 0 0 0.780392 0 0 0 0 0.32549 0 0 0 0.84 0"/>
<feBlend mode="normal" in2="BackgroundImageFix" result="effect1_dropShadow_702_3574"/>
<feBlend mode="normal" in="SourceGraphic" in2="effect1_dropShadow_702_3574" result="shape"/>
</filter>
<filter id="filter1_d_702_3574" x="8.53435" y="87.7327" width="183.112" height="94.2129" filterUnits="userSpaceOnUse" color-interpolation-filters="sRGB">
<feFlood flood-opacity="0" result="BackgroundImageFix"/>
<feColorMatrix in="SourceAlpha" type="matrix" values="0 0 0 0 0 0 0 0 0 0 0 0 0 0 0 0 0 0 127 0" result="hardAlpha"/>
<feOffset/>
<feGaussianBlur stdDeviation="9.34763"/>
<feComposite in2="hardAlpha" operator="out"/>
<feColorMatrix type="matrix" values="0 0 0 0 0.0862745 0 0 0 0 0.780392 0 0 0 0 0.32549 0 0 0 0.84 0"/>
<feBlend mode="normal" in2="BackgroundImageFix" result="effect1_dropShadow_702_3574"/>
<feBlend mode="normal" in="SourceGraphic" in2="effect1_dropShadow_702_3574" result="shape"/>
</filter>
<filter id="filter2_d_702_3574" x="55.7593" y="167.177" width="52.9892" height="54.5215" filterUnits="userSpaceOnUse" color-interpolation-filters="sRGB">
<feFlood flood-opacity="0" result="BackgroundImageFix"/>
<feColorMatrix in="SourceAlpha" type="matrix" values="0 0 0 0 0 0 0 0 0 0 0 0 0 0 0 0 0 0 127 0" result="hardAlpha"/>
<feOffset/>
<feGaussianBlur stdDeviation="9.34763"/>
<feComposite in2="hardAlpha" operator="out"/>
<feColorMatrix type="matrix" values="0 0 0 0 0.0862745 0 0 0 0 0.780392 0 0 0 0 0.32549 0 0 0 0.84 0"/>
<feBlend mode="normal" in2="BackgroundImageFix" result="effect1_dropShadow_702_3574"/>
<feBlend mode="normal" in="SourceGraphic" in2="effect1_dropShadow_702_3574" result="shape"/>
</filter>
<filter id="filter3_d_702_3574" x="72.5153" y="183.634" width="43.8269" height="41.0006" filterUnits="userSpaceOnUse" color-interpolation-filters="sRGB">
<feFlood flood-opacity="0" result="BackgroundImageFix"/>
<feColorMatrix in="SourceAlpha" type="matrix" values="0 0 0 0 0 0 0 0 0 0 0 0 0 0 0 0 0 0 127 0" result="hardAlpha"/>
<feOffset/>
<feGaussianBlur stdDeviation="9.34763"/>
<feComposite in2="hardAlpha" operator="out"/>
<feColorMatrix type="matrix" values="0 0 0 0 0.0862745 0 0 0 0 0.780392 0 0 0 0 0.32549 0 0 0 0.84 0"/>
<feBlend mode="normal" in2="BackgroundImageFix" result="effect1_dropShadow_702_3574"/>
<feBlend mode="normal" in="SourceGraphic" in2="effect1_dropShadow_702_3574" result="shape"/>
</filter>
<filter id="filter4_d_702_3574" x="146.782" y="93.5967" width="44.3822" height="62.7924" filterUnits="userSpaceOnUse" color-interpolation-filters="sRGB">
<feFlood flood-opacity="0" result="BackgroundImageFix"/>
<feColorMatrix in="SourceAlpha" type="matrix" values="0 0 0 0 0 0 0 0 0 0 0 0 0 0 0 0 0 0 127 0" result="hardAlpha"/>
<feOffset/>
<feGaussianBlur stdDeviation="9.34763"/>
<feComposite in2="hardAlpha" operator="out"/>
<feColorMatrix type="matrix" values="0 0 0 0 0.0862745 0 0 0 0 0.780392 0 0 0 0 0.32549 0 0 0 0.84 0"/>
<feBlend mode="normal" in2="BackgroundImageFix" result="effect1_dropShadow_702_3574"/>
<feBlend mode="normal" in="SourceGraphic" in2="effect1_dropShadow_702_3574" result="shape"/>
</filter>
<filter id="filter5_d_702_3574" x="91.5209" y="0.304731" width="60.4701" height="48.7199" filterUnits="userSpaceOnUse" color-interpolation-filters="sRGB">
<feFlood flood-opacity="0" result="BackgroundImageFix"/>
<feColorMatrix in="SourceAlpha" type="matrix" values="0 0 0 0 0 0 0 0 0 0 0 0 0 0 0 0 0 0 127 0" result="hardAlpha"/>
<feOffset/>
<feGaussianBlur stdDeviation="9.34763"/>
<feComposite in2="hardAlpha" operator="out"/>
<feColorMatrix type="matrix" values="0 0 0 0 0.0862745 0 0 0 0 0.780392 0 0 0 0 0.32549 0 0 0 0.84 0"/>
<feBlend mode="normal" in2="BackgroundImageFix" result="effect1_dropShadow_702_3574"/>
<feBlend mode="normal" in="SourceGraphic" in2="effect1_dropShadow_702_3574" result="shape"/>
</filter>
<filter id="filter6_d_702_3574" x="0.304731" y="135.466" width="47.5765" height="63.6372" filterUnits="userSpaceOnUse" color-interpolation-filters="sRGB">
<feFlood flood-opacity="0" result="BackgroundImageFix"/>
<feColorMatrix in="SourceAlpha" type="matrix" values="0 0 0 0 0 0 0 0 0 0 0 0 0 0 0 0 0 0 127 0" result="hardAlpha"/>
<feOffset/>
<feGaussianBlur stdDeviation="9.34763"/>
<feComposite in2="hardAlpha" operator="out"/>
<feColorMatrix type="matrix" values="0 0 0 0 0.0862745 0 0 0 0 0.780392 0 0 0 0 0.32549 0 0 0 0.84 0"/>
<feBlend mode="normal" in2="BackgroundImageFix" result="effect1_dropShadow_702_3574"/>
<feBlend mode="normal" in="SourceGraphic" in2="effect1_dropShadow_702_3574" result="shape"/>
</filter>
<filter id="filter7_d_702_3574" x="9.67851" y="111.403" width="201.738" height="88.4132" filterUnits="userSpaceOnUse" color-interpolation-filters="sRGB">
<feFlood flood-opacity="0" result="BackgroundImageFix"/>
<feColorMatrix in="SourceAlpha" type="matrix" values="0 0 0 0 0 0 0 0 0 0 0 0 0 0 0 0 0 0 127 0" result="hardAlpha"/>
<feOffset/>
<feGaussianBlur stdDeviation="9.34763"/>
<feComposite in2="hardAlpha" operator="out"/>
<feColorMatrix type="matrix" values="0 0 0 0 0.0862745 0 0 0 0 0.780392 0 0 0 0 0.32549 0 0 0 0.84 0"/>
<feBlend mode="normal" in2="BackgroundImageFix" result="effect1_dropShadow_702_3574"/>
<feBlend mode="normal" in="SourceGraphic" in2="effect1_dropShadow_702_3574" result="shape"/>
</filter>
<filter id="filter8_d_702_3574" x="14.2124" y="162.075" width="48.4893" height="42.3905" filterUnits="userSpaceOnUse" color-interpolation-filters="sRGB">
<feFlood flood-opacity="0" result="BackgroundImageFix"/>
<feColorMatrix in="SourceAlpha" type="matrix" values="0 0 0 0 0 0 0 0 0 0 0 0 0 0 0 0 0 0 127 0" result="hardAlpha"/>
<feOffset/>
<feGaussianBlur stdDeviation="9.34763"/>
<feComposite in2="hardAlpha" operator="out"/>
<feColorMatrix type="matrix" values="0 0 0 0 0.0862745 0 0 0 0 0.780392 0 0 0 0 0.32549 0 0 0 0.84 0"/>
<feBlend mode="normal" in2="BackgroundImageFix" result="effect1_dropShadow_702_3574"/>
<feBlend mode="normal" in="SourceGraphic" in2="effect1_dropShadow_702_3574" result="shape"/>
</filter>
</defs>
</svg>
