<svg width="598" height="383" viewBox="0 0 598 383" fill="none" xmlns="http://www.w3.org/2000/svg">
<g filter="url(#filter0_d_806_3923)">
<path d="M110.529 31.9713C114.696 30.4454 124.303 30.2076 124.402 30.2058L124.351 28.0654C123.944 28.0739 114.294 28.3135 109.793 29.9594L110.529 31.9711V31.9713Z" fill="#008D26"/>
</g>
<path d="M242.826 147.192C196.44 153.188 -7.09508 160.041 13.3391 235.751" stroke="#008D26" stroke-width="3" stroke-miterlimit="22.9256"/>
<path d="M487.79 154.654L463.691 177.516L463.661 177.497L475.428 135.627L475.43 135.619L484.303 124.336L484.32 124.329L592.365 142.873L592.367 142.908L526.178 165.798L526.167 165.799L487.809 154.65L487.79 154.654Z" fill="#39A1FF"/>
<path d="M476.581 136.206L466.107 173.479L487.382 153.216L488.166 153.436L526.148 164.475L587.365 143.298L484.834 125.702L476.581 136.206L476.581 136.206ZM462.214 178.132L462.432 177.194L474.213 134.991L474.514 134.737L483.79 122.941L484.57 123.09L593.507 141.783L593.759 143.709L592.832 144.085L526.209 167.128L525.809 167.013L488.142 156.068L463.869 179.092L462.214 178.132Z" fill="#353535"/>
<path d="M592.287 142.875L475.438 135.624L475.424 135.614L451.971 98.8965L451.992 98.8678L592.292 142.842L592.287 142.875Z" fill="#333333"/>
<path d="M454.884 101.104L476.151 134.404L582.107 140.975L454.884 101.104V101.104ZM474.685 136.847L474.331 136.256L450.424 98.8255L451.529 97.3808L452.407 97.6739L593.713 141.959L593.386 144.151L592.21 144.139L474.685 136.848L474.685 136.847Z" fill="#353535"/>
<path d="M472.056 161.093L474.009 154.371L476.442 155.079L474.491 161.8L472.056 161.093Z" fill="#353535"/>
<path d="M474.986 151.011L479.465 135.594L481.896 136.301L477.419 151.719L474.986 151.011Z" fill="#353535"/>
<path d="M484.683 148.82L488.223 136.152L490.661 136.833L487.121 149.504L484.683 148.82Z" fill="#353535"/>
<path d="M542.615 190.245L541.079 188.233L548.308 182.712L549.845 184.725L542.615 190.245Z" fill="#39A1FF"/>
<path d="M552.666 182.571L551.129 180.559L564.222 170.56L565.76 172.574L552.666 182.571Z" fill="#39A1FF"/>
<path d="M501.981 148.957L502.067 147.013L507.818 147.264L507.735 149.21L501.981 148.957Z" fill="#39A1FF"/>
<path d="M463.69 177.558L522.715 176.334L522.724 176.301L487.808 154.656L487.786 154.657L463.678 177.527L463.69 177.558Z" fill="#353535"/>
<path d="M487.96 156.24L466.89 176.228L518.474 175.157L487.96 156.24ZM462.824 178.822L462.18 177.213L462.81 176.605L487.682 153.014L488.555 153.631L524.177 175.713L523.738 177.528L522.795 177.598L462.824 178.822L462.824 178.822Z" fill="#353535"/>
<path d="M592.381 142.925L516.119 200.262L516.093 200.258L487.813 154.672L487.824 154.646L592.37 142.892L592.381 142.925Z" fill="#333333"/>
<path d="M489.928 155.682L516.451 198.43L587.963 144.662L489.928 155.682L489.928 155.682ZM515.382 201.443L515.052 200.977L486.378 154.761L486.938 153.518L487.614 153.396L593.151 141.531L593.932 143.263L593.169 143.916L593.142 143.937L516.465 201.584L515.382 201.443L515.382 201.443Z" fill="#353535"/>
<path d="M567.225 161.758L561.817 152.474L564.008 151.2L569.411 160.483L567.225 161.758Z" fill="#353535"/>
<path d="M562.744 165.071L560.138 160.895L562.286 159.554L564.89 163.728L562.744 165.071Z" fill="#353535"/>
<path d="M488.157 175.264L494.448 169.309L496.181 171.158L489.889 177.113L488.157 175.264Z" fill="#39A1FF"/>
<path d="M487.422 168.823L491.021 165.439L492.756 167.285L489.156 170.671L487.422 168.823Z" fill="#39A1FF"/>
<path d="M480.494 175.343L485.738 170.408L487.473 172.254L482.231 177.188L480.494 175.343Z" fill="#39A1FF"/>
<path d="M106.352 91.3328H108.301V84.7559H106.352V91.3328Z" fill="#39A1FF"/>
<path d="M110.775 87.4356H112.725V80.8604H110.775V87.4356Z" fill="#39A1FF"/>
<path d="M133.224 331.643C133.271 331.839 133.384 331.998 133.556 332.107C135.897 333.592 152.45 344.929 140.244 361.37C132.077 372.371 133.598 377.764 135.906 380.266C136.449 380.855 135.904 381.786 135.131 381.578C129.474 380.054 120.128 375.048 125.297 358.695C131.912 337.768 116.059 345.389 116.65 354.66C116.697 355.416 115.796 355.827 115.285 355.273C111.807 351.514 105.765 342.35 116.633 331.942C129.603 319.52 132.762 329.716 133.224 331.643H133.224Z" fill="#F7EEC3"/>
<path d="M117.374 332.714C107.897 341.793 111.904 349.737 115.568 353.983C115.641 349.88 118.444 346.293 121.218 344.904C123.118 343.956 124.937 344.033 126.217 345.125C127.831 346.501 129.16 350.03 126.318 359.015C124.338 365.279 124.379 370.356 126.433 374.11C128.36 377.633 131.756 379.407 134.545 380.293C132.236 377.14 131.549 371.291 139.386 360.731C142.871 356.038 144.214 351.368 143.375 346.848C141.924 339.034 134.466 333.951 132.985 333.011C132.58 332.759 132.296 332.358 132.184 331.894H132.182C131.96 330.959 131.035 327.862 128.501 327.115C128.12 327.005 127.714 326.948 127.283 326.948C124.734 326.948 121.344 328.915 117.374 332.714L117.374 332.714ZM134.855 382.615C131.534 381.718 127.052 379.698 124.556 375.139C122.208 370.854 122.117 365.211 124.278 358.373C127.071 349.54 125.404 347.244 124.828 346.751C124.013 346.062 122.814 346.501 122.174 346.815C119.816 347.997 117.504 351.229 117.718 354.596C117.772 355.402 117.327 356.132 116.586 356.446C115.857 356.757 115.041 356.586 114.499 355.999C111.035 352.252 104.239 342.334 115.895 331.171C121.192 326.098 125.639 324.04 129.102 325.063C132.628 326.101 133.894 329.932 134.235 331.271C136.064 332.448 143.899 337.942 145.479 346.457C146.429 351.584 144.959 356.817 141.105 362.007C135.187 369.979 133.62 376.207 136.696 379.542C137.267 380.163 137.36 381.064 136.923 381.787C136.58 382.352 135.983 382.679 135.345 382.679L134.855 382.615L134.855 382.615Z" fill="#353535"/>
<path d="M116.424 341.976C118.2 338.143 117.736 336.028 116.895 334.879C116.21 333.948 116.394 332.658 117.342 331.994C120.837 329.561 126.222 325.867 127.515 325.88C125.126 336.846 133.124 337.89 134.436 344.784C135.842 352.164 125.237 360.513 124.936 360.669C125.103 360.018 125.258 359.378 125.477 358.689C130.811 341.815 121.541 343.506 118.059 349.653C117.134 347.62 114.682 345.739 116.424 341.976Z" fill="#E2DFA8"/>
<path d="M117.951 332.874C117.686 333.06 117.594 333.307 117.566 333.482C117.521 333.748 117.589 334.019 117.757 334.246C119.15 336.146 119.03 338.901 117.397 342.424C116.306 344.774 117.146 346.107 118.129 347.642C120.255 344.964 123.313 343.596 125.491 344.556C127.236 345.313 129.643 348.016 126.94 357.532C129.949 354.606 134.232 349.433 133.384 344.983C132.935 342.618 131.572 340.979 130.127 339.241C127.893 336.551 125.386 333.538 126.14 327.541C124.787 328.275 122.335 329.82 117.952 332.874H117.951ZM123.999 360.003C124.136 359.473 124.275 358.934 124.456 358.371C126.902 350.627 126.084 347.145 124.637 346.518C123.287 345.923 120.584 347.368 118.987 350.18L117.953 352.01L117.085 350.094C116.89 349.669 116.618 349.251 116.339 348.819C115.297 347.186 113.868 344.949 115.454 341.525C116.719 338.798 116.915 336.718 116.029 335.513C115.518 334.818 115.314 333.97 115.454 333.131C115.59 332.311 116.042 331.595 116.729 331.117C124.282 325.854 126.413 324.808 127.507 324.808H127.522L128.838 324.82L128.558 326.105C127.195 332.367 129.418 335.04 131.773 337.874C133.326 339.742 134.934 341.675 135.488 344.581C137.072 352.911 125.543 361.558 125.421 361.621L123.295 362.704L123.999 360.003H123.999Z" fill="#353535"/>
<path d="M181.604 108.661L181.597 108.648C181.597 108.648 205.758 99.2759 215.261 116.778C224.761 134.281 203.703 149.423 203.703 149.423L203.697 149.41C200.602 152.03 195.911 152.064 190.717 148.878C181.736 143.367 174.686 130.36 174.967 119.828C175.131 113.737 177.719 109.827 181.604 108.66V108.661Z" fill="#008D26"/>
<path d="M204.012 147.826C207.884 144.667 222.133 131.682 214.319 117.287C206.559 102.989 188.065 107.695 183.179 109.238L183.213 109.293L181.912 109.685C178.323 110.762 176.182 114.469 176.037 119.855C175.765 130.032 182.601 142.642 191.278 147.965C195.868 150.781 200.144 151.012 203.006 148.592L203.986 147.783L204.012 147.826L204.012 147.826ZM190.158 149.789C180.902 144.106 173.608 130.655 173.897 119.798C174.053 114.038 176.273 109.86 180.046 108.11L180.041 108.103L180.166 108.052C180.448 107.928 180.737 107.815 181.032 107.716L181.21 107.65C181.46 107.553 206.362 98.1473 216.2 116.266C226.039 134.385 204.547 150.135 204.328 150.292L204.202 150.379C202.52 151.734 200.506 152.408 198.295 152.408C195.779 152.408 193.001 151.533 190.158 149.789V149.789Z" fill="#353535"/>
<path d="M104.575 320.099H104.562C104.562 320.099 107.672 295.703 126.57 295.694C145.47 295.683 148.58 320.099 148.58 320.099H148.567C149.351 323.868 147.257 327.797 142.249 330.687C133.59 335.686 119.55 335.686 110.89 330.687C105.885 327.797 103.792 323.868 104.575 320.099H104.575Z" fill="#008D26"/>
<path d="M126.583 296.762H126.57C111.203 296.769 106.76 314.231 105.831 319.029H105.893L105.624 320.318C104.904 323.774 107.019 327.213 111.428 329.76C119.781 334.578 133.367 334.576 141.714 329.76C146.123 327.213 148.237 323.774 147.518 320.318L147.264 319.029H147.313C146.388 314.231 141.967 296.762 126.583 296.762H126.583ZM110.358 331.612C105.611 328.872 103.122 325.123 103.355 321.17H103.349L103.368 321.005C103.389 320.722 103.426 320.442 103.475 320.16L103.501 319.962C103.535 319.712 106.957 294.633 126.57 294.622H126.583C146.185 294.622 149.61 319.712 149.641 319.962L149.659 320.108C150.448 324.446 147.955 328.628 142.784 331.612C138.313 334.195 132.443 335.485 126.57 335.485C120.699 335.485 114.829 334.195 110.358 331.612H110.358Z" fill="#353535"/>
<path d="M136.717 259.28V296.76C136.753 298.285 135.767 299.82 133.749 300.986C129.785 303.272 123.36 303.272 119.397 300.986C117.415 299.841 116.424 298.343 116.424 296.843V259.175L136.717 259.28V259.28Z" fill="#F7EEC3"/>
<path d="M117.496 260.249V296.845C117.496 298.01 118.36 299.154 119.934 300.059C123.595 302.174 129.55 302.17 133.214 300.059C134.812 299.137 135.677 297.973 135.647 296.76V260.342L117.496 260.249ZM118.863 301.911C116.602 300.608 115.355 298.81 115.355 296.845V258.099L137.787 258.216V296.732C137.836 298.737 136.591 300.577 134.284 301.911C132.12 303.161 129.349 303.784 126.573 303.784C123.799 303.784 121.023 303.161 118.863 301.911V301.911Z" fill="#353535"/>
<path d="M178.784 235.028H178.816C178.816 235.028 171.333 292.927 126.473 292.869C81.6114 292.816 74.3324 234.841 74.3324 234.841H74.3664C72.5197 225.895 77.5041 216.581 89.4017 209.737C109.978 197.908 143.303 197.966 163.837 209.869C175.71 216.754 180.663 226.088 178.784 235.027V235.028Z" fill="#F7EEC3"/>
<path d="M177.483 236.015L177.736 234.808C179.598 225.945 174.335 217.196 163.298 210.797C143.09 199.079 110.178 199.025 89.9332 210.668C78.8746 217.026 73.582 225.759 75.4123 234.628L75.6453 235.914H75.5792C76.9509 244.152 86.614 291.75 126.473 291.799H126.536C166.436 291.799 176.221 244.032 177.578 236.021L177.483 236.015V236.015ZM126.469 293.94C81.1909 293.886 73.3448 235.565 73.272 234.977L73.2416 234.677C71.4355 224.98 77.1116 215.571 88.8678 208.813C109.703 196.83 143.572 196.889 164.372 208.945C176.041 215.708 181.684 225.07 179.938 234.703L179.878 235.165C179.801 235.754 171.76 293.944 126.536 293.94H126.469V293.94Z" fill="#353535"/>
<path d="M89.4161 209.966C68.8613 221.834 68.8613 241.072 89.4161 252.94C109.97 264.807 143.298 264.807 163.85 252.94C184.405 241.072 184.405 221.834 163.85 209.966C143.296 198.099 109.97 198.099 89.4161 209.966V209.966Z" fill="#F7EEC3"/>
<path d="M89.8985 210.729C80.3033 216.268 75.0173 223.57 75.0173 231.292C75.0173 239.008 80.3033 246.31 89.8985 251.851C110.13 263.53 143.04 263.53 163.265 251.851C172.86 246.31 178.144 239.008 178.144 231.292C178.144 223.57 172.86 216.268 163.263 210.729C153.15 204.891 139.866 201.971 126.582 201.971C113.297 201.971 100.013 204.891 89.8985 210.729V210.729ZM88.8283 253.703C78.5445 247.766 72.877 239.804 72.877 231.292C72.877 222.776 78.5445 214.812 88.8283 208.876C109.646 196.854 143.517 196.856 164.333 208.876C174.619 214.813 180.284 222.776 180.284 231.292C180.284 239.804 174.621 247.766 164.335 253.703C153.925 259.714 140.256 262.717 126.582 262.717C112.91 262.717 99.2381 259.713 88.8282 253.703H88.8283Z" fill="#353535"/>
<path d="M40.6876 201.351C40.6858 199.206 40.9467 197.064 41.4241 194.936C43.5238 179.505 51.0381 138.541 74.9848 98.4639L126.581 102.808L178.177 98.4639C202.125 138.541 209.636 179.506 211.738 194.936C215.049 209.672 206.923 225.098 187.316 236.418C153.775 255.783 99.3876 255.783 65.8457 236.416C49.073 226.733 40.6875 214.042 40.6875 201.351H40.6876Z" fill="#F7EEC3"/>
<path d="M126.491 103.873L75.562 99.5838C52.0496 139.202 44.5996 179.53 42.4702 195.171C41.997 197.281 41.7555 199.361 41.7555 201.349C41.7555 214.197 50.5001 226.321 66.3787 235.494C99.5754 254.653 153.588 254.653 186.783 235.494C205.33 224.784 214.045 210.086 210.677 195.08C208.56 179.527 201.107 139.193 177.599 99.584L126.491 103.873V103.873ZM65.3085 237.343C48.7408 227.779 39.6152 214.993 39.6152 201.349C39.6152 199.2 39.8719 196.964 40.3663 194.794C42.5085 179.037 50.081 138.052 74.0666 97.9143L74.4088 97.3428L126.491 101.741L178.753 97.3428L179.096 97.9143C203.076 138.046 210.653 179.035 212.78 194.703C216.352 210.597 207.265 226.137 187.853 237.343C170.961 247.096 148.771 251.974 126.581 251.974C104.391 251.974 82.2033 247.096 65.3085 237.343Z" fill="#353535"/>
<path d="M89.3634 82.9756C68.8086 94.8434 68.8086 114.082 89.3634 125.95C109.917 137.817 143.245 137.817 163.798 125.95C184.352 114.084 184.352 94.8434 163.798 82.9756C143.243 71.1084 109.918 71.1084 89.3634 82.9756V82.9756Z" fill="#008D26"/>
<path d="M89.8985 83.9027C80.3033 89.4417 75.0173 96.7443 75.0173 104.462C75.0173 112.181 80.3033 119.484 89.8985 125.023C110.13 136.7 143.04 136.7 163.265 125.023C172.86 119.484 178.144 112.181 178.144 104.464C178.144 96.7443 172.86 89.4417 163.263 83.9027C153.15 78.0622 139.866 75.1447 126.582 75.1447C113.297 75.1447 100.013 78.0622 89.8985 83.9027V83.9027ZM88.8283 126.878C78.5445 120.939 72.877 112.978 72.877 104.462C72.877 95.9458 78.5445 87.9881 88.8283 82.0494C109.646 70.0317 143.517 70.0317 164.333 82.0494C174.619 87.9881 180.284 95.9459 180.284 104.464C180.284 112.978 174.621 120.939 164.335 126.878C153.925 132.888 140.256 135.891 126.582 135.891C112.91 135.891 99.2381 132.886 88.8282 126.878L88.8283 126.878Z" fill="#353535"/>
<path d="M74.3726 92.6138H74.3386C74.3386 92.6138 81.72 34.7018 126.581 34.6787C171.442 34.6551 178.822 92.6138 178.822 92.6138H178.792C180.651 101.558 175.684 110.883 163.797 117.745C143.245 129.612 109.917 129.612 89.363 117.745C77.4783 110.883 72.5108 101.558 74.3726 92.6138V92.6138Z" fill="#F7EEC3"/>
<path d="M126.611 35.7491H126.581C86.749 35.7709 76.9791 83.3052 75.5898 91.5469H75.6863L75.4188 92.8331C73.5739 101.698 78.852 110.441 89.8977 116.817C110.129 128.496 143.039 128.496 163.264 116.817C174.31 110.441 179.588 101.698 177.743 92.8331L177.507 91.5469H177.573C176.185 83.3052 166.423 35.7491 126.611 35.7491H126.611ZM88.8274 118.674C77.1373 111.922 71.4808 102.561 73.2231 92.9144L73.2783 92.48C73.3535 91.8914 81.3022 33.6348 126.581 33.6094H126.61C171.861 33.6094 179.81 91.8915 179.885 92.48L179.915 92.7864C181.732 102.477 176.075 111.894 164.334 118.674C153.924 124.682 140.252 127.685 126.581 127.685C112.909 127.685 99.2373 124.682 88.8273 118.674H88.8274Z" fill="#353535"/>
<path d="M56.5901 171.235L56.5877 171.25C56.5877 171.25 28.7843 165.193 30.6893 143.41C32.5919 121.624 61.0504 120.516 61.0504 120.516L61.048 120.533C65.4694 120.011 69.7865 122.821 72.6118 128.884C77.4956 139.373 76.0723 155.553 69.4334 165.028C65.592 170.505 60.8532 172.521 56.5901 171.235Z" fill="#008D26"/>
<path d="M61.1761 121.594L59.9797 121.718V121.671C54.809 122.166 33.3424 125.318 31.7523 143.501C30.1877 161.432 50.1667 168.343 55.5194 169.864V169.791L56.8977 170.209C60.889 171.405 65.1334 169.299 68.5574 164.413C74.9912 155.234 76.3732 139.497 71.6417 129.337C69.3084 124.329 65.8673 121.538 62.0896 121.538C61.7881 121.538 61.4817 121.558 61.1759 121.594L61.1761 121.594ZM57.6598 172.572V172.578L57.5633 172.555C57.2272 172.501 56.8935 172.428 56.5574 172.338L56.3602 172.293C56.0757 172.232 27.6602 165.777 29.6204 143.315C31.583 120.851 60.7137 119.458 61.0068 119.447L61.1735 119.443C66.1756 118.957 70.6953 122.236 73.5807 128.432C78.6016 139.21 77.1353 155.903 70.3083 165.642C67.0917 170.228 63.1428 172.687 59.1509 172.687C58.6546 172.687 58.1559 172.647 57.6596 172.572H57.6598Z" fill="#353535"/>
<path d="M152.981 74.2769C162.006 69.0679 165.503 61.6774 163.406 54.8056C163.301 54.4585 163.746 54.2232 163.958 54.5169C169.901 62.7198 173.602 71.9977 175.813 79.3475C177.743 87.81 172.883 96.8435 161.623 103.346C152.225 108.773 139.984 111.523 127.673 111.637C122.844 111.684 118.382 109.071 116.039 104.855L115.925 104.647C112.633 98.7272 112.875 91.5145 116.533 85.8602C118.639 82.609 122.232 80.5457 126.108 80.5761C135.819 80.6507 145.569 78.5576 152.981 74.277L152.981 74.2769Z" fill="#008D26"/>
<path d="M153.518 75.2071C146.307 79.3676 136.777 81.6487 126.626 81.6487C126.427 81.6487 126.247 81.6487 126.027 81.6469C122.637 81.6469 119.349 83.4785 117.434 86.445C113.979 91.7765 113.761 98.55 116.858 104.127L116.976 104.335C119.135 108.222 123.122 110.599 127.662 110.567C140.321 110.452 152.191 107.556 161.088 102.419C171.541 96.3884 176.656 87.8489 174.785 79.6539C173.047 73.8669 170 65.6955 165.06 58.0253C165.396 64.4863 161.28 70.723 153.518 75.2069L153.518 75.2071ZM115.105 105.375L114.988 105.165C111.505 98.8972 111.752 91.2797 115.636 85.2809C117.979 81.6597 121.855 79.5065 126.022 79.5065C126.226 79.5023 126.425 79.5084 126.626 79.5084C136.407 79.5084 145.56 77.3297 152.447 73.353C160.698 68.5869 164.413 61.7703 162.382 55.1163C162.183 54.4593 162.483 53.764 163.098 53.4601C163.703 53.158 164.429 53.3424 164.824 53.8878C171.117 62.5729 174.83 72.3604 176.855 79.1085C178.96 88.3392 173.467 97.7456 162.158 104.273C152.948 109.589 140.704 112.588 127.683 112.708H127.548C122.382 112.708 117.624 109.908 115.105 105.375V105.375Z" fill="#353535"/>
<path d="M126.998 106.684C139.308 106.569 146.704 105.524 156.806 100.135C168.278 94.0163 174.125 86.7525 170.996 76.137C169.464 71.0408 167.193 65.0226 163.976 59.0754C164.017 57.6455 163.835 56.2137 163.405 54.8056C163.3 54.4585 163.745 54.2232 163.957 54.5169C169.9 62.7198 173.601 71.9977 175.812 79.3475C177.742 87.81 172.882 96.8435 161.622 103.346C152.224 108.773 139.983 111.637 127.672 111.637C122.814 111.637 119.186 108.144 116.705 105.554C116.538 105.377 116.723 105.118 116.951 105.195C121.009 106.603 125.433 106.7 126.998 106.684H126.998Z" fill="#F7EEC3"/>
<path d="M165.054 58.8146C167.816 63.9726 170.224 69.8501 172.022 75.8337C175.049 86.0895 170.372 94.1134 157.31 101.08C146.941 106.612 139.276 107.639 127.009 107.755C125.736 107.77 122.893 107.706 119.818 107.075C122.093 109.063 124.64 110.567 127.673 110.567C140.12 110.567 151.988 107.674 161.088 102.42C171.538 96.3843 176.654 87.8491 174.785 79.654C173.045 73.8566 169.989 65.6701 165.037 57.9909C165.049 58.2651 165.055 58.5412 165.054 58.8147V58.8146ZM115.931 106.295C115.518 105.861 115.454 105.21 115.773 104.71C116.1 104.202 116.725 103.984 117.303 104.185C121.153 105.521 125.354 105.645 126.988 105.615C138.902 105.504 146.327 104.515 156.302 99.192C168.48 92.6969 172.694 85.6789 169.969 76.444C168.187 70.5071 165.788 64.677 163.035 59.5851L162.9 59.3303L162.907 59.044C162.945 57.7038 162.77 56.3837 162.382 55.1163C162.183 54.4593 162.483 53.764 163.097 53.4601C163.703 53.158 164.428 53.3424 164.824 53.8878C171.115 62.5729 174.828 72.3581 176.854 79.1085C178.96 88.3367 173.467 97.7432 162.158 104.273C152.737 109.714 140.49 112.708 127.672 112.708C122.756 112.708 119.124 109.626 115.931 106.296L115.931 106.295Z" fill="#353535"/>
<path d="M160.358 80.5762C160.654 84.3 162.346 87.2042 164.14 87.0628C165.935 86.922 167.151 83.7885 166.856 80.0624C166.561 76.3361 164.867 73.432 163.074 73.5733C161.278 73.7165 160.065 76.8518 160.358 80.5762V80.5762Z" fill="#F7EEC3"/>
<path d="M163.157 74.6399C162.291 74.7102 161.154 77.0776 161.426 80.4913C161.554 82.1136 161.987 83.6563 162.612 84.7333C163.087 85.5444 163.663 86.0169 164.056 85.9982C164.925 85.9297 166.06 83.5582 165.788 80.1486C165.523 76.7864 164.072 74.64 163.198 74.64H163.157L163.157 74.6399ZM160.763 85.8094C159.969 84.4461 159.446 82.6208 159.292 80.66C158.939 76.2088 160.529 72.7029 162.99 72.5056C165.432 72.3218 167.571 75.5238 167.921 79.9774C168.275 84.431 166.684 87.9345 164.226 88.1318L164.007 88.1402C162.79 88.1402 161.642 87.3206 160.763 85.8094V85.8094Z" fill="#353535"/>
<path d="M127.264 93.46C127.294 97.7256 130.746 101.158 134.975 101.128C139.204 101.101 142.607 97.6181 142.579 93.3575C142.549 89.0919 139.097 85.6587 134.868 85.6867C130.639 85.7164 127.236 89.1969 127.264 93.46V93.46Z" fill="#F7EEC3"/>
<path d="M134.876 86.7576C131.245 86.783 128.31 89.7879 128.334 93.4541L127.264 93.4625L128.334 93.4541C128.347 95.2304 129.044 96.9 130.298 98.1479C131.551 99.3934 133.115 100.08 134.969 100.059C138.598 100.035 141.533 97.0303 141.509 93.3624C141.496 91.5836 140.799 89.9182 139.544 88.671C138.303 87.4358 136.664 86.7576 134.924 86.7576H134.876H134.876ZM128.79 99.6652C127.133 98.0151 126.211 95.8171 126.194 93.4692C126.161 88.6237 130.048 84.6518 134.862 84.6172C137.254 84.6214 139.392 85.5012 141.053 87.1537C142.71 88.8015 143.632 91.0019 143.649 93.3497C143.682 98.1947 139.795 102.167 134.981 102.199H134.921C132.61 102.199 130.435 101.3 128.789 99.6651L128.79 99.6652Z" fill="#353535"/>
<path d="M114.129 186.928L119.369 170.759C120.002 168.801 121.854 167.533 123.91 167.564C151.299 167.994 170.719 157.918 178.124 153.324C180.082 152.109 182.629 152.481 184.136 154.228L190.529 161.64C194.634 166.395 197.669 172.007 199.255 178.085C208.167 212.252 200.294 226.606 200.166 226.837C196.665 230.167 192.431 233.313 187.447 236.192C167.697 247.595 140.722 252.276 115.029 250.251C108.845 233.076 109.858 212.277 111.084 201.007C111.606 196.221 112.646 191.509 114.129 186.928H114.129Z" fill="#008D26" stroke="#353535" stroke-width="0.287981" stroke-miterlimit="10"/>
<path d="M198.217 178.356C196.711 172.574 193.77 167.033 189.719 162.337L183.324 154.925C182.162 153.579 180.212 153.286 178.686 154.232C171.477 158.707 151.807 169.038 123.89 168.634L123.83 168.632C122.242 168.632 120.861 169.612 120.386 171.089L115.147 187.258C113.659 191.853 112.649 196.519 112.146 201.125C110.976 211.871 109.919 232.292 115.804 249.235C142.236 251.195 168.111 246.114 186.911 235.265C191.647 232.532 195.814 229.476 199.298 226.185C200.044 224.669 206.505 210.126 198.217 178.357L198.217 178.356ZM114.946 251.315L114.255 251.261L114.022 250.61C107.729 233.14 108.812 211.96 110.019 200.893C110.537 196.142 111.577 191.335 113.112 186.599L118.349 170.429C119.126 168.034 121.41 166.485 123.924 166.493C151.276 166.904 170.51 156.787 177.558 152.415C179.983 150.908 183.089 151.377 184.944 153.528L191.339 160.942C195.605 165.883 198.699 171.717 200.289 177.815C209.235 212.112 201.439 226.749 201.103 227.354L200.904 227.612C197.272 231.068 192.925 234.263 187.981 237.116C171.512 246.625 149.753 251.787 126.921 251.787C122.955 251.787 118.955 251.635 114.946 251.315V251.315Z" fill="#353535"/>
<path d="M192.008 220.493C192.008 222.381 193.076 223.909 194.392 223.909C195.708 223.909 196.776 222.381 196.776 220.493C196.776 218.607 195.708 217.077 194.392 217.077C193.076 217.077 192.008 218.607 192.008 220.493Z" fill="#F7EEC3"/>
<path d="M193.078 220.495C193.078 221.839 193.771 222.839 194.392 222.839C195.013 222.839 195.708 221.839 195.708 220.495C195.708 219.149 195.013 218.147 194.392 218.147C193.771 218.147 193.078 219.149 193.078 220.495ZM190.938 220.495C190.938 217.978 192.455 216.007 194.392 216.007C196.328 216.007 197.848 217.978 197.848 220.495C197.848 223.01 196.328 224.978 194.392 224.978C192.455 224.978 190.938 223.01 190.938 220.495Z" fill="#353535"/>
<path d="M179.111 164.355C179.995 166.022 181.639 166.88 182.783 166.275C183.926 165.667 184.138 163.822 183.252 162.155C182.366 160.489 180.723 159.629 179.58 160.237C178.435 160.845 178.225 162.687 179.111 164.355V164.355Z" fill="#F7EEC3"/>
<path d="M180.082 161.184C179.549 161.466 179.425 162.667 180.054 163.853C180.378 164.46 180.848 164.959 181.345 165.218C181.518 165.313 181.959 165.501 182.28 165.328C182.605 165.154 182.693 164.688 182.715 164.493C182.779 163.935 182.631 163.267 182.306 162.657C181.985 162.049 181.514 161.552 181.018 161.293C180.896 161.227 180.638 161.114 180.384 161.114L180.082 161.184V161.184ZM180.354 167.115C179.47 166.654 178.693 165.852 178.164 164.859C176.985 162.637 177.386 160.193 179.076 159.292C179.939 158.836 181.007 158.875 182.008 159.395C182.892 159.857 183.67 160.66 184.195 161.657C184.726 162.648 184.953 163.744 184.842 164.732C184.714 165.857 184.146 166.762 183.284 167.22C182.886 167.431 182.441 167.538 181.979 167.538C181.445 167.538 180.892 167.397 180.354 167.115L180.354 167.115Z" fill="#353535"/>
<path d="M120.158 240.71C120.158 242.597 121.688 244.127 123.576 244.127C125.462 244.127 126.992 242.597 126.992 240.71C126.992 238.822 125.462 237.292 123.576 237.292C121.688 237.292 120.158 238.822 120.158 240.71Z" fill="#F7EEC3" stroke="#353535" stroke-width="0.287981" stroke-miterlimit="10"/>
<path d="M121.228 240.71C121.228 242.005 122.281 243.055 123.576 243.055C124.868 243.055 125.921 242.005 125.921 240.71C125.921 239.417 124.868 238.364 123.576 238.364C122.281 238.364 121.228 239.417 121.228 240.71ZM119.088 240.71C119.088 238.235 121.102 236.224 123.576 236.224C126.05 236.224 128.062 238.235 128.062 240.71C128.062 243.182 126.05 245.196 123.576 245.196C121.102 245.196 119.088 243.182 119.088 240.71Z" fill="#353535"/>
<path d="M124.376 178.831C124.376 180.719 125.906 182.248 127.792 182.248C129.68 182.248 131.21 180.719 131.21 178.831C131.21 176.944 129.68 175.414 127.792 175.414C125.906 175.414 124.376 176.944 124.376 178.831Z" fill="#F7EEC3"/>
<path d="M125.447 178.83C125.447 180.121 126.5 181.176 127.792 181.176C129.088 181.176 130.14 180.121 130.14 178.83C130.14 177.536 129.088 176.483 127.792 176.483C126.5 176.483 125.447 177.536 125.447 178.83ZM123.307 178.83C123.307 176.356 125.318 174.343 127.792 174.343C130.269 174.343 132.281 176.356 132.281 178.83C132.281 181.303 130.269 183.317 127.792 183.317C125.318 183.317 123.307 181.303 123.307 178.83Z" fill="#353535"/>
<path d="M54.4491 171.485C68.6302 164.483 68.5962 144.098 68.5871 143.235L66.4475 143.255C66.4493 143.456 66.4705 163.165 53.501 169.567L54.4492 171.485L54.4491 171.485Z" fill="#353535"/>
<path d="M66.4487 138.689L68.5849 138.531C68.5636 138.223 67.9837 131 64.2744 126.007L62.5557 127.284C65.89 131.773 66.4445 138.621 66.4487 138.689V138.689Z" fill="#353535"/>
<path d="M213.509 128.924C213.588 128.485 215.326 118.145 204.088 110.747L202.91 112.532C212.98 119.162 211.422 128.449 211.405 128.541L213.509 128.924H213.509Z" fill="#353535"/>
<path d="M126.033 56.356C139.368 56.356 142.583 47.6902 142.722 47.2923L140.704 46.5752C140.573 46.9392 137.363 55.406 123.083 54.0743L122.887 56.2061C123.993 56.3086 125.042 56.356 126.033 56.356H126.033Z" fill="#353535"/>
<path d="M105.375 243.112L105.638 240.989C105.424 240.962 84.1329 238.22 67.4737 228.118L66.3652 229.948C83.425 240.292 105.157 243.084 105.375 243.112V243.112Z" fill="#353535"/>
<path d="M49.7561 213.439L51.0423 211.729C51.0101 211.701 47.5727 209.015 46.0876 202.748L44.0049 203.238C45.6787 210.312 49.5869 213.315 49.7562 213.439L49.7561 213.439Z" fill="#353535"/>
<path d="M128.947 288.248C149.849 287.751 157.451 274.525 157.763 273.964L155.895 272.92C155.824 273.046 148.518 285.639 128.896 286.108L128.947 288.248V288.248Z" fill="#353535"/>
<path d="M127.77 330.582C139 330.582 144.884 323.389 145.149 323.057L143.48 321.72C143.216 322.042 136.96 329.636 124.935 328.282L124.695 330.407C125.761 330.529 126.786 330.582 127.771 330.582H127.77Z" fill="#353535"/>
<path d="M119.74 40.5926C115.969 42.7712 115.969 46.3001 119.74 48.4793C123.513 50.6554 129.628 50.6554 133.399 48.4793C137.173 46.3001 137.173 42.7712 133.399 40.5926C129.628 38.4158 123.513 38.4158 119.74 40.5926V40.5926Z" fill="#008D26"/>
<path d="M120.277 41.5195C118.797 42.3737 117.981 43.4438 117.981 44.5353C117.981 45.6291 118.796 46.6993 120.277 47.5511C123.687 49.5197 129.453 49.5221 132.867 47.5511C134.345 46.6993 135.159 45.6291 135.159 44.5353C135.159 43.4438 134.345 42.3737 132.867 41.5195C131.159 40.5355 128.864 40.041 126.57 40.041C124.278 40.041 121.983 40.5355 120.277 41.5195V41.5195ZM119.207 49.4044C117.037 48.1541 115.841 46.4226 115.841 44.5353C115.841 42.6497 117.037 40.9183 119.207 39.6661C123.336 37.2819 129.806 37.2819 133.937 39.6661C136.104 40.9183 137.299 42.6497 137.299 44.5353C137.299 46.4226 136.104 48.1541 133.937 49.4044C131.871 50.5984 129.222 51.1935 126.572 51.1935C123.922 51.1935 121.273 50.5965 119.207 49.4044Z" fill="#353535"/>
<g filter="url(#filter1_d_806_3923)">
<path d="M161.902 44.1756L163.422 42.6691C162.908 42.1511 150.615 29.969 130.315 27.8135L130.09 29.9435C149.636 32.0196 161.783 44.0535 161.902 44.1754V44.1756Z" fill="#008D26"/>
</g>
<path d="M10.2274 251.968L10.2252 251.97L10.195 251.939L10.2274 251.968ZM10.2274 251.968L11.897 250.072C11.7855 249.974 11.6749 249.875 11.5653 249.775M10.2274 251.968C1.55553 244.335 -1.79126 232.286 1.69937 221.275L3.86961 214.434L6.27743 215.199L4.10776 222.037L4.11063 222.038L4.10776 222.037C0.981508 231.901 3.86023 242.672 11.4413 249.662M11.5653 249.775L11.8836 250.056C11.7805 249.965 11.6783 249.873 11.5769 249.781L11.4413 249.662M11.5653 249.775C11.5238 249.738 11.4825 249.7 11.4413 249.662M11.5653 249.775L6.09467 244.956L11.4413 249.662" fill="#008D26" stroke="#008D26" stroke-width="0.00711239"/>
<path d="M13.3398 235.753C26.7037 285.266 330.156 251.805 445.332 185.911" stroke="#008D26" stroke-width="3" stroke-miterlimit="22.9256"/>
<path d="M304.53 245.344C330.966 239.652 363.559 231.792 406.979 215.521" stroke="#008D26" stroke-width="3" stroke-miterlimit="22.9256"/>
<path d="M421.385 209.754C431.632 205.796 448.653 198.482 462.275 190.689" stroke="#008D26" stroke-width="3" stroke-miterlimit="22.9256"/>
<path d="M17.2109 254.731C19.0837 255.854 20.9566 256.977 23.4712 257.718C25.9859 258.458 29.1431 258.817 32.2995 259.175" stroke="#008D26" stroke-width="3" stroke-miterlimit="22.9256"/>
<g filter="url(#filter2_d_806_3923)">
<path d="M99.8768 293.553L100.97 291.717C100.829 291.63 86.6052 283.028 80.4026 268.812L78.4424 269.668C84.9247 284.53 99.2665 293.194 99.8768 293.553Z" fill="#008D26"/>
</g>
<g filter="url(#filter3_d_806_3923)">
<path d="M111.38 297.795L111.937 295.73C111.898 295.715 107.924 294.638 103.553 292.581L102.642 294.518C107.192 296.66 111.213 297.747 111.38 297.795Z" fill="#008D26"/>
</g>
<g filter="url(#filter4_d_806_3923)">
<path d="M217.879 199.234L219.996 198.904C219.959 198.673 216.362 175.702 211.925 162.548L209.898 163.231C214.275 176.211 217.845 199.004 217.879 199.234H217.879Z" fill="#008D26"/>
</g>
<defs>
<filter id="filter0_d_806_3923" x="82.793" y="1.06543" width="68.6086" height="57.9059" filterUnits="userSpaceOnUse" color-interpolation-filters="sRGB">
<feFlood flood-opacity="0" result="BackgroundImageFix"/>
<feColorMatrix in="SourceAlpha" type="matrix" values="0 0 0 0 0 0 0 0 0 0 0 0 0 0 0 0 0 0 127 0" result="hardAlpha"/>
<feOffset/>
<feGaussianBlur stdDeviation="13.5"/>
<feComposite in2="hardAlpha" operator="out"/>
<feColorMatrix type="matrix" values="0 0 0 0 0.0862745 0 0 0 0 0.780392 0 0 0 0 0.32549 0 0 0 0.84 0"/>
<feBlend mode="normal" in2="BackgroundImageFix" result="effect1_dropShadow_806_3923"/>
<feBlend mode="normal" in="SourceGraphic" in2="effect1_dropShadow_806_3923" result="shape"/>
</filter>
<filter id="filter1_d_806_3923" x="103.09" y="0.813477" width="87.332" height="70.3621" filterUnits="userSpaceOnUse" color-interpolation-filters="sRGB">
<feFlood flood-opacity="0" result="BackgroundImageFix"/>
<feColorMatrix in="SourceAlpha" type="matrix" values="0 0 0 0 0 0 0 0 0 0 0 0 0 0 0 0 0 0 127 0" result="hardAlpha"/>
<feOffset/>
<feGaussianBlur stdDeviation="13.5"/>
<feComposite in2="hardAlpha" operator="out"/>
<feColorMatrix type="matrix" values="0 0 0 0 0.0862745 0 0 0 0 0.780392 0 0 0 0 0.32549 0 0 0 0.84 0"/>
<feBlend mode="normal" in2="BackgroundImageFix" result="effect1_dropShadow_806_3923"/>
<feBlend mode="normal" in="SourceGraphic" in2="effect1_dropShadow_806_3923" result="shape"/>
</filter>
<filter id="filter2_d_806_3923" x="51.4424" y="241.812" width="76.5278" height="78.7408" filterUnits="userSpaceOnUse" color-interpolation-filters="sRGB">
<feFlood flood-opacity="0" result="BackgroundImageFix"/>
<feColorMatrix in="SourceAlpha" type="matrix" values="0 0 0 0 0 0 0 0 0 0 0 0 0 0 0 0 0 0 127 0" result="hardAlpha"/>
<feOffset/>
<feGaussianBlur stdDeviation="13.5"/>
<feComposite in2="hardAlpha" operator="out"/>
<feColorMatrix type="matrix" values="0 0 0 0 0.0862745 0 0 0 0 0.780392 0 0 0 0 0.32549 0 0 0 0.84 0"/>
<feBlend mode="normal" in2="BackgroundImageFix" result="effect1_dropShadow_806_3923"/>
<feBlend mode="normal" in="SourceGraphic" in2="effect1_dropShadow_806_3923" result="shape"/>
</filter>
<filter id="filter3_d_806_3923" x="75.6416" y="265.581" width="63.2954" height="59.2139" filterUnits="userSpaceOnUse" color-interpolation-filters="sRGB">
<feFlood flood-opacity="0" result="BackgroundImageFix"/>
<feColorMatrix in="SourceAlpha" type="matrix" values="0 0 0 0 0 0 0 0 0 0 0 0 0 0 0 0 0 0 127 0" result="hardAlpha"/>
<feOffset/>
<feGaussianBlur stdDeviation="13.5"/>
<feComposite in2="hardAlpha" operator="out"/>
<feColorMatrix type="matrix" values="0 0 0 0 0.0862745 0 0 0 0 0.780392 0 0 0 0 0.32549 0 0 0 0.84 0"/>
<feBlend mode="normal" in2="BackgroundImageFix" result="effect1_dropShadow_806_3923"/>
<feBlend mode="normal" in="SourceGraphic" in2="effect1_dropShadow_806_3923" result="shape"/>
</filter>
<filter id="filter4_d_806_3923" x="182.898" y="135.548" width="64.0974" height="90.6857" filterUnits="userSpaceOnUse" color-interpolation-filters="sRGB">
<feFlood flood-opacity="0" result="BackgroundImageFix"/>
<feColorMatrix in="SourceAlpha" type="matrix" values="0 0 0 0 0 0 0 0 0 0 0 0 0 0 0 0 0 0 127 0" result="hardAlpha"/>
<feOffset/>
<feGaussianBlur stdDeviation="13.5"/>
<feComposite in2="hardAlpha" operator="out"/>
<feColorMatrix type="matrix" values="0 0 0 0 0.0862745 0 0 0 0 0.780392 0 0 0 0 0.32549 0 0 0 0.84 0"/>
<feBlend mode="normal" in2="BackgroundImageFix" result="effect1_dropShadow_806_3923"/>
<feBlend mode="normal" in="SourceGraphic" in2="effect1_dropShadow_806_3923" result="shape"/>
</filter>
</defs>
</svg>
