<svg width="27" height="32" viewBox="0 0 27 32" fill="none" xmlns="http://www.w3.org/2000/svg">
<path d="M2.80165 13.7264C2.70066 13.8301 2.58018 13.9124 2.44724 13.9686C2.3143 14.0248 2.17156 14.0538 2.02738 14.0538C1.8832 14.0538 1.74047 14.0248 1.60753 13.9686C1.47458 13.9124 1.3541 13.8301 1.25312 13.7264C1.04758 13.5157 0.932405 13.2322 0.932405 12.9368C0.932405 12.6414 1.04758 12.3579 1.25312 12.1472L10.8318 2.40027C12.9918 0.71071 15.1645 -0.100469 17.3276 0.0099278C20.0531 0.150724 22.1749 1.1971 23.976 2.91385C25.812 4.66421 27 7.16175 27 10.1889C27 12.512 26.3298 14.5568 24.9146 16.3711L11.4099 30.3868C10.044 31.5147 8.52565 32.0603 6.89929 31.9947C4.83459 31.9083 3.29876 31.2363 2.15682 30.0988C0.819529 28.7692 0 27.1356 0 24.9389C0 23.1917 0.598765 21.579 1.83441 20.0654L13.7208 7.84013C14.6737 6.81615 15.606 6.20817 16.5589 6.06097C17.195 5.96005 17.8459 6.01737 18.4549 6.22791C19.0639 6.43846 19.6126 6.79585 20.0531 7.26894C20.898 8.16972 21.2601 9.29289 21.1331 10.5713C21.0457 11.4432 20.6915 12.2464 20.0404 13.016L9.11329 24.2925C9.01297 24.3966 8.89309 24.4795 8.76064 24.5364C8.62818 24.5933 8.48581 24.623 8.34182 24.6239C8.19783 24.6248 8.05511 24.5968 7.92197 24.5416C7.78883 24.4863 7.66794 24.4049 7.56635 24.3021C7.35954 24.0927 7.24265 23.8099 7.24087 23.5145C7.23908 23.2191 7.35255 22.9349 7.55682 22.7229L18.4315 11.504C18.7491 11.128 18.9159 10.7489 18.9556 10.3457C19.0191 9.70568 18.8666 9.23369 18.4712 8.8129C18.2715 8.5974 18.0219 8.43496 17.7448 8.34006C17.4678 8.24515 17.1717 8.22071 16.8829 8.26892C16.497 8.32812 15.957 8.68171 15.2915 9.39529L3.45441 21.5662C2.60153 22.6142 2.18859 23.7261 2.18859 24.9405C2.18859 26.4669 2.73653 27.5596 3.68471 28.502C4.43912 29.254 5.46353 29.702 6.98824 29.766C8.06824 29.8092 9.06882 29.4492 9.93918 28.7388L23.2756 14.8991C24.3 13.576 24.8114 12.0192 24.8114 10.1905C24.8114 7.81933 23.895 5.89618 22.4799 4.54581C21.0346 3.16665 19.3828 2.35387 17.2181 2.24187C15.6171 2.15867 13.9384 2.78586 12.2675 4.07542L2.80165 13.7264Z" fill="#3EDA2B"/>
</svg>
