<svg width="224" height="106" viewBox="0 0 224 106" fill="none" xmlns="http://www.w3.org/2000/svg">
<path d="M111.945 65.7307H108.107C106.947 65.7307 106.054 66.0877 105.519 67.2481L98.1998 83.9389H103.377C103.377 83.9389 104.269 81.7075 104.448 81.172C104.983 81.172 110.071 81.172 110.785 81.172C110.963 81.7968 111.41 83.8496 111.41 83.8496H116.051L111.945 65.7307ZM105.876 77.4232C106.322 76.3522 107.839 72.3356 107.839 72.3356C107.839 72.4249 108.286 71.2646 108.464 70.6398L108.821 72.2464C108.821 72.2464 109.803 76.6199 109.982 77.5125H105.876V77.4232Z" fill="#3362AB"/>
<path d="M98.5569 77.9587C98.5569 81.7075 95.1652 84.2066 89.8991 84.2066C87.6677 84.2066 85.5256 83.7603 84.3652 83.2248L85.0793 79.119L85.7041 79.3868C87.3107 80.1008 88.3817 80.3686 90.3454 80.3686C91.7735 80.3686 93.2908 79.8331 93.2908 78.5835C93.2908 77.7802 92.666 77.2447 90.7024 76.3521C88.828 75.4595 86.3289 74.0314 86.3289 71.443C86.3289 67.8728 89.8098 65.4629 94.7189 65.4629C96.5933 65.4629 98.1999 65.8199 99.1817 66.2662L98.4677 70.1934L98.1106 69.8364C97.2181 69.4794 96.0577 69.1224 94.3619 69.1224C92.4875 69.2116 91.595 70.0149 91.595 70.729C91.595 71.5323 92.666 72.1571 94.3619 72.9604C97.2181 74.2992 98.5569 75.8166 98.5569 77.9587Z" fill="#3362AB"/>
<path d="M55 65.9093L55.0893 65.5522H62.7653C63.8363 65.5522 64.6396 65.9093 64.9074 67.0696L66.6033 75.1026C64.9074 70.8183 60.9801 67.3374 55 65.9093Z" fill="#F9B50B"/>
<path d="M77.4032 65.7306L69.6379 83.8495H64.3718L59.9091 68.6761C63.1223 70.7289 65.7999 73.9421 66.7818 76.1735L67.3173 78.0479L72.1371 65.6414H77.4032V65.7306Z" fill="#3362AB"/>
<path d="M79.4561 65.6414H84.3652L81.2412 83.8495H76.3322L79.4561 65.6414Z" fill="#3362AB"/>
<path d="M169.572 74.6561C169.572 82.1495 163.479 88.3123 155.915 88.3123C148.422 88.3123 142.259 82.1495 142.259 74.6561C142.259 67.1628 148.352 61 155.845 61C163.479 61 169.572 67.1628 169.572 74.6561Z" fill="#F9B50B"/>
<path d="M151.293 74.7262C151.293 73.7457 151.153 72.7653 151.013 71.8549H142.609C142.679 71.3647 142.819 70.9445 142.96 70.3842H150.453C150.313 69.894 150.103 69.4038 149.893 68.9136H143.52C143.73 68.4233 144.01 68.0031 144.29 67.4429H149.122C148.842 66.9527 148.492 66.4625 148.072 65.9722H145.411C145.831 65.482 146.251 65.0618 146.811 64.5716C144.43 62.3306 141.209 61 137.637 61C130.214 61.2101 124.051 67.1628 124.051 74.6561C124.051 82.1495 130.144 88.3123 137.707 88.3123C141.279 88.3123 144.43 86.9117 146.881 84.7407C147.372 84.3205 147.792 83.8303 148.282 83.27H145.481C145.131 82.8498 144.78 82.3596 144.5 81.8694H149.262C149.542 81.4492 149.823 80.959 150.033 80.3987H143.66C143.45 79.9785 143.24 79.4883 143.1 78.9281H150.593C151.013 77.6675 151.293 76.2669 151.293 74.7262Z" fill="#C8191C"/>
<path d="M142.539 78.1575L142.749 76.897C142.679 76.897 142.539 76.967 142.399 76.967C141.909 76.967 141.839 76.6869 141.909 76.5468L142.329 74.0257H143.1L143.31 72.625H142.609L142.749 71.7847H141.279C141.279 71.7847 140.438 76.5468 140.438 77.1071C140.438 77.9474 140.929 78.3676 141.629 78.3676C142.049 78.3676 142.399 78.2276 142.539 78.1575Z" fill="white"/>
<path d="M143.03 75.8466C143.03 77.8775 144.43 78.3678 145.551 78.3678C146.601 78.3678 147.091 78.1577 147.091 78.1577L147.371 76.757C147.371 76.757 146.601 77.1072 145.831 77.1072C144.22 77.1072 144.5 75.9167 144.5 75.9167H147.442C147.442 75.9167 147.652 75.0062 147.652 74.5861C147.652 73.6756 147.161 72.4851 145.551 72.4851C144.15 72.4151 143.03 74.0258 143.03 75.8466ZM145.551 73.7457C146.321 73.7457 146.181 74.6561 146.181 74.7261H144.57C144.64 74.6561 144.78 73.7457 145.551 73.7457Z" fill="white"/>
<path d="M154.725 78.1577L155.005 76.5469C155.005 76.5469 154.305 76.8971 153.744 76.8971C152.764 76.8971 152.274 76.1267 152.274 75.2163C152.274 73.4655 153.114 72.5551 154.165 72.5551C154.865 72.5551 155.495 72.9753 155.495 72.9753L155.705 71.4346C155.705 71.4346 154.865 71.0845 154.025 71.0845C152.344 71.0845 150.733 72.5551 150.733 75.2864C150.733 77.1072 151.573 78.2977 153.324 78.2977C153.954 78.3677 154.725 78.1577 154.725 78.1577Z" fill="white"/>
<path d="M134.626 72.4153C133.645 72.4153 132.875 72.6954 132.875 72.6954L132.665 73.956C132.665 73.956 133.295 73.6759 134.275 73.6759C134.766 73.6759 135.186 73.7459 135.186 74.1661C135.186 74.4462 135.116 74.5162 135.116 74.5162H134.486C133.225 74.5162 131.894 75.0064 131.894 76.6872C131.894 78.0178 132.735 78.2979 133.295 78.2979C134.275 78.2979 134.766 77.6676 134.836 77.6676L134.766 78.2279H135.956L136.516 74.2361C136.516 72.4853 135.116 72.4153 134.626 72.4153ZM134.906 75.6367C134.906 75.8468 134.766 77.0374 133.925 77.0374C133.505 77.0374 133.365 76.6872 133.365 76.4771C133.365 76.127 133.575 75.6367 134.696 75.6367C134.836 75.6367 134.906 75.6367 134.906 75.6367Z" fill="white"/>
<path d="M137.917 78.2976C138.267 78.2976 140.088 78.3677 140.088 76.4068C140.088 74.586 138.337 74.9361 138.337 74.2358C138.337 73.8857 138.618 73.7456 139.108 73.7456C139.318 73.7456 140.088 73.8156 140.088 73.8156L140.298 72.485C140.298 72.485 139.808 72.345 138.898 72.345C137.847 72.345 136.727 72.7652 136.727 74.2358C136.727 75.9166 138.548 75.7765 138.548 76.4068C138.548 76.827 138.057 76.897 137.707 76.897C137.077 76.897 136.377 76.6869 136.377 76.6869L136.167 78.0175C136.307 78.1576 136.727 78.2976 137.917 78.2976Z" fill="white"/>
<path d="M166.77 71.2944L166.49 73.2553C166.49 73.2553 165.93 72.555 165.09 72.555C163.759 72.555 162.638 74.1657 162.638 76.0566C162.638 77.2471 163.199 78.4376 164.459 78.4376C165.3 78.4376 165.86 77.8774 165.86 77.8774L165.79 78.3676H167.261L168.311 71.4345L166.77 71.2944ZM166.07 75.0761C166.07 75.8465 165.72 76.897 164.879 76.897C164.389 76.897 164.109 76.4768 164.109 75.7064C164.109 74.5159 164.599 73.8156 165.3 73.8156C165.79 73.8856 166.07 74.2358 166.07 75.0761Z" fill="white"/>
<path d="M126.712 78.2276L127.553 73.0452L127.693 78.2276H128.673L130.564 73.0452L129.794 78.2276H131.334L132.525 71.2944H130.144L128.673 75.5664L128.603 71.2944H126.502L125.312 78.2276H126.712Z" fill="white"/>
<path d="M149.122 78.2277C149.543 75.8467 149.613 73.8858 150.663 74.2359C150.803 73.3255 151.013 72.9053 151.153 72.5552H150.873C150.243 72.5552 149.683 73.3956 149.683 73.3956L149.823 72.6252H148.422L147.512 78.2277H149.122V78.2277Z" fill="white"/>
<path d="M158.086 72.4153C157.106 72.4153 156.336 72.6954 156.336 72.6954L156.125 73.956C156.125 73.956 156.756 73.6759 157.736 73.6759C158.226 73.6759 158.647 73.7459 158.647 74.1661C158.647 74.4462 158.577 74.5162 158.577 74.5162H157.946C156.686 74.5162 155.355 75.0064 155.355 76.6872C155.355 78.0178 156.195 78.2979 156.756 78.2979C157.736 78.2979 158.226 77.6676 158.296 77.6676L158.226 78.2279H159.557L160.117 74.2361C160.117 72.4853 158.577 72.4153 158.086 72.4153ZM158.436 75.6367C158.436 75.8468 158.296 77.0374 157.456 77.0374C157.036 77.0374 156.896 76.6872 156.896 76.4771C156.896 76.127 157.106 75.6367 158.226 75.6367C158.366 75.6367 158.366 75.6367 158.436 75.6367Z" fill="white"/>
<path d="M161.238 78.2277C161.658 75.8467 161.728 73.8858 162.778 74.2359C162.919 73.3255 163.129 72.9053 163.269 72.5552H162.989C162.358 72.5552 161.798 73.3956 161.798 73.3956L161.938 72.6252H160.537L159.627 78.2277H161.238V78.2277Z" fill="white"/>
<path d="M87.054 48.5521C84.5393 48.5521 82.224 47.9694 80.108 46.8041C77.992 45.6387 76.29 43.9214 75.002 41.6521C73.7446 39.3521 73.116 36.5307 73.116 33.1881C73.116 29.8761 73.76 27.0547 75.048 24.7241C76.3666 22.3627 78.0993 20.5687 80.246 19.3421C82.4233 18.0847 84.7693 17.4561 87.284 17.4561C89.216 17.4561 90.9486 17.8547 92.482 18.6521C94.0153 19.4187 95.288 20.3234 96.3 21.3661L92.712 25.6901C91.9453 24.9847 91.1326 24.4174 90.274 23.9881C89.446 23.5281 88.4953 23.2981 87.422 23.2981C86.0726 23.2981 84.8306 23.6814 83.696 24.4481C82.592 25.2147 81.7026 26.3187 81.028 27.7601C80.384 29.2014 80.062 30.9341 80.062 32.9581C80.062 36.0247 80.7213 38.4167 82.04 40.1341C83.3586 41.8514 85.122 42.7101 87.33 42.7101C88.5566 42.7101 89.6453 42.4341 90.596 41.8821C91.5773 41.3301 92.436 40.6707 93.172 39.9041L96.76 44.1361C94.2453 47.0801 91.01 48.5521 87.054 48.5521Z" fill="#008D26"/>
<path d="M101.315 48.0001V18.0081H108.077V29.5541H118.427V18.0081H125.235V48.0001H118.427V35.4881H108.077V48.0001H101.315Z" fill="#008D26"/>
<path d="M132.311 48.0001V18.0081H151.217V23.7121H139.074V48.0001H132.311Z" fill="#008D26"/>
</svg>
