<svg width="224" height="106" viewBox="0 0 224 106" fill="none" xmlns="http://www.w3.org/2000/svg">
<path d="M197.47 66.3555H185.905C186.578 70.1733 190.284 73.7666 194.326 73.7666H203.534C203.646 73.4297 203.646 72.8683 203.646 72.5314C203.646 69.1627 200.839 66.3555 197.47 66.3555Z" fill="url(#paint0_linear_108_56)"/>
<path d="M186.915 74.4404V83.7605H192.53V78.8197H197.47C200.165 78.8197 202.524 76.9108 203.31 74.4404H186.915Z" fill="#4FAD50"/>
<path d="M167.152 66.3555V83.6481H172.093C172.093 83.6481 173.328 83.6481 174.002 82.4129C177.371 75.7878 178.381 73.7666 178.381 73.7666H179.055V83.6481H184.67V66.3555H179.729C179.729 66.3555 178.494 66.4678 177.82 67.5907C175.013 73.3174 173.441 76.237 173.441 76.237H172.767V66.3555H167.152Z" fill="#4FAD50"/>
<path d="M143.572 83.7606V66.468H149.186C149.186 66.468 150.758 66.468 151.656 68.9384C153.902 75.4512 154.127 76.3495 154.127 76.3495C154.127 76.3495 154.576 74.7774 156.597 68.9384C157.495 66.468 159.068 66.468 159.068 66.468H164.682V83.7606H159.068V74.4406H158.394L155.25 83.7606H152.779L149.635 74.4406H148.961V83.7606H143.572Z" fill="#4FAD50"/>
<path d="M77.9452 65.7307H74.1072C72.9469 65.7307 72.0543 66.0877 71.5188 67.2481L64.1998 83.9389H69.3767C69.3767 83.9389 70.2692 81.7075 70.4477 81.172C70.9833 81.172 76.0709 81.172 76.7849 81.172C76.9634 81.7968 77.4097 83.8496 77.4097 83.8496H82.051L77.9452 65.7307ZM71.8758 77.4232C72.3221 76.3522 73.8395 72.3356 73.8395 72.3356C73.8395 72.4249 74.2857 71.2646 74.4642 70.6398L74.8213 72.2464C74.8213 72.2464 75.8031 76.6199 75.9816 77.5125H71.8758V77.4232Z" fill="#3362AB"/>
<path d="M64.5569 77.9587C64.5569 81.7075 61.1652 84.2066 55.8991 84.2066C53.6677 84.2066 51.5256 83.7603 50.3652 83.2248L51.0793 79.119L51.7041 79.3868C53.3107 80.1008 54.3817 80.3686 56.3454 80.3686C57.7735 80.3686 59.2908 79.8331 59.2908 78.5835C59.2908 77.7802 58.666 77.2447 56.7024 76.3521C54.828 75.4595 52.3289 74.0314 52.3289 71.443C52.3289 67.8728 55.8098 65.4629 60.7189 65.4629C62.5933 65.4629 64.1999 65.8199 65.1817 66.2662L64.4677 70.1934L64.1106 69.8364C63.2181 69.4794 62.0577 69.1224 60.3619 69.1224C58.4875 69.2116 57.595 70.0149 57.595 70.729C57.595 71.5323 58.666 72.1571 60.3619 72.9604C63.2181 74.2992 64.5569 75.8166 64.5569 77.9587Z" fill="#3362AB"/>
<path d="M21 65.9093L21.0893 65.5522H28.7653C29.8363 65.5522 30.6396 65.9093 30.9074 67.0696L32.6033 75.1026C30.9074 70.8183 26.9801 67.3374 21 65.9093Z" fill="#F9B50B"/>
<path d="M43.4032 65.7306L35.6379 83.8495H30.3718L25.9091 68.6761C29.1223 70.7289 31.7999 73.9421 32.7818 76.1735L33.3173 78.0479L38.1371 65.6414H43.4032V65.7306Z" fill="#3362AB"/>
<path d="M45.4561 65.6414H50.3652L47.2412 83.8495H42.3322L45.4561 65.6414Z" fill="#3362AB"/>
<path d="M135.572 74.6561C135.572 82.1495 129.479 88.3123 121.915 88.3123C114.422 88.3123 108.259 82.1495 108.259 74.6561C108.259 67.1628 114.352 61 121.845 61C129.479 61 135.572 67.1628 135.572 74.6561Z" fill="#F9B50B"/>
<path d="M117.293 74.7262C117.293 73.7457 117.153 72.7653 117.013 71.8549H108.609C108.679 71.3647 108.819 70.9445 108.96 70.3842H116.453C116.313 69.894 116.103 69.4038 115.893 68.9136H109.52C109.73 68.4233 110.01 68.0031 110.29 67.4429H115.122C114.842 66.9527 114.492 66.4625 114.072 65.9722H111.411C111.831 65.482 112.251 65.0618 112.811 64.5716C110.43 62.3306 107.209 61 103.637 61C96.2138 61.2101 90.051 67.1628 90.051 74.6561C90.051 82.1495 96.1438 88.3123 103.707 88.3123C107.279 88.3123 110.43 86.9117 112.881 84.7407C113.372 84.3205 113.792 83.8303 114.282 83.27H111.481C111.131 82.8498 110.78 82.3596 110.5 81.8694H115.262C115.542 81.4492 115.823 80.959 116.033 80.3987H109.66C109.45 79.9785 109.24 79.4883 109.1 78.9281H116.593C117.013 77.6675 117.293 76.2669 117.293 74.7262Z" fill="#C8191C"/>
<path d="M108.539 78.1575L108.749 76.897C108.679 76.897 108.539 76.967 108.399 76.967C107.909 76.967 107.839 76.6869 107.909 76.5468L108.329 74.0257H109.1L109.31 72.625H108.609L108.749 71.7847H107.279C107.279 71.7847 106.438 76.5468 106.438 77.1071C106.438 77.9474 106.929 78.3676 107.629 78.3676C108.049 78.3676 108.399 78.2276 108.539 78.1575Z" fill="white"/>
<path d="M109.03 75.8466C109.03 77.8775 110.43 78.3678 111.551 78.3678C112.601 78.3678 113.091 78.1577 113.091 78.1577L113.371 76.757C113.371 76.757 112.601 77.1072 111.831 77.1072C110.22 77.1072 110.5 75.9167 110.5 75.9167H113.442C113.442 75.9167 113.652 75.0062 113.652 74.5861C113.652 73.6756 113.161 72.4851 111.551 72.4851C110.15 72.4151 109.03 74.0258 109.03 75.8466ZM111.551 73.7457C112.321 73.7457 112.181 74.6561 112.181 74.7261H110.57C110.64 74.6561 110.78 73.7457 111.551 73.7457Z" fill="white"/>
<path d="M120.725 78.1577L121.005 76.5469C121.005 76.5469 120.305 76.8971 119.744 76.8971C118.764 76.8971 118.274 76.1267 118.274 75.2163C118.274 73.4655 119.114 72.5551 120.165 72.5551C120.865 72.5551 121.495 72.9753 121.495 72.9753L121.705 71.4346C121.705 71.4346 120.865 71.0845 120.025 71.0845C118.344 71.0845 116.733 72.5551 116.733 75.2864C116.733 77.1072 117.573 78.2977 119.324 78.2977C119.954 78.3677 120.725 78.1577 120.725 78.1577Z" fill="white"/>
<path d="M100.626 72.4153C99.6452 72.4153 98.8749 72.6954 98.8749 72.6954L98.6648 73.956C98.6648 73.956 99.295 73.6759 100.275 73.6759C100.766 73.6759 101.186 73.7459 101.186 74.1661C101.186 74.4462 101.116 74.5162 101.116 74.5162H100.486C99.225 74.5162 97.8944 75.0064 97.8944 76.6872C97.8944 78.0178 98.7348 78.2979 99.295 78.2979C100.275 78.2979 100.766 77.6676 100.836 77.6676L100.766 78.2279H101.956L102.516 74.2361C102.516 72.4853 101.116 72.4153 100.626 72.4153ZM100.906 75.6367C100.906 75.8468 100.766 77.0374 99.9253 77.0374C99.5051 77.0374 99.3651 76.6872 99.3651 76.4771C99.3651 76.127 99.5752 75.6367 100.696 75.6367C100.836 75.6367 100.906 75.6367 100.906 75.6367Z" fill="white"/>
<path d="M103.917 78.2976C104.267 78.2976 106.088 78.3677 106.088 76.4068C106.088 74.586 104.337 74.9361 104.337 74.2358C104.337 73.8857 104.618 73.7456 105.108 73.7456C105.318 73.7456 106.088 73.8156 106.088 73.8156L106.298 72.485C106.298 72.485 105.808 72.345 104.898 72.345C103.847 72.345 102.727 72.7652 102.727 74.2358C102.727 75.9166 104.548 75.7765 104.548 76.4068C104.548 76.827 104.057 76.897 103.707 76.897C103.077 76.897 102.377 76.6869 102.377 76.6869L102.167 78.0175C102.307 78.1576 102.727 78.2976 103.917 78.2976Z" fill="white"/>
<path d="M132.77 71.2944L132.49 73.2553C132.49 73.2553 131.93 72.555 131.09 72.555C129.759 72.555 128.638 74.1657 128.638 76.0566C128.638 77.2471 129.199 78.4376 130.459 78.4376C131.3 78.4376 131.86 77.8774 131.86 77.8774L131.79 78.3676H133.261L134.311 71.4345L132.77 71.2944ZM132.07 75.0761C132.07 75.8465 131.72 76.897 130.879 76.897C130.389 76.897 130.109 76.4768 130.109 75.7064C130.109 74.5159 130.599 73.8156 131.3 73.8156C131.79 73.8856 132.07 74.2358 132.07 75.0761Z" fill="white"/>
<path d="M92.7123 78.2276L93.5527 73.0452L93.6927 78.2276H94.6732L96.564 73.0452L95.7937 78.2276H97.3344L98.5249 71.2944H96.1438L94.6732 75.5664L94.6031 71.2944H92.5022L91.3116 78.2276H92.7123Z" fill="white"/>
<path d="M115.122 78.2277C115.543 75.8467 115.613 73.8858 116.663 74.2359C116.803 73.3255 117.013 72.9053 117.153 72.5552H116.873C116.243 72.5552 115.683 73.3956 115.683 73.3956L115.823 72.6252H114.422L113.512 78.2277H115.122V78.2277Z" fill="white"/>
<path d="M124.086 72.4153C123.106 72.4153 122.336 72.6954 122.336 72.6954L122.125 73.956C122.125 73.956 122.756 73.6759 123.736 73.6759C124.226 73.6759 124.647 73.7459 124.647 74.1661C124.647 74.4462 124.577 74.5162 124.577 74.5162H123.946C122.686 74.5162 121.355 75.0064 121.355 76.6872C121.355 78.0178 122.195 78.2979 122.756 78.2979C123.736 78.2979 124.226 77.6676 124.296 77.6676L124.226 78.2279H125.557L126.117 74.2361C126.117 72.4853 124.577 72.4153 124.086 72.4153ZM124.436 75.6367C124.436 75.8468 124.296 77.0374 123.456 77.0374C123.036 77.0374 122.896 76.6872 122.896 76.4771C122.896 76.127 123.106 75.6367 124.226 75.6367C124.366 75.6367 124.366 75.6367 124.436 75.6367Z" fill="white"/>
<path d="M127.238 78.2277C127.658 75.8467 127.728 73.8858 128.778 74.2359C128.919 73.3255 129.129 72.9053 129.269 72.5552H128.989C128.358 72.5552 127.798 73.3956 127.798 73.3956L127.938 72.6252H126.537L125.627 78.2277H127.238V78.2277Z" fill="white"/>
<path d="M84.542 48.0001V18.0081H94.846C97.054 18.0081 99.0473 18.3147 100.826 18.9281C102.635 19.5107 104.077 20.5074 105.15 21.9181C106.223 23.3287 106.76 25.2454 106.76 27.6681C106.76 29.9987 106.223 31.9154 105.15 33.4181C104.077 34.9207 102.651 36.0401 100.872 36.7761C99.0933 37.4814 97.146 37.8341 95.03 37.8341H91.304V48.0001H84.542ZM91.304 32.4521H94.616C98.296 32.4521 100.136 30.8574 100.136 27.6681C100.136 26.1041 99.6453 25.0001 98.664 24.3561C97.6827 23.7121 96.272 23.3901 94.432 23.3901H91.304V32.4521Z" fill="#008D26"/>
<path d="M123.03 48.5521V44.5041C119.136 44.2587 116.069 43.1701 113.83 41.2381C111.592 39.3061 110.472 36.5154 110.472 32.8661C110.472 29.2167 111.592 26.4567 113.83 24.5861C116.069 22.6847 119.136 21.6267 123.03 21.4121V17.4561H128.872V21.4121C132.798 21.6267 135.88 22.6847 138.118 24.5861C140.357 26.4567 141.476 29.2167 141.476 32.8661C141.476 36.5154 140.357 39.3061 138.118 41.2381C135.88 43.1701 132.798 44.2587 128.872 44.5041V48.5521H123.03ZM116.82 32.8661C116.82 34.9514 117.372 36.5461 118.476 37.6501C119.58 38.7234 121.098 39.3367 123.03 39.4901V26.4261C121.098 26.5794 119.58 27.1774 118.476 28.2201C117.372 29.2321 116.82 30.7807 116.82 32.8661ZM135.128 32.8661C135.128 30.7807 134.561 29.2167 133.426 28.1741C132.322 27.1314 130.804 26.5487 128.872 26.4261V39.4901C130.804 39.3367 132.322 38.7234 133.426 37.6501C134.561 36.5461 135.128 34.9514 135.128 32.8661Z" fill="#008D26"/>
<defs>
<linearGradient id="paint0_linear_108_56" x1="185.885" y1="70.1141" x2="203.607" y2="70.1141" gradientUnits="userSpaceOnUse">
<stop stop-color="#27B1E6"/>
<stop offset="1" stop-color="#148ACA"/>
</linearGradient>
</defs>
</svg>
