<svg width="30" height="55" viewBox="0 0 30 55" fill="none" xmlns="http://www.w3.org/2000/svg">
<path d="M30 27.5121C29.991 28.1779 29.7334 28.8163 29.2778 29.3019L4.15708 54.4226C3.669 54.8232 3.04937 55.0279 2.4187 54.9969C1.78804 54.966 1.19145 54.7015 0.744968 54.255C0.298486 53.8086 0.0340383 53.212 0.00306433 52.5813C-0.0279097 51.9506 0.176805 51.331 0.577387 50.8429L23.9396 27.5121L0.577387 4.18122C0.176805 3.69313 -0.0279097 3.0735 0.00306433 2.44284C0.0340383 1.81218 0.298486 1.21558 0.744968 0.7691C1.19145 0.32262 1.78804 0.0581703 2.4187 0.027195C3.04937 -0.00377655 3.669 0.200939 4.15708 0.601521L29.2778 25.7222C29.7334 26.2079 29.991 26.8462 30 27.5121Z" fill="#3EDA2B"/>
</svg>
