<svg width="30" height="30" viewBox="0 0 30 30" fill="none" xmlns="http://www.w3.org/2000/svg">
<circle cx="15" cy="15" r="15" fill="#4A78BA"/>
<path fill-rule="evenodd" clip-rule="evenodd" d="M22.6234 10.8669C22.742 10.4909 22.6234 10.2175 22.0984 10.2175H20.3527C19.9123 10.2175 19.709 10.4569 19.5903 10.7129C19.5903 10.7129 18.6923 12.8995 17.4383 14.3172C17.0317 14.7272 16.8453 14.8639 16.625 14.8639C16.5063 14.8639 16.3537 14.7272 16.3537 14.3515V10.8492C16.3537 10.4052 16.2183 10.2002 15.8453 10.2002H13.1C12.8287 10.2002 12.6593 10.4052 12.6593 10.6102C12.6593 11.0372 13.2863 11.1399 13.354 12.3355V14.9335C13.354 15.4972 13.254 15.6002 13.032 15.6002C12.439 15.6002 10.9987 13.3965 10.1347 10.8855C9.96667 10.3882 9.796 10.2002 9.35534 10.2002H7.593C7.08467 10.2002 7 10.4392 7 10.6955C7 11.1569 7.593 13.4799 9.762 16.5545C11.2023 18.6545 13.2527 19.7832 15.0997 19.7832C16.2183 19.7832 16.3537 19.5269 16.3537 19.0999V17.5112C16.3537 16.9989 16.4553 16.9135 16.8113 16.9135C17.0653 16.9135 17.523 17.0499 18.5567 18.0579C19.7427 19.2535 19.946 19.8002 20.607 19.8002H22.3524C22.8607 19.8002 23.098 19.5439 22.9624 19.0485C22.81 18.5532 22.2337 17.8359 21.488 16.9819C21.0814 16.5039 20.4714 15.9742 20.285 15.7179C20.031 15.3762 20.0987 15.2395 20.285 14.9322C20.268 14.9322 22.4034 11.8915 22.6234 10.8655" fill="white"/>
</svg>
