<svg width="39" height="57" viewBox="0 0 39 57" fill="none" xmlns="http://www.w3.org/2000/svg">
<path fill-rule="evenodd" clip-rule="evenodd" d="M6.63563 25.0262L0.00782504 21.0541V0H4.0925C14.3668 6.14924 23.9446 11.8849 34.2189 18.0341C38.061 20.3362 39 24.714 39 26.4464V31.9636C37.6697 29.2167 35.1266 26.7664 32.2 25.0184L6.63563 9.71549V16.5592L20.7677 25.0184H6.63563V25.0262ZM32.3644 31.9714L38.9922 35.9434V56.9975H34.9075C24.6332 50.8483 15.0554 45.1126 4.7811 38.9634C0.939005 36.6613 0 32.2835 0 30.5511V25.034C1.33026 27.7808 3.8734 30.2312 6.79996 31.9792L32.3644 47.282V40.4383L18.2323 31.9792H32.3644V31.9714Z" fill="url(#paint0_linear_411_2326)"/>
<defs>
<linearGradient id="paint0_linear_411_2326" x1="0.00782504" y1="30.5433" x2="39" y2="30.5433" gradientUnits="userSpaceOnUse">
<stop stop-color="#6BE316"/>
<stop offset="1" stop-color="#2B8436"/>
</linearGradient>
</defs>
</svg>
