<svg width="229" height="57" viewBox="0 0 229 57" fill="none" xmlns="http://www.w3.org/2000/svg">
<path fill-rule="evenodd" clip-rule="evenodd" d="M6.63563 25.0262L0.00782504 21.0541V0H4.0925C14.3668 6.14924 23.9446 11.8849 34.2189 18.0341C38.061 20.3362 39 24.714 39 26.4464V31.9636C37.6697 29.2167 35.1266 26.7664 32.2 25.0184L6.63563 9.71549V16.5592L20.7677 25.0184H6.63563V25.0262ZM32.3644 31.9714L38.9922 35.9434V56.9975H34.9075C24.6332 50.8483 15.0554 45.1126 4.7811 38.9634C0.939005 36.6613 0 32.2835 0 30.5511V25.034C1.33026 27.7808 3.8734 30.2312 6.79996 31.9792L32.3644 47.282V40.4383L18.2323 31.9792H32.3644V31.9714Z" fill="url(#paint0_linear_411_2118)"/>
<path d="M54.1762 35.312C58.2322 35.312 60.5722 32.868 60.5722 30.06C60.5722 27.668 59.2722 26.29 57.2182 25.458L55.0342 24.574C53.5782 23.976 52.4602 23.612 52.4602 22.572C52.4602 21.61 53.2922 21.038 54.6182 21.038C55.9702 21.038 57.0102 21.532 58.1282 22.39L60.0782 19.972C58.6222 18.516 56.5682 17.736 54.6182 17.736C51.0822 17.736 48.5862 19.972 48.5862 22.78C48.5862 25.25 50.2502 26.706 51.9922 27.408L54.2022 28.344C55.6842 28.968 56.6462 29.306 56.6462 30.372C56.6462 31.386 55.8662 32.01 54.2802 32.01C52.8762 32.01 51.3162 31.282 50.0942 30.242L47.9102 32.868C49.6262 34.48 51.9662 35.312 54.1762 35.312Z" fill="white"/>
<path d="M65.3474 35.312C66.8034 35.312 67.9994 34.636 69.0914 33.674H69.1954L69.4554 35H72.5754V27.616C72.5754 23.664 70.7554 21.792 67.4534 21.792C65.4254 21.792 63.5794 22.494 61.9414 23.482L63.3194 26.004C64.5674 25.276 65.6334 24.834 66.7254 24.834C68.1294 24.834 68.6754 25.562 68.7534 26.706C63.6574 27.226 61.4994 28.708 61.4994 31.412C61.4994 33.596 62.9814 35.312 65.3474 35.312ZM66.6474 32.348C65.7374 32.348 65.1654 31.958 65.1654 31.126C65.1654 30.138 66.0494 29.358 68.7534 28.994V31.256C68.0774 31.932 67.5054 32.348 66.6474 32.348Z" fill="white"/>
<path d="M82.7504 16.93C82.1784 16.722 81.2424 16.462 80.1764 16.462C76.6924 16.462 75.4184 18.698 75.4184 21.428V22.13L73.7024 22.26V25.094H75.4184V35H79.2404V25.094H81.5544V22.104H79.2404V21.324C79.2404 19.998 79.7864 19.478 80.7224 19.478C81.1384 19.478 81.6064 19.582 82.0484 19.738L82.7504 16.93Z" fill="white"/>
<path d="M88.1078 35.312C89.6418 35.312 91.3578 34.766 92.6838 33.856L91.4098 31.542C90.4738 32.114 89.5898 32.4 88.6278 32.4C86.9118 32.4 85.6118 31.542 85.2738 29.67H92.9958C93.0738 29.358 93.1518 28.656 93.1518 27.98C93.1518 24.47 91.3318 21.792 87.6658 21.792C84.5718 21.792 81.5818 24.366 81.5818 28.552C81.5818 32.816 84.4158 35.312 88.1078 35.312ZM85.2478 27.148C85.5078 25.51 86.5478 24.704 87.7438 24.704C89.2778 24.704 89.9018 25.718 89.9018 27.148H85.2478Z" fill="white"/>
<path d="M98.1639 35H110.436V31.776H102.87L110.358 20.362V18.048H98.8659V21.272H105.652L98.1639 32.686V35Z" fill="white"/>
<path d="M117.152 35.312C120.402 35.312 123.418 32.842 123.418 28.552C123.418 24.262 120.402 21.792 117.152 21.792C113.876 21.792 110.86 24.262 110.86 28.552C110.86 32.842 113.876 35.312 117.152 35.312ZM117.152 32.218C115.566 32.218 114.786 30.788 114.786 28.552C114.786 26.316 115.566 24.886 117.152 24.886C118.712 24.886 119.518 26.316 119.518 28.552C119.518 30.788 118.712 32.218 117.152 32.218Z" fill="white"/>
<path d="M124.996 35H128.818V26.29C129.65 25.484 130.248 25.042 131.21 25.042C132.302 25.042 132.796 25.614 132.796 27.486V35H136.618V26.992C136.618 23.768 135.422 21.792 132.614 21.792C130.872 21.792 129.572 22.702 128.48 23.742H128.376L128.116 22.104H124.996V35Z" fill="white"/>
<path d="M144.607 35.312C146.141 35.312 147.857 34.766 149.183 33.856L147.909 31.542C146.973 32.114 146.089 32.4 145.127 32.4C143.411 32.4 142.111 31.542 141.773 29.67H149.495C149.573 29.358 149.651 28.656 149.651 27.98C149.651 24.47 147.831 21.792 144.165 21.792C141.071 21.792 138.081 24.366 138.081 28.552C138.081 32.816 140.915 35.312 144.607 35.312ZM141.747 27.148C142.007 25.51 143.047 24.704 144.243 24.704C145.777 24.704 146.401 25.718 146.401 27.148H141.747Z" fill="white"/>
<path d="M155.729 35H159.161V28.786C159.161 27.122 158.849 24.652 158.667 23.014H158.771L160.123 27.044L162.541 33.518H164.647L167.065 27.044L168.443 23.014H168.547C168.365 24.652 168.053 27.122 168.053 28.786V35H171.537V18.048H167.377L164.699 25.588C164.361 26.576 164.075 27.668 163.737 28.708H163.633C163.295 27.668 162.983 26.576 162.645 25.588L159.915 18.048H155.729V35Z" fill="white"/>
<path d="M177.432 35.312C178.888 35.312 180.084 34.636 181.176 33.674H181.28L181.54 35H184.66V27.616C184.66 23.664 182.84 21.792 179.538 21.792C177.51 21.792 175.664 22.494 174.026 23.482L175.404 26.004C176.652 25.276 177.718 24.834 178.81 24.834C180.214 24.834 180.76 25.562 180.838 26.706C175.742 27.226 173.584 28.708 173.584 31.412C173.584 33.596 175.066 35.312 177.432 35.312ZM178.732 32.348C177.822 32.348 177.25 31.958 177.25 31.126C177.25 30.138 178.134 29.358 180.838 28.994V31.256C180.162 31.932 179.59 32.348 178.732 32.348Z" fill="white"/>
<path d="M186.853 35H190.675V27.512C191.351 25.77 192.547 25.146 193.509 25.146C194.055 25.146 194.445 25.224 194.913 25.354L195.537 22.052C195.173 21.896 194.731 21.792 194.003 21.792C192.677 21.792 191.273 22.624 190.337 24.366H190.233L189.973 22.104H186.853V35Z" fill="white"/>
<path d="M196.172 35H199.89V31.828L201.528 29.982L204.44 35H208.574L203.712 27.408L208.236 22.104H204.076L199.994 27.226H199.89V16.774H196.172V35Z" fill="white"/>
<path d="M214.412 35.312C215.946 35.312 217.662 34.766 218.988 33.856L217.714 31.542C216.778 32.114 215.894 32.4 214.932 32.4C213.216 32.4 211.916 31.542 211.578 29.67H219.3C219.378 29.358 219.456 28.656 219.456 27.98C219.456 24.47 217.636 21.792 213.97 21.792C210.876 21.792 207.886 24.366 207.886 28.552C207.886 32.816 210.72 35.312 214.412 35.312ZM211.552 27.148C211.812 25.51 212.852 24.704 214.048 24.704C215.582 24.704 216.206 25.718 216.206 27.148H211.552Z" fill="white"/>
<path d="M225.769 35.312C227.017 35.312 227.953 35.052 228.629 34.844L228.031 32.062C227.693 32.192 227.225 32.322 226.809 32.322C225.795 32.322 225.145 31.724 225.145 30.268V25.094H228.239V22.104H225.145V18.672H221.973L221.531 22.104L219.555 22.26V25.094H221.323V30.32C221.323 33.31 222.571 35.312 225.769 35.312Z" fill="white"/>
<path d="M47.9242 47H50.8162C52.4602 47 53.7682 46.304 53.7682 44.516C53.7682 42.8 52.4122 42.236 50.7682 42.236H49.6882V40.664H53.2642V39.176H47.9242V47ZM49.6882 45.632V43.532H50.6242C51.5482 43.532 52.0402 43.808 52.0402 44.54C52.0402 45.296 51.5722 45.632 50.6362 45.632H49.6882Z" fill="white"/>
<path d="M58.3595 47.144C59.0675 47.144 59.8595 46.892 60.4715 46.472L59.8835 45.404C59.4515 45.668 59.0435 45.8 58.5995 45.8C57.8075 45.8 57.2075 45.404 57.0515 44.54H60.6155C60.6515 44.396 60.6875 44.072 60.6875 43.76C60.6875 42.14 59.8475 40.904 58.1555 40.904C56.7275 40.904 55.3475 42.092 55.3475 44.024C55.3475 45.992 56.6555 47.144 58.3595 47.144ZM57.0395 43.376C57.1595 42.62 57.6395 42.248 58.1915 42.248C58.8995 42.248 59.1875 42.716 59.1875 43.376H57.0395Z" fill="white"/>
<path d="M64.4864 47.144C65.8304 47.144 67.1504 46.508 67.1504 45.308C67.1504 44.504 66.7064 44.084 65.9864 43.892V43.844C66.6344 43.64 66.9224 43.088 66.9224 42.608C66.9224 41.42 65.7464 40.904 64.4624 40.904C63.6704 40.904 62.9384 41.096 62.2904 41.516L62.9384 42.644C63.3944 42.344 63.8384 42.248 64.3424 42.248C64.9304 42.248 65.2424 42.452 65.2424 42.8C65.2424 43.172 64.9544 43.376 64.4024 43.376H63.5624V44.54H64.5104C65.1344 44.54 65.4224 44.72 65.4224 45.128C65.4224 45.548 64.9424 45.8 64.3184 45.8C63.8984 45.8 63.3584 45.656 62.8664 45.32L62.1824 46.436C62.9504 47 63.6824 47.144 64.4864 47.144Z" fill="white"/>
<path d="M71.6094 47.144C73.1094 47.144 74.5014 46.004 74.5014 44.024C74.5014 42.044 73.1094 40.904 71.6094 40.904C70.0974 40.904 68.7054 42.044 68.7054 44.024C68.7054 46.004 70.0974 47.144 71.6094 47.144ZM71.6094 45.716C70.8774 45.716 70.5174 45.056 70.5174 44.024C70.5174 42.992 70.8774 42.332 71.6094 42.332C72.3294 42.332 72.7014 42.992 72.7014 44.024C72.7014 45.056 72.3294 45.716 71.6094 45.716Z" fill="white"/>
<path d="M76.4297 47H78.1937V42.428H79.9937V47H81.7577V41.048H76.4297V47Z" fill="white"/>
<path d="M85.5403 47.144C86.2123 47.144 86.7643 46.832 87.2683 46.388H87.3163L87.4363 47H88.8763V43.592C88.8763 41.768 88.0363 40.904 86.5123 40.904C85.5763 40.904 84.7243 41.228 83.9683 41.684L84.6043 42.848C85.1803 42.512 85.6723 42.308 86.1763 42.308C86.8243 42.308 87.0763 42.644 87.1123 43.172C84.7603 43.412 83.7643 44.096 83.7643 45.344C83.7643 46.352 84.4483 47.144 85.5403 47.144ZM86.1403 45.776C85.7203 45.776 85.4563 45.596 85.4563 45.212C85.4563 44.756 85.8643 44.396 87.1123 44.228V45.272C86.8003 45.584 86.5363 45.776 86.1403 45.776Z" fill="white"/>
<path d="M93.6804 47.144C94.3284 47.144 95.0604 46.952 95.6484 46.436L94.9524 45.284C94.6404 45.524 94.2684 45.716 93.8844 45.716C93.1164 45.716 92.5524 45.056 92.5524 44.024C92.5524 42.992 93.0924 42.332 93.9444 42.332C94.2204 42.332 94.4604 42.44 94.7484 42.68L95.5764 41.54C95.1324 41.168 94.5684 40.904 93.8364 40.904C92.1924 40.904 90.7404 42.044 90.7404 44.024C90.7404 46.004 92.0244 47.144 93.6804 47.144Z" fill="white"/>
<path d="M97.41 47H99.174V44.732H101.082V47H102.846V41.048H101.082V43.196H99.174V41.048H97.41V47Z" fill="white"/>
<path d="M107.67 47.144C109.17 47.144 110.562 46.004 110.562 44.024C110.562 42.044 109.17 40.904 107.67 40.904C106.158 40.904 104.766 42.044 104.766 44.024C104.766 46.004 106.158 47.144 107.67 47.144ZM107.67 45.716C106.938 45.716 106.578 45.056 106.578 44.024C106.578 42.992 106.938 42.332 107.67 42.332C108.39 42.332 108.762 42.992 108.762 44.024C108.762 45.056 108.39 45.716 107.67 45.716Z" fill="white"/>
<path d="M113.501 46.928C113.501 47.54 113.021 48.08 112.145 48.392L112.505 49.328C113.909 48.908 114.665 47.912 114.665 46.592C114.665 45.548 114.233 44.924 113.441 44.924C112.829 44.924 112.337 45.32 112.337 45.932C112.337 46.568 112.841 46.928 113.405 46.928H113.501Z" fill="white"/>
<path d="M121.229 43.364C121.601 42.836 122.045 42.644 122.453 42.644C123.077 42.644 123.473 43.04 123.473 44.096C123.473 45.092 123.113 45.716 122.465 45.716C121.685 45.716 121.229 45.068 121.229 43.7V43.364ZM124.721 38.24C124.349 38.408 124.013 38.492 123.293 38.588C121.085 38.888 119.537 39.704 119.537 43.28C119.537 45.716 120.593 47.144 122.489 47.144C124.097 47.144 125.273 45.932 125.273 44.096C125.273 42.272 124.229 41.348 122.981 41.348C122.333 41.348 121.697 41.6 121.289 42.08C121.445 40.52 121.997 40.448 123.665 40.22C124.193 40.148 124.745 40.016 125.057 39.776L124.721 38.24Z" fill="white"/>
<path d="M127.26 47H129.456C130.896 47 132.012 46.484 132.012 44.948C132.012 43.46 130.896 42.944 129.456 42.944H129.024V41.048H127.26V47ZM129.024 45.656V44.252H129.372C130.008 44.252 130.32 44.48 130.32 44.936C130.32 45.428 130.008 45.656 129.372 45.656H129.024ZM132.804 47H134.568V41.048H132.804V47Z" fill="white"/>
<path d="M139.443 47.144C140.091 47.144 140.823 46.952 141.411 46.436L140.715 45.284C140.403 45.524 140.031 45.716 139.647 45.716C138.879 45.716 138.315 45.056 138.315 44.024C138.315 42.992 138.855 42.332 139.707 42.332C139.983 42.332 140.223 42.44 140.511 42.68L141.339 41.54C140.895 41.168 140.331 40.904 139.599 40.904C137.955 40.904 136.503 42.044 136.503 44.024C136.503 46.004 137.787 47.144 139.443 47.144Z" fill="white"/>
<path d="M144.339 47H146.103V42.428H147.867V41.048H142.587V42.428H144.339V47Z" fill="white"/>
<path d="M149.682 49.208H151.446V47.468L151.386 46.52C151.806 46.916 152.286 47.144 152.802 47.144C154.086 47.144 155.31 45.968 155.31 43.928C155.31 42.092 154.422 40.904 152.982 40.904C152.358 40.904 151.758 41.216 151.29 41.636H151.242L151.122 41.048H149.682V49.208ZM152.394 45.704C152.094 45.704 151.758 45.608 151.446 45.32V42.884C151.794 42.512 152.106 42.344 152.466 42.344C153.174 42.344 153.498 42.884 153.498 43.952C153.498 45.176 153.006 45.704 152.394 45.704Z" fill="white"/>
<path d="M159.837 47.144C161.337 47.144 162.729 46.004 162.729 44.024C162.729 42.044 161.337 40.904 159.837 40.904C158.325 40.904 156.933 42.044 156.933 44.024C156.933 46.004 158.325 47.144 159.837 47.144ZM159.837 45.716C159.105 45.716 158.745 45.056 158.745 44.024C158.745 42.992 159.105 42.332 159.837 42.332C160.557 42.332 160.929 42.992 160.929 44.024C160.929 45.056 160.557 45.716 159.837 45.716Z" fill="white"/>
<path d="M165.668 46.928C165.668 47.54 165.188 48.08 164.312 48.392L164.672 49.328C166.076 48.908 166.832 47.912 166.832 46.592C166.832 45.548 166.4 44.924 165.608 44.924C164.996 44.924 164.504 45.32 164.504 45.932C164.504 46.568 165.008 46.928 165.572 46.928H165.668Z" fill="white"/>
<path d="M171.98 47.144C173.132 47.144 173.78 46.412 173.972 45.08C174.104 44.204 174.2 43.304 174.308 42.428H175.544V47H177.308V41.048H172.916C172.772 42.236 172.664 43.412 172.508 44.588C172.424 45.236 172.184 45.476 171.86 45.476C171.752 45.476 171.656 45.452 171.56 45.428L171.272 47.012C171.488 47.096 171.704 47.144 171.98 47.144Z" fill="white"/>
<path d="M182.243 47.144C182.951 47.144 183.743 46.892 184.355 46.472L183.767 45.404C183.335 45.668 182.927 45.8 182.483 45.8C181.691 45.8 181.091 45.404 180.935 44.54H184.499C184.535 44.396 184.571 44.072 184.571 43.76C184.571 42.14 183.731 40.904 182.039 40.904C180.611 40.904 179.231 42.092 179.231 44.024C179.231 45.992 180.539 47.144 182.243 47.144ZM180.923 43.376C181.043 42.62 181.523 42.248 182.075 42.248C182.783 42.248 183.071 42.716 183.071 43.376H180.923Z" fill="white"/>
<path d="M186.51 47H188.274V42.428H190.602V41.048H186.51V47Z" fill="white"/>
<path d="M193.452 47.144C194.124 47.144 194.676 46.832 195.18 46.388H195.228L195.348 47H196.788V43.592C196.788 41.768 195.948 40.904 194.424 40.904C193.488 40.904 192.636 41.228 191.88 41.684L192.516 42.848C193.092 42.512 193.584 42.308 194.088 42.308C194.736 42.308 194.988 42.644 195.024 43.172C192.672 43.412 191.676 44.096 191.676 45.344C191.676 46.352 192.36 47.144 193.452 47.144ZM194.052 45.776C193.632 45.776 193.368 45.596 193.368 45.212C193.368 44.756 193.776 44.396 195.024 44.228V45.272C194.712 45.584 194.448 45.776 194.052 45.776Z" fill="white"/>
<path d="M199 47.144C200.152 47.144 200.8 46.412 200.992 45.08C201.124 44.204 201.22 43.304 201.328 42.428H202.564V47H204.328V41.048H199.936C199.792 42.236 199.684 43.412 199.528 44.588C199.444 45.236 199.204 45.476 198.88 45.476C198.772 45.476 198.676 45.452 198.58 45.428L198.292 47.012C198.508 47.096 198.724 47.144 199 47.144Z" fill="white"/>
<path d="M206.599 47H209.023C210.475 47 211.579 46.484 211.579 44.948C211.579 43.46 210.475 42.944 209.023 42.944H208.363V41.048H206.599V47ZM208.363 45.656V44.252H208.951C209.587 44.252 209.887 44.48 209.887 44.936C209.887 45.428 209.587 45.656 208.951 45.656H208.363Z" fill="white"/>
<path d="M213.507 47H215.271V44.732H217.179V47H218.943V41.048H217.179V43.196H215.271V41.048H213.507V47Z" fill="white"/>
<path d="M223.767 47.144C225.267 47.144 226.659 46.004 226.659 44.024C226.659 42.044 225.267 40.904 223.767 40.904C222.255 40.904 220.863 42.044 220.863 44.024C220.863 46.004 222.255 47.144 223.767 47.144ZM223.767 45.716C223.035 45.716 222.675 45.056 222.675 44.024C222.675 42.992 223.035 42.332 223.767 42.332C224.487 42.332 224.859 42.992 224.859 44.024C224.859 45.056 224.487 45.716 223.767 45.716Z" fill="white"/>
<defs>
<linearGradient id="paint0_linear_411_2118" x1="0.00782504" y1="30.5433" x2="39" y2="30.5433" gradientUnits="userSpaceOnUse">
<stop stop-color="#6BE316"/>
<stop offset="1" stop-color="#2B8436"/>
</linearGradient>
</defs>
</svg>
