<svg width="229" height="57" viewBox="0 0 229 57" fill="none" xmlns="http://www.w3.org/2000/svg">
<path fill-rule="evenodd" clip-rule="evenodd" d="M6.63563 25.0262L0.00782504 21.0541V0H4.0925C14.3668 6.14924 23.9446 11.8849 34.2189 18.0341C38.061 20.3362 39 24.714 39 26.4464V31.9636C37.6697 29.2167 35.1266 26.7664 32.2 25.0184L6.63563 9.71549V16.5592L20.7677 25.0184H6.63563V25.0262ZM32.3644 31.9714L38.9922 35.9434V56.9975H34.9075C24.6332 50.8483 15.0554 45.1126 4.7811 38.9634C0.939005 36.6613 0 32.2835 0 30.5511V25.034C1.33026 27.7808 3.8734 30.2312 6.79996 31.9792L32.3644 47.282V40.4383L18.2323 31.9792H32.3644V31.9714Z" fill="url(#paint0_linear_411_2325)"/>
<path d="M54.1762 35.3119C58.2322 35.3119 60.5722 32.8679 60.5722 30.0599C60.5722 27.6679 59.2722 26.2899 57.2182 25.4579L55.0342 24.5739C53.5782 23.9759 52.4602 23.6119 52.4602 22.5719C52.4602 21.6099 53.2922 21.0379 54.6182 21.0379C55.9702 21.0379 57.0102 21.5319 58.1282 22.3899L60.0782 19.9719C58.6222 18.5159 56.5682 17.7359 54.6182 17.7359C51.0822 17.7359 48.5862 19.9719 48.5862 22.7799C48.5862 25.2499 50.2502 26.7059 51.9922 27.4079L54.2022 28.3439C55.6842 28.9679 56.6462 29.3059 56.6462 30.3719C56.6462 31.3859 55.8662 32.0099 54.2802 32.0099C52.8762 32.0099 51.3162 31.2819 50.0942 30.2419L47.9102 32.8679C49.6262 34.4799 51.9662 35.3119 54.1762 35.3119Z" fill="#191C1A"/>
<path d="M65.3474 35.3119C66.8034 35.3119 67.9994 34.6359 69.0914 33.6739H69.1954L69.4554 34.9999H72.5754V27.6159C72.5754 23.6639 70.7554 21.7919 67.4534 21.7919C65.4254 21.7919 63.5794 22.4939 61.9414 23.4819L63.3194 26.0039C64.5674 25.2759 65.6334 24.8339 66.7254 24.8339C68.1294 24.8339 68.6754 25.5619 68.7534 26.7059C63.6574 27.2259 61.4994 28.7079 61.4994 31.4119C61.4994 33.5959 62.9814 35.3119 65.3474 35.3119ZM66.6474 32.3479C65.7374 32.3479 65.1654 31.9579 65.1654 31.1259C65.1654 30.1379 66.0494 29.3579 68.7534 28.9939V31.2559C68.0774 31.9319 67.5054 32.3479 66.6474 32.3479Z" fill="#191C1A"/>
<path d="M82.7504 16.9299C82.1784 16.7219 81.2424 16.4619 80.1764 16.4619C76.6924 16.4619 75.4184 18.6979 75.4184 21.4279V22.1299L73.7024 22.2599V25.0939H75.4184V34.9999H79.2404V25.0939H81.5544V22.1039H79.2404V21.3239C79.2404 19.9979 79.7864 19.4779 80.7224 19.4779C81.1384 19.4779 81.6064 19.5819 82.0484 19.7379L82.7504 16.9299Z" fill="#191C1A"/>
<path d="M88.1078 35.3119C89.6418 35.3119 91.3578 34.7659 92.6838 33.8559L91.4098 31.5419C90.4738 32.1139 89.5898 32.3999 88.6278 32.3999C86.9118 32.3999 85.6118 31.5419 85.2738 29.6699H92.9958C93.0738 29.3579 93.1518 28.6559 93.1518 27.9799C93.1518 24.4699 91.3318 21.7919 87.6658 21.7919C84.5718 21.7919 81.5818 24.3659 81.5818 28.5519C81.5818 32.8159 84.4158 35.3119 88.1078 35.3119ZM85.2478 27.1479C85.5078 25.5099 86.5478 24.7039 87.7438 24.7039C89.2778 24.7039 89.9018 25.7179 89.9018 27.1479H85.2478Z" fill="#191C1A"/>
<path d="M98.1639 34.9999H110.436V31.7759H102.87L110.358 20.3619V18.0479H98.8659V21.2719H105.652L98.1639 32.6859V34.9999Z" fill="#191C1A"/>
<path d="M117.152 35.3119C120.402 35.3119 123.418 32.8419 123.418 28.5519C123.418 24.2619 120.402 21.7919 117.152 21.7919C113.876 21.7919 110.86 24.2619 110.86 28.5519C110.86 32.8419 113.876 35.3119 117.152 35.3119ZM117.152 32.2179C115.566 32.2179 114.786 30.7879 114.786 28.5519C114.786 26.3159 115.566 24.8859 117.152 24.8859C118.712 24.8859 119.518 26.3159 119.518 28.5519C119.518 30.7879 118.712 32.2179 117.152 32.2179Z" fill="#191C1A"/>
<path d="M124.996 34.9999H128.818V26.2899C129.65 25.4839 130.248 25.0419 131.21 25.0419C132.302 25.0419 132.796 25.6139 132.796 27.4859V34.9999H136.618V26.9919C136.618 23.7679 135.422 21.7919 132.614 21.7919C130.872 21.7919 129.572 22.7019 128.48 23.7419H128.376L128.116 22.1039H124.996V34.9999Z" fill="#191C1A"/>
<path d="M144.607 35.3119C146.141 35.3119 147.857 34.7659 149.183 33.8559L147.909 31.5419C146.973 32.1139 146.089 32.3999 145.127 32.3999C143.411 32.3999 142.111 31.5419 141.773 29.6699H149.495C149.573 29.3579 149.651 28.6559 149.651 27.9799C149.651 24.4699 147.831 21.7919 144.165 21.7919C141.071 21.7919 138.081 24.3659 138.081 28.5519C138.081 32.8159 140.915 35.3119 144.607 35.3119ZM141.747 27.1479C142.007 25.5099 143.047 24.7039 144.243 24.7039C145.777 24.7039 146.401 25.7179 146.401 27.1479H141.747Z" fill="#191C1A"/>
<path d="M155.729 34.9999H159.161V28.7859C159.161 27.1219 158.849 24.6519 158.667 23.0139H158.771L160.123 27.0439L162.541 33.5179H164.647L167.065 27.0439L168.443 23.0139H168.547C168.365 24.6519 168.053 27.1219 168.053 28.7859V34.9999H171.537V18.0479H167.377L164.699 25.5879C164.361 26.5759 164.075 27.6679 163.737 28.7079H163.633C163.295 27.6679 162.983 26.5759 162.645 25.5879L159.915 18.0479H155.729V34.9999Z" fill="#191C1A"/>
<path d="M177.432 35.3119C178.888 35.3119 180.084 34.6359 181.176 33.6739H181.28L181.54 34.9999H184.66V27.6159C184.66 23.6639 182.84 21.7919 179.538 21.7919C177.51 21.7919 175.664 22.4939 174.026 23.4819L175.404 26.0039C176.652 25.2759 177.718 24.8339 178.81 24.8339C180.214 24.8339 180.76 25.5619 180.838 26.7059C175.742 27.2259 173.584 28.7079 173.584 31.4119C173.584 33.5959 175.066 35.3119 177.432 35.3119ZM178.732 32.3479C177.822 32.3479 177.25 31.9579 177.25 31.1259C177.25 30.1379 178.134 29.3579 180.838 28.9939V31.2559C180.162 31.9319 179.59 32.3479 178.732 32.3479Z" fill="#191C1A"/>
<path d="M186.853 34.9999H190.675V27.5119C191.351 25.7699 192.547 25.1459 193.509 25.1459C194.055 25.1459 194.445 25.2239 194.913 25.3539L195.537 22.0519C195.173 21.8959 194.731 21.7919 194.003 21.7919C192.677 21.7919 191.273 22.6239 190.337 24.3659H190.233L189.973 22.1039H186.853V34.9999Z" fill="#191C1A"/>
<path d="M196.172 34.9999H199.89V31.8279L201.528 29.9819L204.44 34.9999H208.574L203.712 27.4079L208.236 22.1039H204.076L199.994 27.2259H199.89V16.7739H196.172V34.9999Z" fill="#191C1A"/>
<path d="M214.412 35.3119C215.946 35.3119 217.662 34.7659 218.988 33.8559L217.714 31.5419C216.778 32.1139 215.894 32.3999 214.932 32.3999C213.216 32.3999 211.916 31.5419 211.578 29.6699H219.3C219.378 29.3579 219.456 28.6559 219.456 27.9799C219.456 24.4699 217.636 21.7919 213.97 21.7919C210.876 21.7919 207.886 24.3659 207.886 28.5519C207.886 32.8159 210.72 35.3119 214.412 35.3119ZM211.552 27.1479C211.812 25.5099 212.852 24.7039 214.048 24.7039C215.582 24.7039 216.206 25.7179 216.206 27.1479H211.552Z" fill="#191C1A"/>
<path d="M225.769 35.3119C227.017 35.3119 227.953 35.0519 228.629 34.8439L228.031 32.0619C227.693 32.1919 227.225 32.3219 226.809 32.3219C225.795 32.3219 225.145 31.7239 225.145 30.2679V25.0939H228.239V22.1039H225.145V18.6719H221.973L221.531 22.1039L219.555 22.2599V25.0939H221.323V30.3199C221.323 33.3099 222.571 35.3119 225.769 35.3119Z" fill="#191C1A"/>
<path d="M47.9242 46.9999H50.8162C52.4602 46.9999 53.7682 46.3039 53.7682 44.5159C53.7682 42.7999 52.4122 42.2359 50.7682 42.2359H49.6882V40.6639H53.2642V39.1759H47.9242V46.9999ZM49.6882 45.6319V43.5319H50.6242C51.5482 43.5319 52.0402 43.8079 52.0402 44.5399C52.0402 45.2959 51.5722 45.6319 50.6362 45.6319H49.6882Z" fill="#191C1A"/>
<path d="M58.3595 47.1439C59.0675 47.1439 59.8595 46.8919 60.4715 46.4719L59.8835 45.4039C59.4515 45.6679 59.0435 45.7999 58.5995 45.7999C57.8075 45.7999 57.2075 45.4039 57.0515 44.5399H60.6155C60.6515 44.3959 60.6875 44.0719 60.6875 43.7599C60.6875 42.1399 59.8475 40.9039 58.1555 40.9039C56.7275 40.9039 55.3475 42.0919 55.3475 44.0239C55.3475 45.9919 56.6555 47.1439 58.3595 47.1439ZM57.0395 43.3759C57.1595 42.6199 57.6395 42.2479 58.1915 42.2479C58.8995 42.2479 59.1875 42.7159 59.1875 43.3759H57.0395Z" fill="#191C1A"/>
<path d="M64.4864 47.1439C65.8304 47.1439 67.1504 46.5079 67.1504 45.3079C67.1504 44.5039 66.7064 44.0839 65.9864 43.8919V43.8439C66.6344 43.6399 66.9224 43.0879 66.9224 42.6079C66.9224 41.4199 65.7464 40.9039 64.4624 40.9039C63.6704 40.9039 62.9384 41.0959 62.2904 41.5159L62.9384 42.6439C63.3944 42.3439 63.8384 42.2479 64.3424 42.2479C64.9304 42.2479 65.2424 42.4519 65.2424 42.7999C65.2424 43.1719 64.9544 43.3759 64.4024 43.3759H63.5624V44.5399H64.5104C65.1344 44.5399 65.4224 44.7199 65.4224 45.1279C65.4224 45.5479 64.9424 45.7999 64.3184 45.7999C63.8984 45.7999 63.3584 45.6559 62.8664 45.3199L62.1824 46.4359C62.9504 46.9999 63.6824 47.1439 64.4864 47.1439Z" fill="#191C1A"/>
<path d="M71.6094 47.1439C73.1094 47.1439 74.5014 46.0039 74.5014 44.0239C74.5014 42.0439 73.1094 40.9039 71.6094 40.9039C70.0974 40.9039 68.7054 42.0439 68.7054 44.0239C68.7054 46.0039 70.0974 47.1439 71.6094 47.1439ZM71.6094 45.7159C70.8774 45.7159 70.5174 45.0559 70.5174 44.0239C70.5174 42.9919 70.8774 42.3319 71.6094 42.3319C72.3294 42.3319 72.7014 42.9919 72.7014 44.0239C72.7014 45.0559 72.3294 45.7159 71.6094 45.7159Z" fill="#191C1A"/>
<path d="M76.4297 46.9999H78.1937V42.4279H79.9937V46.9999H81.7577V41.0479H76.4297V46.9999Z" fill="#191C1A"/>
<path d="M85.5403 47.1439C86.2123 47.1439 86.7643 46.8319 87.2683 46.3879H87.3163L87.4363 46.9999H88.8763V43.5919C88.8763 41.7679 88.0363 40.9039 86.5123 40.9039C85.5763 40.9039 84.7243 41.2279 83.9683 41.6839L84.6043 42.8479C85.1803 42.5119 85.6723 42.3079 86.1763 42.3079C86.8243 42.3079 87.0763 42.6439 87.1123 43.1719C84.7603 43.4119 83.7643 44.0959 83.7643 45.3439C83.7643 46.3519 84.4483 47.1439 85.5403 47.1439ZM86.1403 45.7759C85.7203 45.7759 85.4563 45.5959 85.4563 45.2119C85.4563 44.7559 85.8643 44.3959 87.1123 44.2279V45.2719C86.8003 45.5839 86.5363 45.7759 86.1403 45.7759Z" fill="#191C1A"/>
<path d="M93.6804 47.1439C94.3284 47.1439 95.0604 46.9519 95.6484 46.4359L94.9524 45.2839C94.6404 45.5239 94.2684 45.7159 93.8844 45.7159C93.1164 45.7159 92.5524 45.0559 92.5524 44.0239C92.5524 42.9919 93.0924 42.3319 93.9444 42.3319C94.2204 42.3319 94.4604 42.4399 94.7484 42.6799L95.5764 41.5399C95.1324 41.1679 94.5684 40.9039 93.8364 40.9039C92.1924 40.9039 90.7404 42.0439 90.7404 44.0239C90.7404 46.0039 92.0244 47.1439 93.6804 47.1439Z" fill="#191C1A"/>
<path d="M97.41 46.9999H99.174V44.7319H101.082V46.9999H102.846V41.0479H101.082V43.1959H99.174V41.0479H97.41V46.9999Z" fill="#191C1A"/>
<path d="M107.67 47.1439C109.17 47.1439 110.562 46.0039 110.562 44.0239C110.562 42.0439 109.17 40.9039 107.67 40.9039C106.158 40.9039 104.766 42.0439 104.766 44.0239C104.766 46.0039 106.158 47.1439 107.67 47.1439ZM107.67 45.7159C106.938 45.7159 106.578 45.0559 106.578 44.0239C106.578 42.9919 106.938 42.3319 107.67 42.3319C108.39 42.3319 108.762 42.9919 108.762 44.0239C108.762 45.0559 108.39 45.7159 107.67 45.7159Z" fill="#191C1A"/>
<path d="M113.501 46.9279C113.501 47.5399 113.021 48.0799 112.145 48.3919L112.505 49.3279C113.909 48.9079 114.665 47.9119 114.665 46.5919C114.665 45.5479 114.233 44.9239 113.441 44.9239C112.829 44.9239 112.337 45.3199 112.337 45.9319C112.337 46.5679 112.841 46.9279 113.405 46.9279H113.501Z" fill="#191C1A"/>
<path d="M121.229 43.3639C121.601 42.8359 122.045 42.6439 122.453 42.6439C123.077 42.6439 123.473 43.0399 123.473 44.0959C123.473 45.0919 123.113 45.7159 122.465 45.7159C121.685 45.7159 121.229 45.0679 121.229 43.6999V43.3639ZM124.721 38.2399C124.349 38.4079 124.013 38.4919 123.293 38.5879C121.085 38.8879 119.537 39.7039 119.537 43.2799C119.537 45.7159 120.593 47.1439 122.489 47.1439C124.097 47.1439 125.273 45.9319 125.273 44.0959C125.273 42.2719 124.229 41.3479 122.981 41.3479C122.333 41.3479 121.697 41.5999 121.289 42.0799C121.445 40.5199 121.997 40.4479 123.665 40.2199C124.193 40.1479 124.745 40.0159 125.057 39.7759L124.721 38.2399Z" fill="#191C1A"/>
<path d="M127.26 46.9999H129.456C130.896 46.9999 132.012 46.4839 132.012 44.9479C132.012 43.4599 130.896 42.9439 129.456 42.9439H129.024V41.0479H127.26V46.9999ZM129.024 45.6559V44.2519H129.372C130.008 44.2519 130.32 44.4799 130.32 44.9359C130.32 45.4279 130.008 45.6559 129.372 45.6559H129.024ZM132.804 46.9999H134.568V41.0479H132.804V46.9999Z" fill="#191C1A"/>
<path d="M139.443 47.1439C140.091 47.1439 140.823 46.9519 141.411 46.4359L140.715 45.2839C140.403 45.5239 140.031 45.7159 139.647 45.7159C138.879 45.7159 138.315 45.0559 138.315 44.0239C138.315 42.9919 138.855 42.3319 139.707 42.3319C139.983 42.3319 140.223 42.4399 140.511 42.6799L141.339 41.5399C140.895 41.1679 140.331 40.9039 139.599 40.9039C137.955 40.9039 136.503 42.0439 136.503 44.0239C136.503 46.0039 137.787 47.1439 139.443 47.1439Z" fill="#191C1A"/>
<path d="M144.339 46.9999H146.103V42.4279H147.867V41.0479H142.587V42.4279H144.339V46.9999Z" fill="#191C1A"/>
<path d="M149.682 49.2079H151.446V47.4679L151.386 46.5199C151.806 46.9159 152.286 47.1439 152.802 47.1439C154.086 47.1439 155.31 45.9679 155.31 43.9279C155.31 42.0919 154.422 40.9039 152.982 40.9039C152.358 40.9039 151.758 41.2159 151.29 41.6359H151.242L151.122 41.0479H149.682V49.2079ZM152.394 45.7039C152.094 45.7039 151.758 45.6079 151.446 45.3199V42.8839C151.794 42.5119 152.106 42.3439 152.466 42.3439C153.174 42.3439 153.498 42.8839 153.498 43.9519C153.498 45.1759 153.006 45.7039 152.394 45.7039Z" fill="#191C1A"/>
<path d="M159.837 47.1439C161.337 47.1439 162.729 46.0039 162.729 44.0239C162.729 42.0439 161.337 40.9039 159.837 40.9039C158.325 40.9039 156.933 42.0439 156.933 44.0239C156.933 46.0039 158.325 47.1439 159.837 47.1439ZM159.837 45.7159C159.105 45.7159 158.745 45.0559 158.745 44.0239C158.745 42.9919 159.105 42.3319 159.837 42.3319C160.557 42.3319 160.929 42.9919 160.929 44.0239C160.929 45.0559 160.557 45.7159 159.837 45.7159Z" fill="#191C1A"/>
<path d="M165.668 46.9279C165.668 47.5399 165.188 48.0799 164.312 48.3919L164.672 49.3279C166.076 48.9079 166.832 47.9119 166.832 46.5919C166.832 45.5479 166.4 44.9239 165.608 44.9239C164.996 44.9239 164.504 45.3199 164.504 45.9319C164.504 46.5679 165.008 46.9279 165.572 46.9279H165.668Z" fill="#191C1A"/>
<path d="M171.98 47.1439C173.132 47.1439 173.78 46.4119 173.972 45.0799C174.104 44.2039 174.2 43.3039 174.308 42.4279H175.544V46.9999H177.308V41.0479H172.916C172.772 42.2359 172.664 43.4119 172.508 44.5879C172.424 45.2359 172.184 45.4759 171.86 45.4759C171.752 45.4759 171.656 45.4519 171.56 45.4279L171.272 47.0119C171.488 47.0959 171.704 47.1439 171.98 47.1439Z" fill="#191C1A"/>
<path d="M182.243 47.1439C182.951 47.1439 183.743 46.8919 184.355 46.4719L183.767 45.4039C183.335 45.6679 182.927 45.7999 182.483 45.7999C181.691 45.7999 181.091 45.4039 180.935 44.5399H184.499C184.535 44.3959 184.571 44.0719 184.571 43.7599C184.571 42.1399 183.731 40.9039 182.039 40.9039C180.611 40.9039 179.231 42.0919 179.231 44.0239C179.231 45.9919 180.539 47.1439 182.243 47.1439ZM180.923 43.3759C181.043 42.6199 181.523 42.2479 182.075 42.2479C182.783 42.2479 183.071 42.7159 183.071 43.3759H180.923Z" fill="#191C1A"/>
<path d="M186.51 46.9999H188.274V42.4279H190.602V41.0479H186.51V46.9999Z" fill="#191C1A"/>
<path d="M193.452 47.1439C194.124 47.1439 194.676 46.8319 195.18 46.3879H195.228L195.348 46.9999H196.788V43.5919C196.788 41.7679 195.948 40.9039 194.424 40.9039C193.488 40.9039 192.636 41.2279 191.88 41.6839L192.516 42.8479C193.092 42.5119 193.584 42.3079 194.088 42.3079C194.736 42.3079 194.988 42.6439 195.024 43.1719C192.672 43.4119 191.676 44.0959 191.676 45.3439C191.676 46.3519 192.36 47.1439 193.452 47.1439ZM194.052 45.7759C193.632 45.7759 193.368 45.5959 193.368 45.2119C193.368 44.7559 193.776 44.3959 195.024 44.2279V45.2719C194.712 45.5839 194.448 45.7759 194.052 45.7759Z" fill="#191C1A"/>
<path d="M199 47.1439C200.152 47.1439 200.8 46.4119 200.992 45.0799C201.124 44.2039 201.22 43.3039 201.328 42.4279H202.564V46.9999H204.328V41.0479H199.936C199.792 42.2359 199.684 43.4119 199.528 44.5879C199.444 45.2359 199.204 45.4759 198.88 45.4759C198.772 45.4759 198.676 45.4519 198.58 45.4279L198.292 47.0119C198.508 47.0959 198.724 47.1439 199 47.1439Z" fill="#191C1A"/>
<path d="M206.599 46.9999H209.023C210.475 46.9999 211.579 46.4839 211.579 44.9479C211.579 43.4599 210.475 42.9439 209.023 42.9439H208.363V41.0479H206.599V46.9999ZM208.363 45.6559V44.2519H208.951C209.587 44.2519 209.887 44.4799 209.887 44.9359C209.887 45.4279 209.587 45.6559 208.951 45.6559H208.363Z" fill="#191C1A"/>
<path d="M213.507 46.9999H215.271V44.7319H217.179V46.9999H218.943V41.0479H217.179V43.1959H215.271V41.0479H213.507V46.9999Z" fill="#191C1A"/>
<path d="M223.767 47.1439C225.267 47.1439 226.659 46.0039 226.659 44.0239C226.659 42.0439 225.267 40.9039 223.767 40.9039C222.255 40.9039 220.863 42.0439 220.863 44.0239C220.863 46.0039 222.255 47.1439 223.767 47.1439ZM223.767 45.7159C223.035 45.7159 222.675 45.0559 222.675 44.0239C222.675 42.9919 223.035 42.3319 223.767 42.3319C224.487 42.3319 224.859 42.9919 224.859 44.0239C224.859 45.0559 224.487 45.7159 223.767 45.7159Z" fill="#191C1A"/>
<defs>
<linearGradient id="paint0_linear_411_2325" x1="0.00782504" y1="30.5433" x2="39" y2="30.5433" gradientUnits="userSpaceOnUse">
<stop stop-color="#6BE316"/>
<stop offset="1" stop-color="#2B8436"/>
</linearGradient>
</defs>
</svg>
